%TF.GenerationSoftware,KiCad,Pcbnew,7.0.10+1*%
%TF.CreationDate,2024-03-16T10:02:45+01:00*%
%TF.ProjectId,PCB,5043422e-6b69-4636-9164-5f7063625858,rev?*%
%TF.SameCoordinates,Original*%
%TF.FileFunction,Legend,Top*%
%TF.FilePolarity,Positive*%
%FSLAX46Y46*%
G04 Gerber Fmt 4.6, Leading zero omitted, Abs format (unit mm)*
G04 Created by KiCad (PCBNEW 7.0.10+1) date 2024-03-16 10:02:45*
%MOMM*%
%LPD*%
G01*
G04 APERTURE LIST*
%ADD10C,0.150000*%
%ADD11C,0.120000*%
G04 APERTURE END LIST*
D10*
X127682580Y-141584857D02*
X127730200Y-141632476D01*
X127730200Y-141632476D02*
X127777819Y-141775333D01*
X127777819Y-141775333D02*
X127777819Y-141870571D01*
X127777819Y-141870571D02*
X127730200Y-142013428D01*
X127730200Y-142013428D02*
X127634961Y-142108666D01*
X127634961Y-142108666D02*
X127539723Y-142156285D01*
X127539723Y-142156285D02*
X127349247Y-142203904D01*
X127349247Y-142203904D02*
X127206390Y-142203904D01*
X127206390Y-142203904D02*
X127015914Y-142156285D01*
X127015914Y-142156285D02*
X126920676Y-142108666D01*
X126920676Y-142108666D02*
X126825438Y-142013428D01*
X126825438Y-142013428D02*
X126777819Y-141870571D01*
X126777819Y-141870571D02*
X126777819Y-141775333D01*
X126777819Y-141775333D02*
X126825438Y-141632476D01*
X126825438Y-141632476D02*
X126873057Y-141584857D01*
X127777819Y-140632476D02*
X127777819Y-141203904D01*
X127777819Y-140918190D02*
X126777819Y-140918190D01*
X126777819Y-140918190D02*
X126920676Y-141013428D01*
X126920676Y-141013428D02*
X127015914Y-141108666D01*
X127015914Y-141108666D02*
X127063533Y-141203904D01*
X126873057Y-140251523D02*
X126825438Y-140203904D01*
X126825438Y-140203904D02*
X126777819Y-140108666D01*
X126777819Y-140108666D02*
X126777819Y-139870571D01*
X126777819Y-139870571D02*
X126825438Y-139775333D01*
X126825438Y-139775333D02*
X126873057Y-139727714D01*
X126873057Y-139727714D02*
X126968295Y-139680095D01*
X126968295Y-139680095D02*
X127063533Y-139680095D01*
X127063533Y-139680095D02*
X127206390Y-139727714D01*
X127206390Y-139727714D02*
X127777819Y-140299142D01*
X127777819Y-140299142D02*
X127777819Y-139680095D01*
X129587580Y-145267857D02*
X129635200Y-145315476D01*
X129635200Y-145315476D02*
X129682819Y-145458333D01*
X129682819Y-145458333D02*
X129682819Y-145553571D01*
X129682819Y-145553571D02*
X129635200Y-145696428D01*
X129635200Y-145696428D02*
X129539961Y-145791666D01*
X129539961Y-145791666D02*
X129444723Y-145839285D01*
X129444723Y-145839285D02*
X129254247Y-145886904D01*
X129254247Y-145886904D02*
X129111390Y-145886904D01*
X129111390Y-145886904D02*
X128920914Y-145839285D01*
X128920914Y-145839285D02*
X128825676Y-145791666D01*
X128825676Y-145791666D02*
X128730438Y-145696428D01*
X128730438Y-145696428D02*
X128682819Y-145553571D01*
X128682819Y-145553571D02*
X128682819Y-145458333D01*
X128682819Y-145458333D02*
X128730438Y-145315476D01*
X128730438Y-145315476D02*
X128778057Y-145267857D01*
X129682819Y-144315476D02*
X129682819Y-144886904D01*
X129682819Y-144601190D02*
X128682819Y-144601190D01*
X128682819Y-144601190D02*
X128825676Y-144696428D01*
X128825676Y-144696428D02*
X128920914Y-144791666D01*
X128920914Y-144791666D02*
X128968533Y-144886904D01*
X128682819Y-143982142D02*
X128682819Y-143363095D01*
X128682819Y-143363095D02*
X129063771Y-143696428D01*
X129063771Y-143696428D02*
X129063771Y-143553571D01*
X129063771Y-143553571D02*
X129111390Y-143458333D01*
X129111390Y-143458333D02*
X129159009Y-143410714D01*
X129159009Y-143410714D02*
X129254247Y-143363095D01*
X129254247Y-143363095D02*
X129492342Y-143363095D01*
X129492342Y-143363095D02*
X129587580Y-143410714D01*
X129587580Y-143410714D02*
X129635200Y-143458333D01*
X129635200Y-143458333D02*
X129682819Y-143553571D01*
X129682819Y-143553571D02*
X129682819Y-143839285D01*
X129682819Y-143839285D02*
X129635200Y-143934523D01*
X129635200Y-143934523D02*
X129587580Y-143982142D01*
X129267580Y-145267857D02*
X129315200Y-145315476D01*
X129315200Y-145315476D02*
X129362819Y-145458333D01*
X129362819Y-145458333D02*
X129362819Y-145553571D01*
X129362819Y-145553571D02*
X129315200Y-145696428D01*
X129315200Y-145696428D02*
X129219961Y-145791666D01*
X129219961Y-145791666D02*
X129124723Y-145839285D01*
X129124723Y-145839285D02*
X128934247Y-145886904D01*
X128934247Y-145886904D02*
X128791390Y-145886904D01*
X128791390Y-145886904D02*
X128600914Y-145839285D01*
X128600914Y-145839285D02*
X128505676Y-145791666D01*
X128505676Y-145791666D02*
X128410438Y-145696428D01*
X128410438Y-145696428D02*
X128362819Y-145553571D01*
X128362819Y-145553571D02*
X128362819Y-145458333D01*
X128362819Y-145458333D02*
X128410438Y-145315476D01*
X128410438Y-145315476D02*
X128458057Y-145267857D01*
X129362819Y-144315476D02*
X129362819Y-144886904D01*
X129362819Y-144601190D02*
X128362819Y-144601190D01*
X128362819Y-144601190D02*
X128505676Y-144696428D01*
X128505676Y-144696428D02*
X128600914Y-144791666D01*
X128600914Y-144791666D02*
X128648533Y-144886904D01*
X128696152Y-143458333D02*
X129362819Y-143458333D01*
X128315200Y-143696428D02*
X129029485Y-143934523D01*
X129029485Y-143934523D02*
X129029485Y-143315476D01*
X131528666Y-124477819D02*
X131528666Y-125192104D01*
X131528666Y-125192104D02*
X131481047Y-125334961D01*
X131481047Y-125334961D02*
X131385809Y-125430200D01*
X131385809Y-125430200D02*
X131242952Y-125477819D01*
X131242952Y-125477819D02*
X131147714Y-125477819D01*
X131909619Y-124477819D02*
X132528666Y-124477819D01*
X132528666Y-124477819D02*
X132195333Y-124858771D01*
X132195333Y-124858771D02*
X132338190Y-124858771D01*
X132338190Y-124858771D02*
X132433428Y-124906390D01*
X132433428Y-124906390D02*
X132481047Y-124954009D01*
X132481047Y-124954009D02*
X132528666Y-125049247D01*
X132528666Y-125049247D02*
X132528666Y-125287342D01*
X132528666Y-125287342D02*
X132481047Y-125382580D01*
X132481047Y-125382580D02*
X132433428Y-125430200D01*
X132433428Y-125430200D02*
X132338190Y-125477819D01*
X132338190Y-125477819D02*
X132052476Y-125477819D01*
X132052476Y-125477819D02*
X131957238Y-125430200D01*
X131957238Y-125430200D02*
X131909619Y-125382580D01*
X87677580Y-145267857D02*
X87725200Y-145315476D01*
X87725200Y-145315476D02*
X87772819Y-145458333D01*
X87772819Y-145458333D02*
X87772819Y-145553571D01*
X87772819Y-145553571D02*
X87725200Y-145696428D01*
X87725200Y-145696428D02*
X87629961Y-145791666D01*
X87629961Y-145791666D02*
X87534723Y-145839285D01*
X87534723Y-145839285D02*
X87344247Y-145886904D01*
X87344247Y-145886904D02*
X87201390Y-145886904D01*
X87201390Y-145886904D02*
X87010914Y-145839285D01*
X87010914Y-145839285D02*
X86915676Y-145791666D01*
X86915676Y-145791666D02*
X86820438Y-145696428D01*
X86820438Y-145696428D02*
X86772819Y-145553571D01*
X86772819Y-145553571D02*
X86772819Y-145458333D01*
X86772819Y-145458333D02*
X86820438Y-145315476D01*
X86820438Y-145315476D02*
X86868057Y-145267857D01*
X87772819Y-144315476D02*
X87772819Y-144886904D01*
X87772819Y-144601190D02*
X86772819Y-144601190D01*
X86772819Y-144601190D02*
X86915676Y-144696428D01*
X86915676Y-144696428D02*
X87010914Y-144791666D01*
X87010914Y-144791666D02*
X87058533Y-144886904D01*
X86772819Y-143982142D02*
X86772819Y-143315476D01*
X86772819Y-143315476D02*
X87772819Y-143744047D01*
X86793819Y-140052904D02*
X87603342Y-140052904D01*
X87603342Y-140052904D02*
X87698580Y-140005285D01*
X87698580Y-140005285D02*
X87746200Y-139957666D01*
X87746200Y-139957666D02*
X87793819Y-139862428D01*
X87793819Y-139862428D02*
X87793819Y-139671952D01*
X87793819Y-139671952D02*
X87746200Y-139576714D01*
X87746200Y-139576714D02*
X87698580Y-139529095D01*
X87698580Y-139529095D02*
X87603342Y-139481476D01*
X87603342Y-139481476D02*
X86793819Y-139481476D01*
X86793819Y-138529095D02*
X86793819Y-139005285D01*
X86793819Y-139005285D02*
X87270009Y-139052904D01*
X87270009Y-139052904D02*
X87222390Y-139005285D01*
X87222390Y-139005285D02*
X87174771Y-138910047D01*
X87174771Y-138910047D02*
X87174771Y-138671952D01*
X87174771Y-138671952D02*
X87222390Y-138576714D01*
X87222390Y-138576714D02*
X87270009Y-138529095D01*
X87270009Y-138529095D02*
X87365247Y-138481476D01*
X87365247Y-138481476D02*
X87603342Y-138481476D01*
X87603342Y-138481476D02*
X87698580Y-138529095D01*
X87698580Y-138529095D02*
X87746200Y-138576714D01*
X87746200Y-138576714D02*
X87793819Y-138671952D01*
X87793819Y-138671952D02*
X87793819Y-138910047D01*
X87793819Y-138910047D02*
X87746200Y-139005285D01*
X87746200Y-139005285D02*
X87698580Y-139052904D01*
X96723819Y-145267857D02*
X96247628Y-145601190D01*
X96723819Y-145839285D02*
X95723819Y-145839285D01*
X95723819Y-145839285D02*
X95723819Y-145458333D01*
X95723819Y-145458333D02*
X95771438Y-145363095D01*
X95771438Y-145363095D02*
X95819057Y-145315476D01*
X95819057Y-145315476D02*
X95914295Y-145267857D01*
X95914295Y-145267857D02*
X96057152Y-145267857D01*
X96057152Y-145267857D02*
X96152390Y-145315476D01*
X96152390Y-145315476D02*
X96200009Y-145363095D01*
X96200009Y-145363095D02*
X96247628Y-145458333D01*
X96247628Y-145458333D02*
X96247628Y-145839285D01*
X95819057Y-144886904D02*
X95771438Y-144839285D01*
X95771438Y-144839285D02*
X95723819Y-144744047D01*
X95723819Y-144744047D02*
X95723819Y-144505952D01*
X95723819Y-144505952D02*
X95771438Y-144410714D01*
X95771438Y-144410714D02*
X95819057Y-144363095D01*
X95819057Y-144363095D02*
X95914295Y-144315476D01*
X95914295Y-144315476D02*
X96009533Y-144315476D01*
X96009533Y-144315476D02*
X96152390Y-144363095D01*
X96152390Y-144363095D02*
X96723819Y-144934523D01*
X96723819Y-144934523D02*
X96723819Y-144315476D01*
X95723819Y-143982142D02*
X95723819Y-143363095D01*
X95723819Y-143363095D02*
X96104771Y-143696428D01*
X96104771Y-143696428D02*
X96104771Y-143553571D01*
X96104771Y-143553571D02*
X96152390Y-143458333D01*
X96152390Y-143458333D02*
X96200009Y-143410714D01*
X96200009Y-143410714D02*
X96295247Y-143363095D01*
X96295247Y-143363095D02*
X96533342Y-143363095D01*
X96533342Y-143363095D02*
X96628580Y-143410714D01*
X96628580Y-143410714D02*
X96676200Y-143458333D01*
X96676200Y-143458333D02*
X96723819Y-143553571D01*
X96723819Y-143553571D02*
X96723819Y-143839285D01*
X96723819Y-143839285D02*
X96676200Y-143934523D01*
X96676200Y-143934523D02*
X96628580Y-143982142D01*
X105692142Y-140347819D02*
X105358809Y-139871628D01*
X105120714Y-140347819D02*
X105120714Y-139347819D01*
X105120714Y-139347819D02*
X105501666Y-139347819D01*
X105501666Y-139347819D02*
X105596904Y-139395438D01*
X105596904Y-139395438D02*
X105644523Y-139443057D01*
X105644523Y-139443057D02*
X105692142Y-139538295D01*
X105692142Y-139538295D02*
X105692142Y-139681152D01*
X105692142Y-139681152D02*
X105644523Y-139776390D01*
X105644523Y-139776390D02*
X105596904Y-139824009D01*
X105596904Y-139824009D02*
X105501666Y-139871628D01*
X105501666Y-139871628D02*
X105120714Y-139871628D01*
X106073095Y-139443057D02*
X106120714Y-139395438D01*
X106120714Y-139395438D02*
X106215952Y-139347819D01*
X106215952Y-139347819D02*
X106454047Y-139347819D01*
X106454047Y-139347819D02*
X106549285Y-139395438D01*
X106549285Y-139395438D02*
X106596904Y-139443057D01*
X106596904Y-139443057D02*
X106644523Y-139538295D01*
X106644523Y-139538295D02*
X106644523Y-139633533D01*
X106644523Y-139633533D02*
X106596904Y-139776390D01*
X106596904Y-139776390D02*
X106025476Y-140347819D01*
X106025476Y-140347819D02*
X106644523Y-140347819D01*
X107215952Y-139776390D02*
X107120714Y-139728771D01*
X107120714Y-139728771D02*
X107073095Y-139681152D01*
X107073095Y-139681152D02*
X107025476Y-139585914D01*
X107025476Y-139585914D02*
X107025476Y-139538295D01*
X107025476Y-139538295D02*
X107073095Y-139443057D01*
X107073095Y-139443057D02*
X107120714Y-139395438D01*
X107120714Y-139395438D02*
X107215952Y-139347819D01*
X107215952Y-139347819D02*
X107406428Y-139347819D01*
X107406428Y-139347819D02*
X107501666Y-139395438D01*
X107501666Y-139395438D02*
X107549285Y-139443057D01*
X107549285Y-139443057D02*
X107596904Y-139538295D01*
X107596904Y-139538295D02*
X107596904Y-139585914D01*
X107596904Y-139585914D02*
X107549285Y-139681152D01*
X107549285Y-139681152D02*
X107501666Y-139728771D01*
X107501666Y-139728771D02*
X107406428Y-139776390D01*
X107406428Y-139776390D02*
X107215952Y-139776390D01*
X107215952Y-139776390D02*
X107120714Y-139824009D01*
X107120714Y-139824009D02*
X107073095Y-139871628D01*
X107073095Y-139871628D02*
X107025476Y-139966866D01*
X107025476Y-139966866D02*
X107025476Y-140157342D01*
X107025476Y-140157342D02*
X107073095Y-140252580D01*
X107073095Y-140252580D02*
X107120714Y-140300200D01*
X107120714Y-140300200D02*
X107215952Y-140347819D01*
X107215952Y-140347819D02*
X107406428Y-140347819D01*
X107406428Y-140347819D02*
X107501666Y-140300200D01*
X107501666Y-140300200D02*
X107549285Y-140252580D01*
X107549285Y-140252580D02*
X107596904Y-140157342D01*
X107596904Y-140157342D02*
X107596904Y-139966866D01*
X107596904Y-139966866D02*
X107549285Y-139871628D01*
X107549285Y-139871628D02*
X107501666Y-139824009D01*
X107501666Y-139824009D02*
X107406428Y-139776390D01*
X124751819Y-145363094D02*
X123751819Y-145363094D01*
X123751819Y-145363094D02*
X123751819Y-145124999D01*
X123751819Y-145124999D02*
X123799438Y-144982142D01*
X123799438Y-144982142D02*
X123894676Y-144886904D01*
X123894676Y-144886904D02*
X123989914Y-144839285D01*
X123989914Y-144839285D02*
X124180390Y-144791666D01*
X124180390Y-144791666D02*
X124323247Y-144791666D01*
X124323247Y-144791666D02*
X124513723Y-144839285D01*
X124513723Y-144839285D02*
X124608961Y-144886904D01*
X124608961Y-144886904D02*
X124704200Y-144982142D01*
X124704200Y-144982142D02*
X124751819Y-145124999D01*
X124751819Y-145124999D02*
X124751819Y-145363094D01*
X123751819Y-144458332D02*
X123751819Y-143839285D01*
X123751819Y-143839285D02*
X124132771Y-144172618D01*
X124132771Y-144172618D02*
X124132771Y-144029761D01*
X124132771Y-144029761D02*
X124180390Y-143934523D01*
X124180390Y-143934523D02*
X124228009Y-143886904D01*
X124228009Y-143886904D02*
X124323247Y-143839285D01*
X124323247Y-143839285D02*
X124561342Y-143839285D01*
X124561342Y-143839285D02*
X124656580Y-143886904D01*
X124656580Y-143886904D02*
X124704200Y-143934523D01*
X124704200Y-143934523D02*
X124751819Y-144029761D01*
X124751819Y-144029761D02*
X124751819Y-144315475D01*
X124751819Y-144315475D02*
X124704200Y-144410713D01*
X124704200Y-144410713D02*
X124656580Y-144458332D01*
X122846819Y-141680094D02*
X121846819Y-141680094D01*
X121846819Y-141680094D02*
X121846819Y-141441999D01*
X121846819Y-141441999D02*
X121894438Y-141299142D01*
X121894438Y-141299142D02*
X121989676Y-141203904D01*
X121989676Y-141203904D02*
X122084914Y-141156285D01*
X122084914Y-141156285D02*
X122275390Y-141108666D01*
X122275390Y-141108666D02*
X122418247Y-141108666D01*
X122418247Y-141108666D02*
X122608723Y-141156285D01*
X122608723Y-141156285D02*
X122703961Y-141203904D01*
X122703961Y-141203904D02*
X122799200Y-141299142D01*
X122799200Y-141299142D02*
X122846819Y-141441999D01*
X122846819Y-141441999D02*
X122846819Y-141680094D01*
X121846819Y-140203904D02*
X121846819Y-140680094D01*
X121846819Y-140680094D02*
X122323009Y-140727713D01*
X122323009Y-140727713D02*
X122275390Y-140680094D01*
X122275390Y-140680094D02*
X122227771Y-140584856D01*
X122227771Y-140584856D02*
X122227771Y-140346761D01*
X122227771Y-140346761D02*
X122275390Y-140251523D01*
X122275390Y-140251523D02*
X122323009Y-140203904D01*
X122323009Y-140203904D02*
X122418247Y-140156285D01*
X122418247Y-140156285D02*
X122656342Y-140156285D01*
X122656342Y-140156285D02*
X122751580Y-140203904D01*
X122751580Y-140203904D02*
X122799200Y-140251523D01*
X122799200Y-140251523D02*
X122846819Y-140346761D01*
X122846819Y-140346761D02*
X122846819Y-140584856D01*
X122846819Y-140584856D02*
X122799200Y-140680094D01*
X122799200Y-140680094D02*
X122751580Y-140727713D01*
X102028580Y-145267857D02*
X102076200Y-145315476D01*
X102076200Y-145315476D02*
X102123819Y-145458333D01*
X102123819Y-145458333D02*
X102123819Y-145553571D01*
X102123819Y-145553571D02*
X102076200Y-145696428D01*
X102076200Y-145696428D02*
X101980961Y-145791666D01*
X101980961Y-145791666D02*
X101885723Y-145839285D01*
X101885723Y-145839285D02*
X101695247Y-145886904D01*
X101695247Y-145886904D02*
X101552390Y-145886904D01*
X101552390Y-145886904D02*
X101361914Y-145839285D01*
X101361914Y-145839285D02*
X101266676Y-145791666D01*
X101266676Y-145791666D02*
X101171438Y-145696428D01*
X101171438Y-145696428D02*
X101123819Y-145553571D01*
X101123819Y-145553571D02*
X101123819Y-145458333D01*
X101123819Y-145458333D02*
X101171438Y-145315476D01*
X101171438Y-145315476D02*
X101219057Y-145267857D01*
X101123819Y-144934523D02*
X101123819Y-144315476D01*
X101123819Y-144315476D02*
X101504771Y-144648809D01*
X101504771Y-144648809D02*
X101504771Y-144505952D01*
X101504771Y-144505952D02*
X101552390Y-144410714D01*
X101552390Y-144410714D02*
X101600009Y-144363095D01*
X101600009Y-144363095D02*
X101695247Y-144315476D01*
X101695247Y-144315476D02*
X101933342Y-144315476D01*
X101933342Y-144315476D02*
X102028580Y-144363095D01*
X102028580Y-144363095D02*
X102076200Y-144410714D01*
X102076200Y-144410714D02*
X102123819Y-144505952D01*
X102123819Y-144505952D02*
X102123819Y-144791666D01*
X102123819Y-144791666D02*
X102076200Y-144886904D01*
X102076200Y-144886904D02*
X102028580Y-144934523D01*
X101123819Y-143458333D02*
X101123819Y-143648809D01*
X101123819Y-143648809D02*
X101171438Y-143744047D01*
X101171438Y-143744047D02*
X101219057Y-143791666D01*
X101219057Y-143791666D02*
X101361914Y-143886904D01*
X101361914Y-143886904D02*
X101552390Y-143934523D01*
X101552390Y-143934523D02*
X101933342Y-143934523D01*
X101933342Y-143934523D02*
X102028580Y-143886904D01*
X102028580Y-143886904D02*
X102076200Y-143839285D01*
X102076200Y-143839285D02*
X102123819Y-143744047D01*
X102123819Y-143744047D02*
X102123819Y-143553571D01*
X102123819Y-143553571D02*
X102076200Y-143458333D01*
X102076200Y-143458333D02*
X102028580Y-143410714D01*
X102028580Y-143410714D02*
X101933342Y-143363095D01*
X101933342Y-143363095D02*
X101695247Y-143363095D01*
X101695247Y-143363095D02*
X101600009Y-143410714D01*
X101600009Y-143410714D02*
X101552390Y-143458333D01*
X101552390Y-143458333D02*
X101504771Y-143553571D01*
X101504771Y-143553571D02*
X101504771Y-143744047D01*
X101504771Y-143744047D02*
X101552390Y-143839285D01*
X101552390Y-143839285D02*
X101600009Y-143886904D01*
X101600009Y-143886904D02*
X101695247Y-143934523D01*
X133492819Y-144791666D02*
X133016628Y-145124999D01*
X133492819Y-145363094D02*
X132492819Y-145363094D01*
X132492819Y-145363094D02*
X132492819Y-144982142D01*
X132492819Y-144982142D02*
X132540438Y-144886904D01*
X132540438Y-144886904D02*
X132588057Y-144839285D01*
X132588057Y-144839285D02*
X132683295Y-144791666D01*
X132683295Y-144791666D02*
X132826152Y-144791666D01*
X132826152Y-144791666D02*
X132921390Y-144839285D01*
X132921390Y-144839285D02*
X132969009Y-144886904D01*
X132969009Y-144886904D02*
X133016628Y-144982142D01*
X133016628Y-144982142D02*
X133016628Y-145363094D01*
X132492819Y-144458332D02*
X132492819Y-143791666D01*
X132492819Y-143791666D02*
X133492819Y-144220237D01*
X110936057Y-130750238D02*
X110888438Y-130845476D01*
X110888438Y-130845476D02*
X110793200Y-130940714D01*
X110793200Y-130940714D02*
X110650342Y-131083571D01*
X110650342Y-131083571D02*
X110602723Y-131178809D01*
X110602723Y-131178809D02*
X110602723Y-131274047D01*
X110840819Y-131226428D02*
X110793200Y-131321666D01*
X110793200Y-131321666D02*
X110697961Y-131416904D01*
X110697961Y-131416904D02*
X110507485Y-131464523D01*
X110507485Y-131464523D02*
X110174152Y-131464523D01*
X110174152Y-131464523D02*
X109983676Y-131416904D01*
X109983676Y-131416904D02*
X109888438Y-131321666D01*
X109888438Y-131321666D02*
X109840819Y-131226428D01*
X109840819Y-131226428D02*
X109840819Y-131035952D01*
X109840819Y-131035952D02*
X109888438Y-130940714D01*
X109888438Y-130940714D02*
X109983676Y-130845476D01*
X109983676Y-130845476D02*
X110174152Y-130797857D01*
X110174152Y-130797857D02*
X110507485Y-130797857D01*
X110507485Y-130797857D02*
X110697961Y-130845476D01*
X110697961Y-130845476D02*
X110793200Y-130940714D01*
X110793200Y-130940714D02*
X110840819Y-131035952D01*
X110840819Y-131035952D02*
X110840819Y-131226428D01*
X109936057Y-130416904D02*
X109888438Y-130369285D01*
X109888438Y-130369285D02*
X109840819Y-130274047D01*
X109840819Y-130274047D02*
X109840819Y-130035952D01*
X109840819Y-130035952D02*
X109888438Y-129940714D01*
X109888438Y-129940714D02*
X109936057Y-129893095D01*
X109936057Y-129893095D02*
X110031295Y-129845476D01*
X110031295Y-129845476D02*
X110126533Y-129845476D01*
X110126533Y-129845476D02*
X110269390Y-129893095D01*
X110269390Y-129893095D02*
X110840819Y-130464523D01*
X110840819Y-130464523D02*
X110840819Y-129845476D01*
X122682009Y-141775333D02*
X122682009Y-142108666D01*
X123205819Y-142108666D02*
X122205819Y-142108666D01*
X122205819Y-142108666D02*
X122205819Y-141632476D01*
X122682009Y-140918190D02*
X122729628Y-140775333D01*
X122729628Y-140775333D02*
X122777247Y-140727714D01*
X122777247Y-140727714D02*
X122872485Y-140680095D01*
X122872485Y-140680095D02*
X123015342Y-140680095D01*
X123015342Y-140680095D02*
X123110580Y-140727714D01*
X123110580Y-140727714D02*
X123158200Y-140775333D01*
X123158200Y-140775333D02*
X123205819Y-140870571D01*
X123205819Y-140870571D02*
X123205819Y-141251523D01*
X123205819Y-141251523D02*
X122205819Y-141251523D01*
X122205819Y-141251523D02*
X122205819Y-140918190D01*
X122205819Y-140918190D02*
X122253438Y-140822952D01*
X122253438Y-140822952D02*
X122301057Y-140775333D01*
X122301057Y-140775333D02*
X122396295Y-140727714D01*
X122396295Y-140727714D02*
X122491533Y-140727714D01*
X122491533Y-140727714D02*
X122586771Y-140775333D01*
X122586771Y-140775333D02*
X122634390Y-140822952D01*
X122634390Y-140822952D02*
X122682009Y-140918190D01*
X122682009Y-140918190D02*
X122682009Y-141251523D01*
X122205819Y-140346761D02*
X122205819Y-139727714D01*
X122205819Y-139727714D02*
X122586771Y-140061047D01*
X122586771Y-140061047D02*
X122586771Y-139918190D01*
X122586771Y-139918190D02*
X122634390Y-139822952D01*
X122634390Y-139822952D02*
X122682009Y-139775333D01*
X122682009Y-139775333D02*
X122777247Y-139727714D01*
X122777247Y-139727714D02*
X123015342Y-139727714D01*
X123015342Y-139727714D02*
X123110580Y-139775333D01*
X123110580Y-139775333D02*
X123158200Y-139822952D01*
X123158200Y-139822952D02*
X123205819Y-139918190D01*
X123205819Y-139918190D02*
X123205819Y-140203904D01*
X123205819Y-140203904D02*
X123158200Y-140299142D01*
X123158200Y-140299142D02*
X123110580Y-140346761D01*
X96948580Y-134599857D02*
X96996200Y-134647476D01*
X96996200Y-134647476D02*
X97043819Y-134790333D01*
X97043819Y-134790333D02*
X97043819Y-134885571D01*
X97043819Y-134885571D02*
X96996200Y-135028428D01*
X96996200Y-135028428D02*
X96900961Y-135123666D01*
X96900961Y-135123666D02*
X96805723Y-135171285D01*
X96805723Y-135171285D02*
X96615247Y-135218904D01*
X96615247Y-135218904D02*
X96472390Y-135218904D01*
X96472390Y-135218904D02*
X96281914Y-135171285D01*
X96281914Y-135171285D02*
X96186676Y-135123666D01*
X96186676Y-135123666D02*
X96091438Y-135028428D01*
X96091438Y-135028428D02*
X96043819Y-134885571D01*
X96043819Y-134885571D02*
X96043819Y-134790333D01*
X96043819Y-134790333D02*
X96091438Y-134647476D01*
X96091438Y-134647476D02*
X96139057Y-134599857D01*
X96139057Y-134218904D02*
X96091438Y-134171285D01*
X96091438Y-134171285D02*
X96043819Y-134076047D01*
X96043819Y-134076047D02*
X96043819Y-133837952D01*
X96043819Y-133837952D02*
X96091438Y-133742714D01*
X96091438Y-133742714D02*
X96139057Y-133695095D01*
X96139057Y-133695095D02*
X96234295Y-133647476D01*
X96234295Y-133647476D02*
X96329533Y-133647476D01*
X96329533Y-133647476D02*
X96472390Y-133695095D01*
X96472390Y-133695095D02*
X97043819Y-134266523D01*
X97043819Y-134266523D02*
X97043819Y-133647476D01*
X97043819Y-133171285D02*
X97043819Y-132980809D01*
X97043819Y-132980809D02*
X96996200Y-132885571D01*
X96996200Y-132885571D02*
X96948580Y-132837952D01*
X96948580Y-132837952D02*
X96805723Y-132742714D01*
X96805723Y-132742714D02*
X96615247Y-132695095D01*
X96615247Y-132695095D02*
X96234295Y-132695095D01*
X96234295Y-132695095D02*
X96139057Y-132742714D01*
X96139057Y-132742714D02*
X96091438Y-132790333D01*
X96091438Y-132790333D02*
X96043819Y-132885571D01*
X96043819Y-132885571D02*
X96043819Y-133076047D01*
X96043819Y-133076047D02*
X96091438Y-133171285D01*
X96091438Y-133171285D02*
X96139057Y-133218904D01*
X96139057Y-133218904D02*
X96234295Y-133266523D01*
X96234295Y-133266523D02*
X96472390Y-133266523D01*
X96472390Y-133266523D02*
X96567628Y-133218904D01*
X96567628Y-133218904D02*
X96615247Y-133171285D01*
X96615247Y-133171285D02*
X96662866Y-133076047D01*
X96662866Y-133076047D02*
X96662866Y-132885571D01*
X96662866Y-132885571D02*
X96615247Y-132790333D01*
X96615247Y-132790333D02*
X96567628Y-132742714D01*
X96567628Y-132742714D02*
X96472390Y-132695095D01*
X105692142Y-136537819D02*
X105358809Y-136061628D01*
X105120714Y-136537819D02*
X105120714Y-135537819D01*
X105120714Y-135537819D02*
X105501666Y-135537819D01*
X105501666Y-135537819D02*
X105596904Y-135585438D01*
X105596904Y-135585438D02*
X105644523Y-135633057D01*
X105644523Y-135633057D02*
X105692142Y-135728295D01*
X105692142Y-135728295D02*
X105692142Y-135871152D01*
X105692142Y-135871152D02*
X105644523Y-135966390D01*
X105644523Y-135966390D02*
X105596904Y-136014009D01*
X105596904Y-136014009D02*
X105501666Y-136061628D01*
X105501666Y-136061628D02*
X105120714Y-136061628D01*
X106073095Y-135633057D02*
X106120714Y-135585438D01*
X106120714Y-135585438D02*
X106215952Y-135537819D01*
X106215952Y-135537819D02*
X106454047Y-135537819D01*
X106454047Y-135537819D02*
X106549285Y-135585438D01*
X106549285Y-135585438D02*
X106596904Y-135633057D01*
X106596904Y-135633057D02*
X106644523Y-135728295D01*
X106644523Y-135728295D02*
X106644523Y-135823533D01*
X106644523Y-135823533D02*
X106596904Y-135966390D01*
X106596904Y-135966390D02*
X106025476Y-136537819D01*
X106025476Y-136537819D02*
X106644523Y-136537819D01*
X106977857Y-135537819D02*
X107644523Y-135537819D01*
X107644523Y-135537819D02*
X107215952Y-136537819D01*
X119630333Y-133394580D02*
X119582714Y-133442200D01*
X119582714Y-133442200D02*
X119439857Y-133489819D01*
X119439857Y-133489819D02*
X119344619Y-133489819D01*
X119344619Y-133489819D02*
X119201762Y-133442200D01*
X119201762Y-133442200D02*
X119106524Y-133346961D01*
X119106524Y-133346961D02*
X119058905Y-133251723D01*
X119058905Y-133251723D02*
X119011286Y-133061247D01*
X119011286Y-133061247D02*
X119011286Y-132918390D01*
X119011286Y-132918390D02*
X119058905Y-132727914D01*
X119058905Y-132727914D02*
X119106524Y-132632676D01*
X119106524Y-132632676D02*
X119201762Y-132537438D01*
X119201762Y-132537438D02*
X119344619Y-132489819D01*
X119344619Y-132489819D02*
X119439857Y-132489819D01*
X119439857Y-132489819D02*
X119582714Y-132537438D01*
X119582714Y-132537438D02*
X119630333Y-132585057D01*
X119963667Y-132489819D02*
X120582714Y-132489819D01*
X120582714Y-132489819D02*
X120249381Y-132870771D01*
X120249381Y-132870771D02*
X120392238Y-132870771D01*
X120392238Y-132870771D02*
X120487476Y-132918390D01*
X120487476Y-132918390D02*
X120535095Y-132966009D01*
X120535095Y-132966009D02*
X120582714Y-133061247D01*
X120582714Y-133061247D02*
X120582714Y-133299342D01*
X120582714Y-133299342D02*
X120535095Y-133394580D01*
X120535095Y-133394580D02*
X120487476Y-133442200D01*
X120487476Y-133442200D02*
X120392238Y-133489819D01*
X120392238Y-133489819D02*
X120106524Y-133489819D01*
X120106524Y-133489819D02*
X120011286Y-133442200D01*
X120011286Y-133442200D02*
X119963667Y-133394580D01*
X96928819Y-140052904D02*
X97738342Y-140052904D01*
X97738342Y-140052904D02*
X97833580Y-140005285D01*
X97833580Y-140005285D02*
X97881200Y-139957666D01*
X97881200Y-139957666D02*
X97928819Y-139862428D01*
X97928819Y-139862428D02*
X97928819Y-139671952D01*
X97928819Y-139671952D02*
X97881200Y-139576714D01*
X97881200Y-139576714D02*
X97833580Y-139529095D01*
X97833580Y-139529095D02*
X97738342Y-139481476D01*
X97738342Y-139481476D02*
X96928819Y-139481476D01*
X96928819Y-138576714D02*
X96928819Y-138767190D01*
X96928819Y-138767190D02*
X96976438Y-138862428D01*
X96976438Y-138862428D02*
X97024057Y-138910047D01*
X97024057Y-138910047D02*
X97166914Y-139005285D01*
X97166914Y-139005285D02*
X97357390Y-139052904D01*
X97357390Y-139052904D02*
X97738342Y-139052904D01*
X97738342Y-139052904D02*
X97833580Y-139005285D01*
X97833580Y-139005285D02*
X97881200Y-138957666D01*
X97881200Y-138957666D02*
X97928819Y-138862428D01*
X97928819Y-138862428D02*
X97928819Y-138671952D01*
X97928819Y-138671952D02*
X97881200Y-138576714D01*
X97881200Y-138576714D02*
X97833580Y-138529095D01*
X97833580Y-138529095D02*
X97738342Y-138481476D01*
X97738342Y-138481476D02*
X97500247Y-138481476D01*
X97500247Y-138481476D02*
X97405009Y-138529095D01*
X97405009Y-138529095D02*
X97357390Y-138576714D01*
X97357390Y-138576714D02*
X97309771Y-138671952D01*
X97309771Y-138671952D02*
X97309771Y-138862428D01*
X97309771Y-138862428D02*
X97357390Y-138957666D01*
X97357390Y-138957666D02*
X97405009Y-139005285D01*
X97405009Y-139005285D02*
X97500247Y-139052904D01*
X112903009Y-145458333D02*
X112903009Y-145791666D01*
X113426819Y-145791666D02*
X112426819Y-145791666D01*
X112426819Y-145791666D02*
X112426819Y-145315476D01*
X112903009Y-144601190D02*
X112950628Y-144458333D01*
X112950628Y-144458333D02*
X112998247Y-144410714D01*
X112998247Y-144410714D02*
X113093485Y-144363095D01*
X113093485Y-144363095D02*
X113236342Y-144363095D01*
X113236342Y-144363095D02*
X113331580Y-144410714D01*
X113331580Y-144410714D02*
X113379200Y-144458333D01*
X113379200Y-144458333D02*
X113426819Y-144553571D01*
X113426819Y-144553571D02*
X113426819Y-144934523D01*
X113426819Y-144934523D02*
X112426819Y-144934523D01*
X112426819Y-144934523D02*
X112426819Y-144601190D01*
X112426819Y-144601190D02*
X112474438Y-144505952D01*
X112474438Y-144505952D02*
X112522057Y-144458333D01*
X112522057Y-144458333D02*
X112617295Y-144410714D01*
X112617295Y-144410714D02*
X112712533Y-144410714D01*
X112712533Y-144410714D02*
X112807771Y-144458333D01*
X112807771Y-144458333D02*
X112855390Y-144505952D01*
X112855390Y-144505952D02*
X112903009Y-144601190D01*
X112903009Y-144601190D02*
X112903009Y-144934523D01*
X113426819Y-143410714D02*
X113426819Y-143982142D01*
X113426819Y-143696428D02*
X112426819Y-143696428D01*
X112426819Y-143696428D02*
X112569676Y-143791666D01*
X112569676Y-143791666D02*
X112664914Y-143886904D01*
X112664914Y-143886904D02*
X112712533Y-143982142D01*
X101038095Y-93954819D02*
X101609523Y-93954819D01*
X101323809Y-94954819D02*
X101323809Y-93954819D01*
X101942857Y-94954819D02*
X101942857Y-93954819D01*
X101942857Y-93954819D02*
X102323809Y-93954819D01*
X102323809Y-93954819D02*
X102419047Y-94002438D01*
X102419047Y-94002438D02*
X102466666Y-94050057D01*
X102466666Y-94050057D02*
X102514285Y-94145295D01*
X102514285Y-94145295D02*
X102514285Y-94288152D01*
X102514285Y-94288152D02*
X102466666Y-94383390D01*
X102466666Y-94383390D02*
X102419047Y-94431009D01*
X102419047Y-94431009D02*
X102323809Y-94478628D01*
X102323809Y-94478628D02*
X101942857Y-94478628D01*
X103466666Y-94954819D02*
X102895238Y-94954819D01*
X103180952Y-94954819D02*
X103180952Y-93954819D01*
X103180952Y-93954819D02*
X103085714Y-94097676D01*
X103085714Y-94097676D02*
X102990476Y-94192914D01*
X102990476Y-94192914D02*
X102895238Y-94240533D01*
X64038095Y-113954819D02*
X64609523Y-113954819D01*
X64323809Y-114954819D02*
X64323809Y-113954819D01*
X64942857Y-114954819D02*
X64942857Y-113954819D01*
X64942857Y-113954819D02*
X65323809Y-113954819D01*
X65323809Y-113954819D02*
X65419047Y-114002438D01*
X65419047Y-114002438D02*
X65466666Y-114050057D01*
X65466666Y-114050057D02*
X65514285Y-114145295D01*
X65514285Y-114145295D02*
X65514285Y-114288152D01*
X65514285Y-114288152D02*
X65466666Y-114383390D01*
X65466666Y-114383390D02*
X65419047Y-114431009D01*
X65419047Y-114431009D02*
X65323809Y-114478628D01*
X65323809Y-114478628D02*
X64942857Y-114478628D01*
X66419047Y-113954819D02*
X65942857Y-113954819D01*
X65942857Y-113954819D02*
X65895238Y-114431009D01*
X65895238Y-114431009D02*
X65942857Y-114383390D01*
X65942857Y-114383390D02*
X66038095Y-114335771D01*
X66038095Y-114335771D02*
X66276190Y-114335771D01*
X66276190Y-114335771D02*
X66371428Y-114383390D01*
X66371428Y-114383390D02*
X66419047Y-114431009D01*
X66419047Y-114431009D02*
X66466666Y-114526247D01*
X66466666Y-114526247D02*
X66466666Y-114764342D01*
X66466666Y-114764342D02*
X66419047Y-114859580D01*
X66419047Y-114859580D02*
X66371428Y-114907200D01*
X66371428Y-114907200D02*
X66276190Y-114954819D01*
X66276190Y-114954819D02*
X66038095Y-114954819D01*
X66038095Y-114954819D02*
X65942857Y-114907200D01*
X65942857Y-114907200D02*
X65895238Y-114859580D01*
X83244905Y-133848819D02*
X83244905Y-132848819D01*
X83244905Y-132848819D02*
X83483000Y-132848819D01*
X83483000Y-132848819D02*
X83625857Y-132896438D01*
X83625857Y-132896438D02*
X83721095Y-132991676D01*
X83721095Y-132991676D02*
X83768714Y-133086914D01*
X83768714Y-133086914D02*
X83816333Y-133277390D01*
X83816333Y-133277390D02*
X83816333Y-133420247D01*
X83816333Y-133420247D02*
X83768714Y-133610723D01*
X83768714Y-133610723D02*
X83721095Y-133705961D01*
X83721095Y-133705961D02*
X83625857Y-133801200D01*
X83625857Y-133801200D02*
X83483000Y-133848819D01*
X83483000Y-133848819D02*
X83244905Y-133848819D01*
X84673476Y-132848819D02*
X84483000Y-132848819D01*
X84483000Y-132848819D02*
X84387762Y-132896438D01*
X84387762Y-132896438D02*
X84340143Y-132944057D01*
X84340143Y-132944057D02*
X84244905Y-133086914D01*
X84244905Y-133086914D02*
X84197286Y-133277390D01*
X84197286Y-133277390D02*
X84197286Y-133658342D01*
X84197286Y-133658342D02*
X84244905Y-133753580D01*
X84244905Y-133753580D02*
X84292524Y-133801200D01*
X84292524Y-133801200D02*
X84387762Y-133848819D01*
X84387762Y-133848819D02*
X84578238Y-133848819D01*
X84578238Y-133848819D02*
X84673476Y-133801200D01*
X84673476Y-133801200D02*
X84721095Y-133753580D01*
X84721095Y-133753580D02*
X84768714Y-133658342D01*
X84768714Y-133658342D02*
X84768714Y-133420247D01*
X84768714Y-133420247D02*
X84721095Y-133325009D01*
X84721095Y-133325009D02*
X84673476Y-133277390D01*
X84673476Y-133277390D02*
X84578238Y-133229771D01*
X84578238Y-133229771D02*
X84387762Y-133229771D01*
X84387762Y-133229771D02*
X84292524Y-133277390D01*
X84292524Y-133277390D02*
X84244905Y-133325009D01*
X84244905Y-133325009D02*
X84197286Y-133420247D01*
X49893761Y-130672557D02*
X49798523Y-130624938D01*
X49798523Y-130624938D02*
X49703285Y-130529700D01*
X49703285Y-130529700D02*
X49560428Y-130386842D01*
X49560428Y-130386842D02*
X49465190Y-130339223D01*
X49465190Y-130339223D02*
X49369952Y-130339223D01*
X49417571Y-130577319D02*
X49322333Y-130529700D01*
X49322333Y-130529700D02*
X49227095Y-130434461D01*
X49227095Y-130434461D02*
X49179476Y-130243985D01*
X49179476Y-130243985D02*
X49179476Y-129910652D01*
X49179476Y-129910652D02*
X49227095Y-129720176D01*
X49227095Y-129720176D02*
X49322333Y-129624938D01*
X49322333Y-129624938D02*
X49417571Y-129577319D01*
X49417571Y-129577319D02*
X49608047Y-129577319D01*
X49608047Y-129577319D02*
X49703285Y-129624938D01*
X49703285Y-129624938D02*
X49798523Y-129720176D01*
X49798523Y-129720176D02*
X49846142Y-129910652D01*
X49846142Y-129910652D02*
X49846142Y-130243985D01*
X49846142Y-130243985D02*
X49798523Y-130434461D01*
X49798523Y-130434461D02*
X49703285Y-130529700D01*
X49703285Y-130529700D02*
X49608047Y-130577319D01*
X49608047Y-130577319D02*
X49417571Y-130577319D01*
X50798523Y-130577319D02*
X50227095Y-130577319D01*
X50512809Y-130577319D02*
X50512809Y-129577319D01*
X50512809Y-129577319D02*
X50417571Y-129720176D01*
X50417571Y-129720176D02*
X50322333Y-129815414D01*
X50322333Y-129815414D02*
X50227095Y-129863033D01*
X119808580Y-145267857D02*
X119856200Y-145315476D01*
X119856200Y-145315476D02*
X119903819Y-145458333D01*
X119903819Y-145458333D02*
X119903819Y-145553571D01*
X119903819Y-145553571D02*
X119856200Y-145696428D01*
X119856200Y-145696428D02*
X119760961Y-145791666D01*
X119760961Y-145791666D02*
X119665723Y-145839285D01*
X119665723Y-145839285D02*
X119475247Y-145886904D01*
X119475247Y-145886904D02*
X119332390Y-145886904D01*
X119332390Y-145886904D02*
X119141914Y-145839285D01*
X119141914Y-145839285D02*
X119046676Y-145791666D01*
X119046676Y-145791666D02*
X118951438Y-145696428D01*
X118951438Y-145696428D02*
X118903819Y-145553571D01*
X118903819Y-145553571D02*
X118903819Y-145458333D01*
X118903819Y-145458333D02*
X118951438Y-145315476D01*
X118951438Y-145315476D02*
X118999057Y-145267857D01*
X118903819Y-144934523D02*
X118903819Y-144315476D01*
X118903819Y-144315476D02*
X119284771Y-144648809D01*
X119284771Y-144648809D02*
X119284771Y-144505952D01*
X119284771Y-144505952D02*
X119332390Y-144410714D01*
X119332390Y-144410714D02*
X119380009Y-144363095D01*
X119380009Y-144363095D02*
X119475247Y-144315476D01*
X119475247Y-144315476D02*
X119713342Y-144315476D01*
X119713342Y-144315476D02*
X119808580Y-144363095D01*
X119808580Y-144363095D02*
X119856200Y-144410714D01*
X119856200Y-144410714D02*
X119903819Y-144505952D01*
X119903819Y-144505952D02*
X119903819Y-144791666D01*
X119903819Y-144791666D02*
X119856200Y-144886904D01*
X119856200Y-144886904D02*
X119808580Y-144934523D01*
X119903819Y-143839285D02*
X119903819Y-143648809D01*
X119903819Y-143648809D02*
X119856200Y-143553571D01*
X119856200Y-143553571D02*
X119808580Y-143505952D01*
X119808580Y-143505952D02*
X119665723Y-143410714D01*
X119665723Y-143410714D02*
X119475247Y-143363095D01*
X119475247Y-143363095D02*
X119094295Y-143363095D01*
X119094295Y-143363095D02*
X118999057Y-143410714D01*
X118999057Y-143410714D02*
X118951438Y-143458333D01*
X118951438Y-143458333D02*
X118903819Y-143553571D01*
X118903819Y-143553571D02*
X118903819Y-143744047D01*
X118903819Y-143744047D02*
X118951438Y-143839285D01*
X118951438Y-143839285D02*
X118999057Y-143886904D01*
X118999057Y-143886904D02*
X119094295Y-143934523D01*
X119094295Y-143934523D02*
X119332390Y-143934523D01*
X119332390Y-143934523D02*
X119427628Y-143886904D01*
X119427628Y-143886904D02*
X119475247Y-143839285D01*
X119475247Y-143839285D02*
X119522866Y-143744047D01*
X119522866Y-143744047D02*
X119522866Y-143553571D01*
X119522866Y-143553571D02*
X119475247Y-143458333D01*
X119475247Y-143458333D02*
X119427628Y-143410714D01*
X119427628Y-143410714D02*
X119332390Y-143363095D01*
X106981580Y-145267857D02*
X107029200Y-145315476D01*
X107029200Y-145315476D02*
X107076819Y-145458333D01*
X107076819Y-145458333D02*
X107076819Y-145553571D01*
X107076819Y-145553571D02*
X107029200Y-145696428D01*
X107029200Y-145696428D02*
X106933961Y-145791666D01*
X106933961Y-145791666D02*
X106838723Y-145839285D01*
X106838723Y-145839285D02*
X106648247Y-145886904D01*
X106648247Y-145886904D02*
X106505390Y-145886904D01*
X106505390Y-145886904D02*
X106314914Y-145839285D01*
X106314914Y-145839285D02*
X106219676Y-145791666D01*
X106219676Y-145791666D02*
X106124438Y-145696428D01*
X106124438Y-145696428D02*
X106076819Y-145553571D01*
X106076819Y-145553571D02*
X106076819Y-145458333D01*
X106076819Y-145458333D02*
X106124438Y-145315476D01*
X106124438Y-145315476D02*
X106172057Y-145267857D01*
X106076819Y-144934523D02*
X106076819Y-144315476D01*
X106076819Y-144315476D02*
X106457771Y-144648809D01*
X106457771Y-144648809D02*
X106457771Y-144505952D01*
X106457771Y-144505952D02*
X106505390Y-144410714D01*
X106505390Y-144410714D02*
X106553009Y-144363095D01*
X106553009Y-144363095D02*
X106648247Y-144315476D01*
X106648247Y-144315476D02*
X106886342Y-144315476D01*
X106886342Y-144315476D02*
X106981580Y-144363095D01*
X106981580Y-144363095D02*
X107029200Y-144410714D01*
X107029200Y-144410714D02*
X107076819Y-144505952D01*
X107076819Y-144505952D02*
X107076819Y-144791666D01*
X107076819Y-144791666D02*
X107029200Y-144886904D01*
X107029200Y-144886904D02*
X106981580Y-144934523D01*
X106076819Y-143982142D02*
X106076819Y-143315476D01*
X106076819Y-143315476D02*
X107076819Y-143744047D01*
X130052819Y-141108666D02*
X130052819Y-141584856D01*
X130052819Y-141584856D02*
X129052819Y-141584856D01*
X130052819Y-140251523D02*
X130052819Y-140822951D01*
X130052819Y-140537237D02*
X129052819Y-140537237D01*
X129052819Y-140537237D02*
X129195676Y-140632475D01*
X129195676Y-140632475D02*
X129290914Y-140727713D01*
X129290914Y-140727713D02*
X129338533Y-140822951D01*
X127900819Y-141703904D02*
X128710342Y-141703904D01*
X128710342Y-141703904D02*
X128805580Y-141656285D01*
X128805580Y-141656285D02*
X128853200Y-141608666D01*
X128853200Y-141608666D02*
X128900819Y-141513428D01*
X128900819Y-141513428D02*
X128900819Y-141322952D01*
X128900819Y-141322952D02*
X128853200Y-141227714D01*
X128853200Y-141227714D02*
X128805580Y-141180095D01*
X128805580Y-141180095D02*
X128710342Y-141132476D01*
X128710342Y-141132476D02*
X127900819Y-141132476D01*
X128234152Y-140227714D02*
X128900819Y-140227714D01*
X127853200Y-140465809D02*
X128567485Y-140703904D01*
X128567485Y-140703904D02*
X128567485Y-140084857D01*
X90598580Y-134599857D02*
X90646200Y-134647476D01*
X90646200Y-134647476D02*
X90693819Y-134790333D01*
X90693819Y-134790333D02*
X90693819Y-134885571D01*
X90693819Y-134885571D02*
X90646200Y-135028428D01*
X90646200Y-135028428D02*
X90550961Y-135123666D01*
X90550961Y-135123666D02*
X90455723Y-135171285D01*
X90455723Y-135171285D02*
X90265247Y-135218904D01*
X90265247Y-135218904D02*
X90122390Y-135218904D01*
X90122390Y-135218904D02*
X89931914Y-135171285D01*
X89931914Y-135171285D02*
X89836676Y-135123666D01*
X89836676Y-135123666D02*
X89741438Y-135028428D01*
X89741438Y-135028428D02*
X89693819Y-134885571D01*
X89693819Y-134885571D02*
X89693819Y-134790333D01*
X89693819Y-134790333D02*
X89741438Y-134647476D01*
X89741438Y-134647476D02*
X89789057Y-134599857D01*
X89789057Y-134218904D02*
X89741438Y-134171285D01*
X89741438Y-134171285D02*
X89693819Y-134076047D01*
X89693819Y-134076047D02*
X89693819Y-133837952D01*
X89693819Y-133837952D02*
X89741438Y-133742714D01*
X89741438Y-133742714D02*
X89789057Y-133695095D01*
X89789057Y-133695095D02*
X89884295Y-133647476D01*
X89884295Y-133647476D02*
X89979533Y-133647476D01*
X89979533Y-133647476D02*
X90122390Y-133695095D01*
X90122390Y-133695095D02*
X90693819Y-134266523D01*
X90693819Y-134266523D02*
X90693819Y-133647476D01*
X89693819Y-133314142D02*
X89693819Y-132647476D01*
X89693819Y-132647476D02*
X90693819Y-133076047D01*
X101803819Y-145267857D02*
X101327628Y-145601190D01*
X101803819Y-145839285D02*
X100803819Y-145839285D01*
X100803819Y-145839285D02*
X100803819Y-145458333D01*
X100803819Y-145458333D02*
X100851438Y-145363095D01*
X100851438Y-145363095D02*
X100899057Y-145315476D01*
X100899057Y-145315476D02*
X100994295Y-145267857D01*
X100994295Y-145267857D02*
X101137152Y-145267857D01*
X101137152Y-145267857D02*
X101232390Y-145315476D01*
X101232390Y-145315476D02*
X101280009Y-145363095D01*
X101280009Y-145363095D02*
X101327628Y-145458333D01*
X101327628Y-145458333D02*
X101327628Y-145839285D01*
X100899057Y-144886904D02*
X100851438Y-144839285D01*
X100851438Y-144839285D02*
X100803819Y-144744047D01*
X100803819Y-144744047D02*
X100803819Y-144505952D01*
X100803819Y-144505952D02*
X100851438Y-144410714D01*
X100851438Y-144410714D02*
X100899057Y-144363095D01*
X100899057Y-144363095D02*
X100994295Y-144315476D01*
X100994295Y-144315476D02*
X101089533Y-144315476D01*
X101089533Y-144315476D02*
X101232390Y-144363095D01*
X101232390Y-144363095D02*
X101803819Y-144934523D01*
X101803819Y-144934523D02*
X101803819Y-144315476D01*
X100803819Y-143410714D02*
X100803819Y-143886904D01*
X100803819Y-143886904D02*
X101280009Y-143934523D01*
X101280009Y-143934523D02*
X101232390Y-143886904D01*
X101232390Y-143886904D02*
X101184771Y-143791666D01*
X101184771Y-143791666D02*
X101184771Y-143553571D01*
X101184771Y-143553571D02*
X101232390Y-143458333D01*
X101232390Y-143458333D02*
X101280009Y-143410714D01*
X101280009Y-143410714D02*
X101375247Y-143363095D01*
X101375247Y-143363095D02*
X101613342Y-143363095D01*
X101613342Y-143363095D02*
X101708580Y-143410714D01*
X101708580Y-143410714D02*
X101756200Y-143458333D01*
X101756200Y-143458333D02*
X101803819Y-143553571D01*
X101803819Y-143553571D02*
X101803819Y-143791666D01*
X101803819Y-143791666D02*
X101756200Y-143886904D01*
X101756200Y-143886904D02*
X101708580Y-143934523D01*
X91963819Y-131805857D02*
X91487628Y-132139190D01*
X91963819Y-132377285D02*
X90963819Y-132377285D01*
X90963819Y-132377285D02*
X90963819Y-131996333D01*
X90963819Y-131996333D02*
X91011438Y-131901095D01*
X91011438Y-131901095D02*
X91059057Y-131853476D01*
X91059057Y-131853476D02*
X91154295Y-131805857D01*
X91154295Y-131805857D02*
X91297152Y-131805857D01*
X91297152Y-131805857D02*
X91392390Y-131853476D01*
X91392390Y-131853476D02*
X91440009Y-131901095D01*
X91440009Y-131901095D02*
X91487628Y-131996333D01*
X91487628Y-131996333D02*
X91487628Y-132377285D01*
X91963819Y-130853476D02*
X91963819Y-131424904D01*
X91963819Y-131139190D02*
X90963819Y-131139190D01*
X90963819Y-131139190D02*
X91106676Y-131234428D01*
X91106676Y-131234428D02*
X91201914Y-131329666D01*
X91201914Y-131329666D02*
X91249533Y-131424904D01*
X90963819Y-129996333D02*
X90963819Y-130186809D01*
X90963819Y-130186809D02*
X91011438Y-130282047D01*
X91011438Y-130282047D02*
X91059057Y-130329666D01*
X91059057Y-130329666D02*
X91201914Y-130424904D01*
X91201914Y-130424904D02*
X91392390Y-130472523D01*
X91392390Y-130472523D02*
X91773342Y-130472523D01*
X91773342Y-130472523D02*
X91868580Y-130424904D01*
X91868580Y-130424904D02*
X91916200Y-130377285D01*
X91916200Y-130377285D02*
X91963819Y-130282047D01*
X91963819Y-130282047D02*
X91963819Y-130091571D01*
X91963819Y-130091571D02*
X91916200Y-129996333D01*
X91916200Y-129996333D02*
X91868580Y-129948714D01*
X91868580Y-129948714D02*
X91773342Y-129901095D01*
X91773342Y-129901095D02*
X91535247Y-129901095D01*
X91535247Y-129901095D02*
X91440009Y-129948714D01*
X91440009Y-129948714D02*
X91392390Y-129996333D01*
X91392390Y-129996333D02*
X91344771Y-130091571D01*
X91344771Y-130091571D02*
X91344771Y-130282047D01*
X91344771Y-130282047D02*
X91392390Y-130377285D01*
X91392390Y-130377285D02*
X91440009Y-130424904D01*
X91440009Y-130424904D02*
X91535247Y-130472523D01*
X122846819Y-145363094D02*
X121846819Y-145363094D01*
X121846819Y-145363094D02*
X121846819Y-145124999D01*
X121846819Y-145124999D02*
X121894438Y-144982142D01*
X121894438Y-144982142D02*
X121989676Y-144886904D01*
X121989676Y-144886904D02*
X122084914Y-144839285D01*
X122084914Y-144839285D02*
X122275390Y-144791666D01*
X122275390Y-144791666D02*
X122418247Y-144791666D01*
X122418247Y-144791666D02*
X122608723Y-144839285D01*
X122608723Y-144839285D02*
X122703961Y-144886904D01*
X122703961Y-144886904D02*
X122799200Y-144982142D01*
X122799200Y-144982142D02*
X122846819Y-145124999D01*
X122846819Y-145124999D02*
X122846819Y-145363094D01*
X122180152Y-143934523D02*
X122846819Y-143934523D01*
X121799200Y-144172618D02*
X122513485Y-144410713D01*
X122513485Y-144410713D02*
X122513485Y-143791666D01*
X94088580Y-145267857D02*
X94136200Y-145315476D01*
X94136200Y-145315476D02*
X94183819Y-145458333D01*
X94183819Y-145458333D02*
X94183819Y-145553571D01*
X94183819Y-145553571D02*
X94136200Y-145696428D01*
X94136200Y-145696428D02*
X94040961Y-145791666D01*
X94040961Y-145791666D02*
X93945723Y-145839285D01*
X93945723Y-145839285D02*
X93755247Y-145886904D01*
X93755247Y-145886904D02*
X93612390Y-145886904D01*
X93612390Y-145886904D02*
X93421914Y-145839285D01*
X93421914Y-145839285D02*
X93326676Y-145791666D01*
X93326676Y-145791666D02*
X93231438Y-145696428D01*
X93231438Y-145696428D02*
X93183819Y-145553571D01*
X93183819Y-145553571D02*
X93183819Y-145458333D01*
X93183819Y-145458333D02*
X93231438Y-145315476D01*
X93231438Y-145315476D02*
X93279057Y-145267857D01*
X93183819Y-144934523D02*
X93183819Y-144315476D01*
X93183819Y-144315476D02*
X93564771Y-144648809D01*
X93564771Y-144648809D02*
X93564771Y-144505952D01*
X93564771Y-144505952D02*
X93612390Y-144410714D01*
X93612390Y-144410714D02*
X93660009Y-144363095D01*
X93660009Y-144363095D02*
X93755247Y-144315476D01*
X93755247Y-144315476D02*
X93993342Y-144315476D01*
X93993342Y-144315476D02*
X94088580Y-144363095D01*
X94088580Y-144363095D02*
X94136200Y-144410714D01*
X94136200Y-144410714D02*
X94183819Y-144505952D01*
X94183819Y-144505952D02*
X94183819Y-144791666D01*
X94183819Y-144791666D02*
X94136200Y-144886904D01*
X94136200Y-144886904D02*
X94088580Y-144934523D01*
X94183819Y-143363095D02*
X94183819Y-143934523D01*
X94183819Y-143648809D02*
X93183819Y-143648809D01*
X93183819Y-143648809D02*
X93326676Y-143744047D01*
X93326676Y-143744047D02*
X93421914Y-143839285D01*
X93421914Y-143839285D02*
X93469533Y-143934523D01*
X121840580Y-141584857D02*
X121888200Y-141632476D01*
X121888200Y-141632476D02*
X121935819Y-141775333D01*
X121935819Y-141775333D02*
X121935819Y-141870571D01*
X121935819Y-141870571D02*
X121888200Y-142013428D01*
X121888200Y-142013428D02*
X121792961Y-142108666D01*
X121792961Y-142108666D02*
X121697723Y-142156285D01*
X121697723Y-142156285D02*
X121507247Y-142203904D01*
X121507247Y-142203904D02*
X121364390Y-142203904D01*
X121364390Y-142203904D02*
X121173914Y-142156285D01*
X121173914Y-142156285D02*
X121078676Y-142108666D01*
X121078676Y-142108666D02*
X120983438Y-142013428D01*
X120983438Y-142013428D02*
X120935819Y-141870571D01*
X120935819Y-141870571D02*
X120935819Y-141775333D01*
X120935819Y-141775333D02*
X120983438Y-141632476D01*
X120983438Y-141632476D02*
X121031057Y-141584857D01*
X121031057Y-141203904D02*
X120983438Y-141156285D01*
X120983438Y-141156285D02*
X120935819Y-141061047D01*
X120935819Y-141061047D02*
X120935819Y-140822952D01*
X120935819Y-140822952D02*
X120983438Y-140727714D01*
X120983438Y-140727714D02*
X121031057Y-140680095D01*
X121031057Y-140680095D02*
X121126295Y-140632476D01*
X121126295Y-140632476D02*
X121221533Y-140632476D01*
X121221533Y-140632476D02*
X121364390Y-140680095D01*
X121364390Y-140680095D02*
X121935819Y-141251523D01*
X121935819Y-141251523D02*
X121935819Y-140632476D01*
X121269152Y-139775333D02*
X121935819Y-139775333D01*
X120888200Y-140013428D02*
X121602485Y-140251523D01*
X121602485Y-140251523D02*
X121602485Y-139632476D01*
X104663819Y-134599857D02*
X104187628Y-134933190D01*
X104663819Y-135171285D02*
X103663819Y-135171285D01*
X103663819Y-135171285D02*
X103663819Y-134790333D01*
X103663819Y-134790333D02*
X103711438Y-134695095D01*
X103711438Y-134695095D02*
X103759057Y-134647476D01*
X103759057Y-134647476D02*
X103854295Y-134599857D01*
X103854295Y-134599857D02*
X103997152Y-134599857D01*
X103997152Y-134599857D02*
X104092390Y-134647476D01*
X104092390Y-134647476D02*
X104140009Y-134695095D01*
X104140009Y-134695095D02*
X104187628Y-134790333D01*
X104187628Y-134790333D02*
X104187628Y-135171285D01*
X103759057Y-134218904D02*
X103711438Y-134171285D01*
X103711438Y-134171285D02*
X103663819Y-134076047D01*
X103663819Y-134076047D02*
X103663819Y-133837952D01*
X103663819Y-133837952D02*
X103711438Y-133742714D01*
X103711438Y-133742714D02*
X103759057Y-133695095D01*
X103759057Y-133695095D02*
X103854295Y-133647476D01*
X103854295Y-133647476D02*
X103949533Y-133647476D01*
X103949533Y-133647476D02*
X104092390Y-133695095D01*
X104092390Y-133695095D02*
X104663819Y-134266523D01*
X104663819Y-134266523D02*
X104663819Y-133647476D01*
X103997152Y-132790333D02*
X104663819Y-132790333D01*
X103616200Y-133028428D02*
X104330485Y-133266523D01*
X104330485Y-133266523D02*
X104330485Y-132647476D01*
X91963819Y-145267857D02*
X91487628Y-145601190D01*
X91963819Y-145839285D02*
X90963819Y-145839285D01*
X90963819Y-145839285D02*
X90963819Y-145458333D01*
X90963819Y-145458333D02*
X91011438Y-145363095D01*
X91011438Y-145363095D02*
X91059057Y-145315476D01*
X91059057Y-145315476D02*
X91154295Y-145267857D01*
X91154295Y-145267857D02*
X91297152Y-145267857D01*
X91297152Y-145267857D02*
X91392390Y-145315476D01*
X91392390Y-145315476D02*
X91440009Y-145363095D01*
X91440009Y-145363095D02*
X91487628Y-145458333D01*
X91487628Y-145458333D02*
X91487628Y-145839285D01*
X91963819Y-144315476D02*
X91963819Y-144886904D01*
X91963819Y-144601190D02*
X90963819Y-144601190D01*
X90963819Y-144601190D02*
X91106676Y-144696428D01*
X91106676Y-144696428D02*
X91201914Y-144791666D01*
X91201914Y-144791666D02*
X91249533Y-144886904D01*
X91059057Y-143934523D02*
X91011438Y-143886904D01*
X91011438Y-143886904D02*
X90963819Y-143791666D01*
X90963819Y-143791666D02*
X90963819Y-143553571D01*
X90963819Y-143553571D02*
X91011438Y-143458333D01*
X91011438Y-143458333D02*
X91059057Y-143410714D01*
X91059057Y-143410714D02*
X91154295Y-143363095D01*
X91154295Y-143363095D02*
X91249533Y-143363095D01*
X91249533Y-143363095D02*
X91392390Y-143410714D01*
X91392390Y-143410714D02*
X91963819Y-143982142D01*
X91963819Y-143982142D02*
X91963819Y-143363095D01*
X109954819Y-98961904D02*
X109954819Y-98390476D01*
X110954819Y-98676190D02*
X109954819Y-98676190D01*
X110954819Y-98057142D02*
X109954819Y-98057142D01*
X109954819Y-98057142D02*
X109954819Y-97676190D01*
X109954819Y-97676190D02*
X110002438Y-97580952D01*
X110002438Y-97580952D02*
X110050057Y-97533333D01*
X110050057Y-97533333D02*
X110145295Y-97485714D01*
X110145295Y-97485714D02*
X110288152Y-97485714D01*
X110288152Y-97485714D02*
X110383390Y-97533333D01*
X110383390Y-97533333D02*
X110431009Y-97580952D01*
X110431009Y-97580952D02*
X110478628Y-97676190D01*
X110478628Y-97676190D02*
X110478628Y-98057142D01*
X109954819Y-96628571D02*
X109954819Y-96819047D01*
X109954819Y-96819047D02*
X110002438Y-96914285D01*
X110002438Y-96914285D02*
X110050057Y-96961904D01*
X110050057Y-96961904D02*
X110192914Y-97057142D01*
X110192914Y-97057142D02*
X110383390Y-97104761D01*
X110383390Y-97104761D02*
X110764342Y-97104761D01*
X110764342Y-97104761D02*
X110859580Y-97057142D01*
X110859580Y-97057142D02*
X110907200Y-97009523D01*
X110907200Y-97009523D02*
X110954819Y-96914285D01*
X110954819Y-96914285D02*
X110954819Y-96723809D01*
X110954819Y-96723809D02*
X110907200Y-96628571D01*
X110907200Y-96628571D02*
X110859580Y-96580952D01*
X110859580Y-96580952D02*
X110764342Y-96533333D01*
X110764342Y-96533333D02*
X110526247Y-96533333D01*
X110526247Y-96533333D02*
X110431009Y-96580952D01*
X110431009Y-96580952D02*
X110383390Y-96628571D01*
X110383390Y-96628571D02*
X110335771Y-96723809D01*
X110335771Y-96723809D02*
X110335771Y-96914285D01*
X110335771Y-96914285D02*
X110383390Y-97009523D01*
X110383390Y-97009523D02*
X110431009Y-97057142D01*
X110431009Y-97057142D02*
X110526247Y-97104761D01*
X128952580Y-128027666D02*
X129000200Y-128075285D01*
X129000200Y-128075285D02*
X129047819Y-128218142D01*
X129047819Y-128218142D02*
X129047819Y-128313380D01*
X129047819Y-128313380D02*
X129000200Y-128456237D01*
X129000200Y-128456237D02*
X128904961Y-128551475D01*
X128904961Y-128551475D02*
X128809723Y-128599094D01*
X128809723Y-128599094D02*
X128619247Y-128646713D01*
X128619247Y-128646713D02*
X128476390Y-128646713D01*
X128476390Y-128646713D02*
X128285914Y-128599094D01*
X128285914Y-128599094D02*
X128190676Y-128551475D01*
X128190676Y-128551475D02*
X128095438Y-128456237D01*
X128095438Y-128456237D02*
X128047819Y-128313380D01*
X128047819Y-128313380D02*
X128047819Y-128218142D01*
X128047819Y-128218142D02*
X128095438Y-128075285D01*
X128095438Y-128075285D02*
X128143057Y-128027666D01*
X129047819Y-127551475D02*
X129047819Y-127360999D01*
X129047819Y-127360999D02*
X129000200Y-127265761D01*
X129000200Y-127265761D02*
X128952580Y-127218142D01*
X128952580Y-127218142D02*
X128809723Y-127122904D01*
X128809723Y-127122904D02*
X128619247Y-127075285D01*
X128619247Y-127075285D02*
X128238295Y-127075285D01*
X128238295Y-127075285D02*
X128143057Y-127122904D01*
X128143057Y-127122904D02*
X128095438Y-127170523D01*
X128095438Y-127170523D02*
X128047819Y-127265761D01*
X128047819Y-127265761D02*
X128047819Y-127456237D01*
X128047819Y-127456237D02*
X128095438Y-127551475D01*
X128095438Y-127551475D02*
X128143057Y-127599094D01*
X128143057Y-127599094D02*
X128238295Y-127646713D01*
X128238295Y-127646713D02*
X128476390Y-127646713D01*
X128476390Y-127646713D02*
X128571628Y-127599094D01*
X128571628Y-127599094D02*
X128619247Y-127551475D01*
X128619247Y-127551475D02*
X128666866Y-127456237D01*
X128666866Y-127456237D02*
X128666866Y-127265761D01*
X128666866Y-127265761D02*
X128619247Y-127170523D01*
X128619247Y-127170523D02*
X128571628Y-127122904D01*
X128571628Y-127122904D02*
X128476390Y-127075285D01*
X110725580Y-128503857D02*
X110773200Y-128551476D01*
X110773200Y-128551476D02*
X110820819Y-128694333D01*
X110820819Y-128694333D02*
X110820819Y-128789571D01*
X110820819Y-128789571D02*
X110773200Y-128932428D01*
X110773200Y-128932428D02*
X110677961Y-129027666D01*
X110677961Y-129027666D02*
X110582723Y-129075285D01*
X110582723Y-129075285D02*
X110392247Y-129122904D01*
X110392247Y-129122904D02*
X110249390Y-129122904D01*
X110249390Y-129122904D02*
X110058914Y-129075285D01*
X110058914Y-129075285D02*
X109963676Y-129027666D01*
X109963676Y-129027666D02*
X109868438Y-128932428D01*
X109868438Y-128932428D02*
X109820819Y-128789571D01*
X109820819Y-128789571D02*
X109820819Y-128694333D01*
X109820819Y-128694333D02*
X109868438Y-128551476D01*
X109868438Y-128551476D02*
X109916057Y-128503857D01*
X110820819Y-127551476D02*
X110820819Y-128122904D01*
X110820819Y-127837190D02*
X109820819Y-127837190D01*
X109820819Y-127837190D02*
X109963676Y-127932428D01*
X109963676Y-127932428D02*
X110058914Y-128027666D01*
X110058914Y-128027666D02*
X110106533Y-128122904D01*
X109820819Y-126932428D02*
X109820819Y-126837190D01*
X109820819Y-126837190D02*
X109868438Y-126741952D01*
X109868438Y-126741952D02*
X109916057Y-126694333D01*
X109916057Y-126694333D02*
X110011295Y-126646714D01*
X110011295Y-126646714D02*
X110201771Y-126599095D01*
X110201771Y-126599095D02*
X110439866Y-126599095D01*
X110439866Y-126599095D02*
X110630342Y-126646714D01*
X110630342Y-126646714D02*
X110725580Y-126694333D01*
X110725580Y-126694333D02*
X110773200Y-126741952D01*
X110773200Y-126741952D02*
X110820819Y-126837190D01*
X110820819Y-126837190D02*
X110820819Y-126932428D01*
X110820819Y-126932428D02*
X110773200Y-127027666D01*
X110773200Y-127027666D02*
X110725580Y-127075285D01*
X110725580Y-127075285D02*
X110630342Y-127122904D01*
X110630342Y-127122904D02*
X110439866Y-127170523D01*
X110439866Y-127170523D02*
X110201771Y-127170523D01*
X110201771Y-127170523D02*
X110011295Y-127122904D01*
X110011295Y-127122904D02*
X109916057Y-127075285D01*
X109916057Y-127075285D02*
X109868438Y-127027666D01*
X109868438Y-127027666D02*
X109820819Y-126932428D01*
X121520580Y-141584857D02*
X121568200Y-141632476D01*
X121568200Y-141632476D02*
X121615819Y-141775333D01*
X121615819Y-141775333D02*
X121615819Y-141870571D01*
X121615819Y-141870571D02*
X121568200Y-142013428D01*
X121568200Y-142013428D02*
X121472961Y-142108666D01*
X121472961Y-142108666D02*
X121377723Y-142156285D01*
X121377723Y-142156285D02*
X121187247Y-142203904D01*
X121187247Y-142203904D02*
X121044390Y-142203904D01*
X121044390Y-142203904D02*
X120853914Y-142156285D01*
X120853914Y-142156285D02*
X120758676Y-142108666D01*
X120758676Y-142108666D02*
X120663438Y-142013428D01*
X120663438Y-142013428D02*
X120615819Y-141870571D01*
X120615819Y-141870571D02*
X120615819Y-141775333D01*
X120615819Y-141775333D02*
X120663438Y-141632476D01*
X120663438Y-141632476D02*
X120711057Y-141584857D01*
X121615819Y-140632476D02*
X121615819Y-141203904D01*
X121615819Y-140918190D02*
X120615819Y-140918190D01*
X120615819Y-140918190D02*
X120758676Y-141013428D01*
X120758676Y-141013428D02*
X120853914Y-141108666D01*
X120853914Y-141108666D02*
X120901533Y-141203904D01*
X120615819Y-139775333D02*
X120615819Y-139965809D01*
X120615819Y-139965809D02*
X120663438Y-140061047D01*
X120663438Y-140061047D02*
X120711057Y-140108666D01*
X120711057Y-140108666D02*
X120853914Y-140203904D01*
X120853914Y-140203904D02*
X121044390Y-140251523D01*
X121044390Y-140251523D02*
X121425342Y-140251523D01*
X121425342Y-140251523D02*
X121520580Y-140203904D01*
X121520580Y-140203904D02*
X121568200Y-140156285D01*
X121568200Y-140156285D02*
X121615819Y-140061047D01*
X121615819Y-140061047D02*
X121615819Y-139870571D01*
X121615819Y-139870571D02*
X121568200Y-139775333D01*
X121568200Y-139775333D02*
X121520580Y-139727714D01*
X121520580Y-139727714D02*
X121425342Y-139680095D01*
X121425342Y-139680095D02*
X121187247Y-139680095D01*
X121187247Y-139680095D02*
X121092009Y-139727714D01*
X121092009Y-139727714D02*
X121044390Y-139775333D01*
X121044390Y-139775333D02*
X120996771Y-139870571D01*
X120996771Y-139870571D02*
X120996771Y-140061047D01*
X120996771Y-140061047D02*
X121044390Y-140156285D01*
X121044390Y-140156285D02*
X121092009Y-140203904D01*
X121092009Y-140203904D02*
X121187247Y-140251523D01*
X111741580Y-145267857D02*
X111789200Y-145315476D01*
X111789200Y-145315476D02*
X111836819Y-145458333D01*
X111836819Y-145458333D02*
X111836819Y-145553571D01*
X111836819Y-145553571D02*
X111789200Y-145696428D01*
X111789200Y-145696428D02*
X111693961Y-145791666D01*
X111693961Y-145791666D02*
X111598723Y-145839285D01*
X111598723Y-145839285D02*
X111408247Y-145886904D01*
X111408247Y-145886904D02*
X111265390Y-145886904D01*
X111265390Y-145886904D02*
X111074914Y-145839285D01*
X111074914Y-145839285D02*
X110979676Y-145791666D01*
X110979676Y-145791666D02*
X110884438Y-145696428D01*
X110884438Y-145696428D02*
X110836819Y-145553571D01*
X110836819Y-145553571D02*
X110836819Y-145458333D01*
X110836819Y-145458333D02*
X110884438Y-145315476D01*
X110884438Y-145315476D02*
X110932057Y-145267857D01*
X110836819Y-144934523D02*
X110836819Y-144315476D01*
X110836819Y-144315476D02*
X111217771Y-144648809D01*
X111217771Y-144648809D02*
X111217771Y-144505952D01*
X111217771Y-144505952D02*
X111265390Y-144410714D01*
X111265390Y-144410714D02*
X111313009Y-144363095D01*
X111313009Y-144363095D02*
X111408247Y-144315476D01*
X111408247Y-144315476D02*
X111646342Y-144315476D01*
X111646342Y-144315476D02*
X111741580Y-144363095D01*
X111741580Y-144363095D02*
X111789200Y-144410714D01*
X111789200Y-144410714D02*
X111836819Y-144505952D01*
X111836819Y-144505952D02*
X111836819Y-144791666D01*
X111836819Y-144791666D02*
X111789200Y-144886904D01*
X111789200Y-144886904D02*
X111741580Y-144934523D01*
X111265390Y-143744047D02*
X111217771Y-143839285D01*
X111217771Y-143839285D02*
X111170152Y-143886904D01*
X111170152Y-143886904D02*
X111074914Y-143934523D01*
X111074914Y-143934523D02*
X111027295Y-143934523D01*
X111027295Y-143934523D02*
X110932057Y-143886904D01*
X110932057Y-143886904D02*
X110884438Y-143839285D01*
X110884438Y-143839285D02*
X110836819Y-143744047D01*
X110836819Y-143744047D02*
X110836819Y-143553571D01*
X110836819Y-143553571D02*
X110884438Y-143458333D01*
X110884438Y-143458333D02*
X110932057Y-143410714D01*
X110932057Y-143410714D02*
X111027295Y-143363095D01*
X111027295Y-143363095D02*
X111074914Y-143363095D01*
X111074914Y-143363095D02*
X111170152Y-143410714D01*
X111170152Y-143410714D02*
X111217771Y-143458333D01*
X111217771Y-143458333D02*
X111265390Y-143553571D01*
X111265390Y-143553571D02*
X111265390Y-143744047D01*
X111265390Y-143744047D02*
X111313009Y-143839285D01*
X111313009Y-143839285D02*
X111360628Y-143886904D01*
X111360628Y-143886904D02*
X111455866Y-143934523D01*
X111455866Y-143934523D02*
X111646342Y-143934523D01*
X111646342Y-143934523D02*
X111741580Y-143886904D01*
X111741580Y-143886904D02*
X111789200Y-143839285D01*
X111789200Y-143839285D02*
X111836819Y-143744047D01*
X111836819Y-143744047D02*
X111836819Y-143553571D01*
X111836819Y-143553571D02*
X111789200Y-143458333D01*
X111789200Y-143458333D02*
X111741580Y-143410714D01*
X111741580Y-143410714D02*
X111646342Y-143363095D01*
X111646342Y-143363095D02*
X111455866Y-143363095D01*
X111455866Y-143363095D02*
X111360628Y-143410714D01*
X111360628Y-143410714D02*
X111313009Y-143458333D01*
X111313009Y-143458333D02*
X111265390Y-143553571D01*
X49062819Y-128754094D02*
X48062819Y-128754094D01*
X48062819Y-128754094D02*
X48062819Y-128515999D01*
X48062819Y-128515999D02*
X48110438Y-128373142D01*
X48110438Y-128373142D02*
X48205676Y-128277904D01*
X48205676Y-128277904D02*
X48300914Y-128230285D01*
X48300914Y-128230285D02*
X48491390Y-128182666D01*
X48491390Y-128182666D02*
X48634247Y-128182666D01*
X48634247Y-128182666D02*
X48824723Y-128230285D01*
X48824723Y-128230285D02*
X48919961Y-128277904D01*
X48919961Y-128277904D02*
X49015200Y-128373142D01*
X49015200Y-128373142D02*
X49062819Y-128515999D01*
X49062819Y-128515999D02*
X49062819Y-128754094D01*
X48158057Y-127801713D02*
X48110438Y-127754094D01*
X48110438Y-127754094D02*
X48062819Y-127658856D01*
X48062819Y-127658856D02*
X48062819Y-127420761D01*
X48062819Y-127420761D02*
X48110438Y-127325523D01*
X48110438Y-127325523D02*
X48158057Y-127277904D01*
X48158057Y-127277904D02*
X48253295Y-127230285D01*
X48253295Y-127230285D02*
X48348533Y-127230285D01*
X48348533Y-127230285D02*
X48491390Y-127277904D01*
X48491390Y-127277904D02*
X49062819Y-127849332D01*
X49062819Y-127849332D02*
X49062819Y-127230285D01*
X119822009Y-145458333D02*
X119822009Y-145791666D01*
X120345819Y-145791666D02*
X119345819Y-145791666D01*
X119345819Y-145791666D02*
X119345819Y-145315476D01*
X119822009Y-144601190D02*
X119869628Y-144458333D01*
X119869628Y-144458333D02*
X119917247Y-144410714D01*
X119917247Y-144410714D02*
X120012485Y-144363095D01*
X120012485Y-144363095D02*
X120155342Y-144363095D01*
X120155342Y-144363095D02*
X120250580Y-144410714D01*
X120250580Y-144410714D02*
X120298200Y-144458333D01*
X120298200Y-144458333D02*
X120345819Y-144553571D01*
X120345819Y-144553571D02*
X120345819Y-144934523D01*
X120345819Y-144934523D02*
X119345819Y-144934523D01*
X119345819Y-144934523D02*
X119345819Y-144601190D01*
X119345819Y-144601190D02*
X119393438Y-144505952D01*
X119393438Y-144505952D02*
X119441057Y-144458333D01*
X119441057Y-144458333D02*
X119536295Y-144410714D01*
X119536295Y-144410714D02*
X119631533Y-144410714D01*
X119631533Y-144410714D02*
X119726771Y-144458333D01*
X119726771Y-144458333D02*
X119774390Y-144505952D01*
X119774390Y-144505952D02*
X119822009Y-144601190D01*
X119822009Y-144601190D02*
X119822009Y-144934523D01*
X119441057Y-143982142D02*
X119393438Y-143934523D01*
X119393438Y-143934523D02*
X119345819Y-143839285D01*
X119345819Y-143839285D02*
X119345819Y-143601190D01*
X119345819Y-143601190D02*
X119393438Y-143505952D01*
X119393438Y-143505952D02*
X119441057Y-143458333D01*
X119441057Y-143458333D02*
X119536295Y-143410714D01*
X119536295Y-143410714D02*
X119631533Y-143410714D01*
X119631533Y-143410714D02*
X119774390Y-143458333D01*
X119774390Y-143458333D02*
X120345819Y-144029761D01*
X120345819Y-144029761D02*
X120345819Y-143410714D01*
X126869333Y-137619819D02*
X126536000Y-137143628D01*
X126297905Y-137619819D02*
X126297905Y-136619819D01*
X126297905Y-136619819D02*
X126678857Y-136619819D01*
X126678857Y-136619819D02*
X126774095Y-136667438D01*
X126774095Y-136667438D02*
X126821714Y-136715057D01*
X126821714Y-136715057D02*
X126869333Y-136810295D01*
X126869333Y-136810295D02*
X126869333Y-136953152D01*
X126869333Y-136953152D02*
X126821714Y-137048390D01*
X126821714Y-137048390D02*
X126774095Y-137096009D01*
X126774095Y-137096009D02*
X126678857Y-137143628D01*
X126678857Y-137143628D02*
X126297905Y-137143628D01*
X127250286Y-136715057D02*
X127297905Y-136667438D01*
X127297905Y-136667438D02*
X127393143Y-136619819D01*
X127393143Y-136619819D02*
X127631238Y-136619819D01*
X127631238Y-136619819D02*
X127726476Y-136667438D01*
X127726476Y-136667438D02*
X127774095Y-136715057D01*
X127774095Y-136715057D02*
X127821714Y-136810295D01*
X127821714Y-136810295D02*
X127821714Y-136905533D01*
X127821714Y-136905533D02*
X127774095Y-137048390D01*
X127774095Y-137048390D02*
X127202667Y-137619819D01*
X127202667Y-137619819D02*
X127821714Y-137619819D01*
X130371580Y-136790666D02*
X130419200Y-136838285D01*
X130419200Y-136838285D02*
X130466819Y-136981142D01*
X130466819Y-136981142D02*
X130466819Y-137076380D01*
X130466819Y-137076380D02*
X130419200Y-137219237D01*
X130419200Y-137219237D02*
X130323961Y-137314475D01*
X130323961Y-137314475D02*
X130228723Y-137362094D01*
X130228723Y-137362094D02*
X130038247Y-137409713D01*
X130038247Y-137409713D02*
X129895390Y-137409713D01*
X129895390Y-137409713D02*
X129704914Y-137362094D01*
X129704914Y-137362094D02*
X129609676Y-137314475D01*
X129609676Y-137314475D02*
X129514438Y-137219237D01*
X129514438Y-137219237D02*
X129466819Y-137076380D01*
X129466819Y-137076380D02*
X129466819Y-136981142D01*
X129466819Y-136981142D02*
X129514438Y-136838285D01*
X129514438Y-136838285D02*
X129562057Y-136790666D01*
X130466819Y-135838285D02*
X130466819Y-136409713D01*
X130466819Y-136123999D02*
X129466819Y-136123999D01*
X129466819Y-136123999D02*
X129609676Y-136219237D01*
X129609676Y-136219237D02*
X129704914Y-136314475D01*
X129704914Y-136314475D02*
X129752533Y-136409713D01*
X132454819Y-139243333D02*
X133169104Y-139243333D01*
X133169104Y-139243333D02*
X133311961Y-139290952D01*
X133311961Y-139290952D02*
X133407200Y-139386190D01*
X133407200Y-139386190D02*
X133454819Y-139529047D01*
X133454819Y-139529047D02*
X133454819Y-139624285D01*
X133454819Y-138243333D02*
X133454819Y-138814761D01*
X133454819Y-138529047D02*
X132454819Y-138529047D01*
X132454819Y-138529047D02*
X132597676Y-138624285D01*
X132597676Y-138624285D02*
X132692914Y-138719523D01*
X132692914Y-138719523D02*
X132740533Y-138814761D01*
X97993819Y-145267857D02*
X97517628Y-145601190D01*
X97993819Y-145839285D02*
X96993819Y-145839285D01*
X96993819Y-145839285D02*
X96993819Y-145458333D01*
X96993819Y-145458333D02*
X97041438Y-145363095D01*
X97041438Y-145363095D02*
X97089057Y-145315476D01*
X97089057Y-145315476D02*
X97184295Y-145267857D01*
X97184295Y-145267857D02*
X97327152Y-145267857D01*
X97327152Y-145267857D02*
X97422390Y-145315476D01*
X97422390Y-145315476D02*
X97470009Y-145363095D01*
X97470009Y-145363095D02*
X97517628Y-145458333D01*
X97517628Y-145458333D02*
X97517628Y-145839285D01*
X97089057Y-144886904D02*
X97041438Y-144839285D01*
X97041438Y-144839285D02*
X96993819Y-144744047D01*
X96993819Y-144744047D02*
X96993819Y-144505952D01*
X96993819Y-144505952D02*
X97041438Y-144410714D01*
X97041438Y-144410714D02*
X97089057Y-144363095D01*
X97089057Y-144363095D02*
X97184295Y-144315476D01*
X97184295Y-144315476D02*
X97279533Y-144315476D01*
X97279533Y-144315476D02*
X97422390Y-144363095D01*
X97422390Y-144363095D02*
X97993819Y-144934523D01*
X97993819Y-144934523D02*
X97993819Y-144315476D01*
X96993819Y-143458333D02*
X96993819Y-143648809D01*
X96993819Y-143648809D02*
X97041438Y-143744047D01*
X97041438Y-143744047D02*
X97089057Y-143791666D01*
X97089057Y-143791666D02*
X97231914Y-143886904D01*
X97231914Y-143886904D02*
X97422390Y-143934523D01*
X97422390Y-143934523D02*
X97803342Y-143934523D01*
X97803342Y-143934523D02*
X97898580Y-143886904D01*
X97898580Y-143886904D02*
X97946200Y-143839285D01*
X97946200Y-143839285D02*
X97993819Y-143744047D01*
X97993819Y-143744047D02*
X97993819Y-143553571D01*
X97993819Y-143553571D02*
X97946200Y-143458333D01*
X97946200Y-143458333D02*
X97898580Y-143410714D01*
X97898580Y-143410714D02*
X97803342Y-143363095D01*
X97803342Y-143363095D02*
X97565247Y-143363095D01*
X97565247Y-143363095D02*
X97470009Y-143410714D01*
X97470009Y-143410714D02*
X97422390Y-143458333D01*
X97422390Y-143458333D02*
X97374771Y-143553571D01*
X97374771Y-143553571D02*
X97374771Y-143744047D01*
X97374771Y-143744047D02*
X97422390Y-143839285D01*
X97422390Y-143839285D02*
X97470009Y-143886904D01*
X97470009Y-143886904D02*
X97565247Y-143934523D01*
X121840580Y-145267857D02*
X121888200Y-145315476D01*
X121888200Y-145315476D02*
X121935819Y-145458333D01*
X121935819Y-145458333D02*
X121935819Y-145553571D01*
X121935819Y-145553571D02*
X121888200Y-145696428D01*
X121888200Y-145696428D02*
X121792961Y-145791666D01*
X121792961Y-145791666D02*
X121697723Y-145839285D01*
X121697723Y-145839285D02*
X121507247Y-145886904D01*
X121507247Y-145886904D02*
X121364390Y-145886904D01*
X121364390Y-145886904D02*
X121173914Y-145839285D01*
X121173914Y-145839285D02*
X121078676Y-145791666D01*
X121078676Y-145791666D02*
X120983438Y-145696428D01*
X120983438Y-145696428D02*
X120935819Y-145553571D01*
X120935819Y-145553571D02*
X120935819Y-145458333D01*
X120935819Y-145458333D02*
X120983438Y-145315476D01*
X120983438Y-145315476D02*
X121031057Y-145267857D01*
X121031057Y-144886904D02*
X120983438Y-144839285D01*
X120983438Y-144839285D02*
X120935819Y-144744047D01*
X120935819Y-144744047D02*
X120935819Y-144505952D01*
X120935819Y-144505952D02*
X120983438Y-144410714D01*
X120983438Y-144410714D02*
X121031057Y-144363095D01*
X121031057Y-144363095D02*
X121126295Y-144315476D01*
X121126295Y-144315476D02*
X121221533Y-144315476D01*
X121221533Y-144315476D02*
X121364390Y-144363095D01*
X121364390Y-144363095D02*
X121935819Y-144934523D01*
X121935819Y-144934523D02*
X121935819Y-144315476D01*
X120935819Y-143982142D02*
X120935819Y-143363095D01*
X120935819Y-143363095D02*
X121316771Y-143696428D01*
X121316771Y-143696428D02*
X121316771Y-143553571D01*
X121316771Y-143553571D02*
X121364390Y-143458333D01*
X121364390Y-143458333D02*
X121412009Y-143410714D01*
X121412009Y-143410714D02*
X121507247Y-143363095D01*
X121507247Y-143363095D02*
X121745342Y-143363095D01*
X121745342Y-143363095D02*
X121840580Y-143410714D01*
X121840580Y-143410714D02*
X121888200Y-143458333D01*
X121888200Y-143458333D02*
X121935819Y-143553571D01*
X121935819Y-143553571D02*
X121935819Y-143839285D01*
X121935819Y-143839285D02*
X121888200Y-143934523D01*
X121888200Y-143934523D02*
X121840580Y-143982142D01*
X126393142Y-133394580D02*
X126345523Y-133442200D01*
X126345523Y-133442200D02*
X126202666Y-133489819D01*
X126202666Y-133489819D02*
X126107428Y-133489819D01*
X126107428Y-133489819D02*
X125964571Y-133442200D01*
X125964571Y-133442200D02*
X125869333Y-133346961D01*
X125869333Y-133346961D02*
X125821714Y-133251723D01*
X125821714Y-133251723D02*
X125774095Y-133061247D01*
X125774095Y-133061247D02*
X125774095Y-132918390D01*
X125774095Y-132918390D02*
X125821714Y-132727914D01*
X125821714Y-132727914D02*
X125869333Y-132632676D01*
X125869333Y-132632676D02*
X125964571Y-132537438D01*
X125964571Y-132537438D02*
X126107428Y-132489819D01*
X126107428Y-132489819D02*
X126202666Y-132489819D01*
X126202666Y-132489819D02*
X126345523Y-132537438D01*
X126345523Y-132537438D02*
X126393142Y-132585057D01*
X127345523Y-133489819D02*
X126774095Y-133489819D01*
X127059809Y-133489819D02*
X127059809Y-132489819D01*
X127059809Y-132489819D02*
X126964571Y-132632676D01*
X126964571Y-132632676D02*
X126869333Y-132727914D01*
X126869333Y-132727914D02*
X126774095Y-132775533D01*
X128297904Y-133489819D02*
X127726476Y-133489819D01*
X128012190Y-133489819D02*
X128012190Y-132489819D01*
X128012190Y-132489819D02*
X127916952Y-132632676D01*
X127916952Y-132632676D02*
X127821714Y-132727914D01*
X127821714Y-132727914D02*
X127726476Y-132775533D01*
X91868580Y-134599857D02*
X91916200Y-134647476D01*
X91916200Y-134647476D02*
X91963819Y-134790333D01*
X91963819Y-134790333D02*
X91963819Y-134885571D01*
X91963819Y-134885571D02*
X91916200Y-135028428D01*
X91916200Y-135028428D02*
X91820961Y-135123666D01*
X91820961Y-135123666D02*
X91725723Y-135171285D01*
X91725723Y-135171285D02*
X91535247Y-135218904D01*
X91535247Y-135218904D02*
X91392390Y-135218904D01*
X91392390Y-135218904D02*
X91201914Y-135171285D01*
X91201914Y-135171285D02*
X91106676Y-135123666D01*
X91106676Y-135123666D02*
X91011438Y-135028428D01*
X91011438Y-135028428D02*
X90963819Y-134885571D01*
X90963819Y-134885571D02*
X90963819Y-134790333D01*
X90963819Y-134790333D02*
X91011438Y-134647476D01*
X91011438Y-134647476D02*
X91059057Y-134599857D01*
X91059057Y-134218904D02*
X91011438Y-134171285D01*
X91011438Y-134171285D02*
X90963819Y-134076047D01*
X90963819Y-134076047D02*
X90963819Y-133837952D01*
X90963819Y-133837952D02*
X91011438Y-133742714D01*
X91011438Y-133742714D02*
X91059057Y-133695095D01*
X91059057Y-133695095D02*
X91154295Y-133647476D01*
X91154295Y-133647476D02*
X91249533Y-133647476D01*
X91249533Y-133647476D02*
X91392390Y-133695095D01*
X91392390Y-133695095D02*
X91963819Y-134266523D01*
X91963819Y-134266523D02*
X91963819Y-133647476D01*
X90963819Y-132790333D02*
X90963819Y-132980809D01*
X90963819Y-132980809D02*
X91011438Y-133076047D01*
X91011438Y-133076047D02*
X91059057Y-133123666D01*
X91059057Y-133123666D02*
X91201914Y-133218904D01*
X91201914Y-133218904D02*
X91392390Y-133266523D01*
X91392390Y-133266523D02*
X91773342Y-133266523D01*
X91773342Y-133266523D02*
X91868580Y-133218904D01*
X91868580Y-133218904D02*
X91916200Y-133171285D01*
X91916200Y-133171285D02*
X91963819Y-133076047D01*
X91963819Y-133076047D02*
X91963819Y-132885571D01*
X91963819Y-132885571D02*
X91916200Y-132790333D01*
X91916200Y-132790333D02*
X91868580Y-132742714D01*
X91868580Y-132742714D02*
X91773342Y-132695095D01*
X91773342Y-132695095D02*
X91535247Y-132695095D01*
X91535247Y-132695095D02*
X91440009Y-132742714D01*
X91440009Y-132742714D02*
X91392390Y-132790333D01*
X91392390Y-132790333D02*
X91344771Y-132885571D01*
X91344771Y-132885571D02*
X91344771Y-133076047D01*
X91344771Y-133076047D02*
X91392390Y-133171285D01*
X91392390Y-133171285D02*
X91440009Y-133218904D01*
X91440009Y-133218904D02*
X91535247Y-133266523D01*
X120986819Y-135226904D02*
X121796342Y-135226904D01*
X121796342Y-135226904D02*
X121891580Y-135179285D01*
X121891580Y-135179285D02*
X121939200Y-135131666D01*
X121939200Y-135131666D02*
X121986819Y-135036428D01*
X121986819Y-135036428D02*
X121986819Y-134845952D01*
X121986819Y-134845952D02*
X121939200Y-134750714D01*
X121939200Y-134750714D02*
X121891580Y-134703095D01*
X121891580Y-134703095D02*
X121796342Y-134655476D01*
X121796342Y-134655476D02*
X120986819Y-134655476D01*
X121082057Y-134226904D02*
X121034438Y-134179285D01*
X121034438Y-134179285D02*
X120986819Y-134084047D01*
X120986819Y-134084047D02*
X120986819Y-133845952D01*
X120986819Y-133845952D02*
X121034438Y-133750714D01*
X121034438Y-133750714D02*
X121082057Y-133703095D01*
X121082057Y-133703095D02*
X121177295Y-133655476D01*
X121177295Y-133655476D02*
X121272533Y-133655476D01*
X121272533Y-133655476D02*
X121415390Y-133703095D01*
X121415390Y-133703095D02*
X121986819Y-134274523D01*
X121986819Y-134274523D02*
X121986819Y-133655476D01*
X50525819Y-128182666D02*
X50049628Y-128515999D01*
X50525819Y-128754094D02*
X49525819Y-128754094D01*
X49525819Y-128754094D02*
X49525819Y-128373142D01*
X49525819Y-128373142D02*
X49573438Y-128277904D01*
X49573438Y-128277904D02*
X49621057Y-128230285D01*
X49621057Y-128230285D02*
X49716295Y-128182666D01*
X49716295Y-128182666D02*
X49859152Y-128182666D01*
X49859152Y-128182666D02*
X49954390Y-128230285D01*
X49954390Y-128230285D02*
X50002009Y-128277904D01*
X50002009Y-128277904D02*
X50049628Y-128373142D01*
X50049628Y-128373142D02*
X50049628Y-128754094D01*
X49525819Y-127325523D02*
X49525819Y-127515999D01*
X49525819Y-127515999D02*
X49573438Y-127611237D01*
X49573438Y-127611237D02*
X49621057Y-127658856D01*
X49621057Y-127658856D02*
X49763914Y-127754094D01*
X49763914Y-127754094D02*
X49954390Y-127801713D01*
X49954390Y-127801713D02*
X50335342Y-127801713D01*
X50335342Y-127801713D02*
X50430580Y-127754094D01*
X50430580Y-127754094D02*
X50478200Y-127706475D01*
X50478200Y-127706475D02*
X50525819Y-127611237D01*
X50525819Y-127611237D02*
X50525819Y-127420761D01*
X50525819Y-127420761D02*
X50478200Y-127325523D01*
X50478200Y-127325523D02*
X50430580Y-127277904D01*
X50430580Y-127277904D02*
X50335342Y-127230285D01*
X50335342Y-127230285D02*
X50097247Y-127230285D01*
X50097247Y-127230285D02*
X50002009Y-127277904D01*
X50002009Y-127277904D02*
X49954390Y-127325523D01*
X49954390Y-127325523D02*
X49906771Y-127420761D01*
X49906771Y-127420761D02*
X49906771Y-127611237D01*
X49906771Y-127611237D02*
X49954390Y-127706475D01*
X49954390Y-127706475D02*
X50002009Y-127754094D01*
X50002009Y-127754094D02*
X50097247Y-127801713D01*
X95773819Y-145267857D02*
X95297628Y-145601190D01*
X95773819Y-145839285D02*
X94773819Y-145839285D01*
X94773819Y-145839285D02*
X94773819Y-145458333D01*
X94773819Y-145458333D02*
X94821438Y-145363095D01*
X94821438Y-145363095D02*
X94869057Y-145315476D01*
X94869057Y-145315476D02*
X94964295Y-145267857D01*
X94964295Y-145267857D02*
X95107152Y-145267857D01*
X95107152Y-145267857D02*
X95202390Y-145315476D01*
X95202390Y-145315476D02*
X95250009Y-145363095D01*
X95250009Y-145363095D02*
X95297628Y-145458333D01*
X95297628Y-145458333D02*
X95297628Y-145839285D01*
X94869057Y-144886904D02*
X94821438Y-144839285D01*
X94821438Y-144839285D02*
X94773819Y-144744047D01*
X94773819Y-144744047D02*
X94773819Y-144505952D01*
X94773819Y-144505952D02*
X94821438Y-144410714D01*
X94821438Y-144410714D02*
X94869057Y-144363095D01*
X94869057Y-144363095D02*
X94964295Y-144315476D01*
X94964295Y-144315476D02*
X95059533Y-144315476D01*
X95059533Y-144315476D02*
X95202390Y-144363095D01*
X95202390Y-144363095D02*
X95773819Y-144934523D01*
X95773819Y-144934523D02*
X95773819Y-144315476D01*
X94869057Y-143934523D02*
X94821438Y-143886904D01*
X94821438Y-143886904D02*
X94773819Y-143791666D01*
X94773819Y-143791666D02*
X94773819Y-143553571D01*
X94773819Y-143553571D02*
X94821438Y-143458333D01*
X94821438Y-143458333D02*
X94869057Y-143410714D01*
X94869057Y-143410714D02*
X94964295Y-143363095D01*
X94964295Y-143363095D02*
X95059533Y-143363095D01*
X95059533Y-143363095D02*
X95202390Y-143410714D01*
X95202390Y-143410714D02*
X95773819Y-143982142D01*
X95773819Y-143982142D02*
X95773819Y-143363095D01*
X118939809Y-125686628D02*
X118939809Y-126162819D01*
X118606476Y-125162819D02*
X118939809Y-125686628D01*
X118939809Y-125686628D02*
X119273142Y-125162819D01*
X120130285Y-126162819D02*
X119558857Y-126162819D01*
X119844571Y-126162819D02*
X119844571Y-125162819D01*
X119844571Y-125162819D02*
X119749333Y-125305676D01*
X119749333Y-125305676D02*
X119654095Y-125400914D01*
X119654095Y-125400914D02*
X119558857Y-125448533D01*
X143264200Y-127825332D02*
X143311819Y-127682475D01*
X143311819Y-127682475D02*
X143311819Y-127444380D01*
X143311819Y-127444380D02*
X143264200Y-127349142D01*
X143264200Y-127349142D02*
X143216580Y-127301523D01*
X143216580Y-127301523D02*
X143121342Y-127253904D01*
X143121342Y-127253904D02*
X143026104Y-127253904D01*
X143026104Y-127253904D02*
X142930866Y-127301523D01*
X142930866Y-127301523D02*
X142883247Y-127349142D01*
X142883247Y-127349142D02*
X142835628Y-127444380D01*
X142835628Y-127444380D02*
X142788009Y-127634856D01*
X142788009Y-127634856D02*
X142740390Y-127730094D01*
X142740390Y-127730094D02*
X142692771Y-127777713D01*
X142692771Y-127777713D02*
X142597533Y-127825332D01*
X142597533Y-127825332D02*
X142502295Y-127825332D01*
X142502295Y-127825332D02*
X142407057Y-127777713D01*
X142407057Y-127777713D02*
X142359438Y-127730094D01*
X142359438Y-127730094D02*
X142311819Y-127634856D01*
X142311819Y-127634856D02*
X142311819Y-127396761D01*
X142311819Y-127396761D02*
X142359438Y-127253904D01*
X142311819Y-126920570D02*
X143311819Y-126682475D01*
X143311819Y-126682475D02*
X142597533Y-126491999D01*
X142597533Y-126491999D02*
X143311819Y-126301523D01*
X143311819Y-126301523D02*
X142311819Y-126063428D01*
X143311819Y-125158666D02*
X143311819Y-125730094D01*
X143311819Y-125444380D02*
X142311819Y-125444380D01*
X142311819Y-125444380D02*
X142454676Y-125539618D01*
X142454676Y-125539618D02*
X142549914Y-125634856D01*
X142549914Y-125634856D02*
X142597533Y-125730094D01*
X106168333Y-141842580D02*
X106120714Y-141890200D01*
X106120714Y-141890200D02*
X105977857Y-141937819D01*
X105977857Y-141937819D02*
X105882619Y-141937819D01*
X105882619Y-141937819D02*
X105739762Y-141890200D01*
X105739762Y-141890200D02*
X105644524Y-141794961D01*
X105644524Y-141794961D02*
X105596905Y-141699723D01*
X105596905Y-141699723D02*
X105549286Y-141509247D01*
X105549286Y-141509247D02*
X105549286Y-141366390D01*
X105549286Y-141366390D02*
X105596905Y-141175914D01*
X105596905Y-141175914D02*
X105644524Y-141080676D01*
X105644524Y-141080676D02*
X105739762Y-140985438D01*
X105739762Y-140985438D02*
X105882619Y-140937819D01*
X105882619Y-140937819D02*
X105977857Y-140937819D01*
X105977857Y-140937819D02*
X106120714Y-140985438D01*
X106120714Y-140985438D02*
X106168333Y-141033057D01*
X106501667Y-140937819D02*
X107168333Y-140937819D01*
X107168333Y-140937819D02*
X106739762Y-141937819D01*
X90373819Y-134599857D02*
X89897628Y-134933190D01*
X90373819Y-135171285D02*
X89373819Y-135171285D01*
X89373819Y-135171285D02*
X89373819Y-134790333D01*
X89373819Y-134790333D02*
X89421438Y-134695095D01*
X89421438Y-134695095D02*
X89469057Y-134647476D01*
X89469057Y-134647476D02*
X89564295Y-134599857D01*
X89564295Y-134599857D02*
X89707152Y-134599857D01*
X89707152Y-134599857D02*
X89802390Y-134647476D01*
X89802390Y-134647476D02*
X89850009Y-134695095D01*
X89850009Y-134695095D02*
X89897628Y-134790333D01*
X89897628Y-134790333D02*
X89897628Y-135171285D01*
X90373819Y-133647476D02*
X90373819Y-134218904D01*
X90373819Y-133933190D02*
X89373819Y-133933190D01*
X89373819Y-133933190D02*
X89516676Y-134028428D01*
X89516676Y-134028428D02*
X89611914Y-134123666D01*
X89611914Y-134123666D02*
X89659533Y-134218904D01*
X89373819Y-132742714D02*
X89373819Y-133218904D01*
X89373819Y-133218904D02*
X89850009Y-133266523D01*
X89850009Y-133266523D02*
X89802390Y-133218904D01*
X89802390Y-133218904D02*
X89754771Y-133123666D01*
X89754771Y-133123666D02*
X89754771Y-132885571D01*
X89754771Y-132885571D02*
X89802390Y-132790333D01*
X89802390Y-132790333D02*
X89850009Y-132742714D01*
X89850009Y-132742714D02*
X89945247Y-132695095D01*
X89945247Y-132695095D02*
X90183342Y-132695095D01*
X90183342Y-132695095D02*
X90278580Y-132742714D01*
X90278580Y-132742714D02*
X90326200Y-132790333D01*
X90326200Y-132790333D02*
X90373819Y-132885571D01*
X90373819Y-132885571D02*
X90373819Y-133123666D01*
X90373819Y-133123666D02*
X90326200Y-133218904D01*
X90326200Y-133218904D02*
X90278580Y-133266523D01*
X50777819Y-143180333D02*
X51492104Y-143180333D01*
X51492104Y-143180333D02*
X51634961Y-143227952D01*
X51634961Y-143227952D02*
X51730200Y-143323190D01*
X51730200Y-143323190D02*
X51777819Y-143466047D01*
X51777819Y-143466047D02*
X51777819Y-143561285D01*
X50873057Y-142751761D02*
X50825438Y-142704142D01*
X50825438Y-142704142D02*
X50777819Y-142608904D01*
X50777819Y-142608904D02*
X50777819Y-142370809D01*
X50777819Y-142370809D02*
X50825438Y-142275571D01*
X50825438Y-142275571D02*
X50873057Y-142227952D01*
X50873057Y-142227952D02*
X50968295Y-142180333D01*
X50968295Y-142180333D02*
X51063533Y-142180333D01*
X51063533Y-142180333D02*
X51206390Y-142227952D01*
X51206390Y-142227952D02*
X51777819Y-142799380D01*
X51777819Y-142799380D02*
X51777819Y-142180333D01*
X121520580Y-145267857D02*
X121568200Y-145315476D01*
X121568200Y-145315476D02*
X121615819Y-145458333D01*
X121615819Y-145458333D02*
X121615819Y-145553571D01*
X121615819Y-145553571D02*
X121568200Y-145696428D01*
X121568200Y-145696428D02*
X121472961Y-145791666D01*
X121472961Y-145791666D02*
X121377723Y-145839285D01*
X121377723Y-145839285D02*
X121187247Y-145886904D01*
X121187247Y-145886904D02*
X121044390Y-145886904D01*
X121044390Y-145886904D02*
X120853914Y-145839285D01*
X120853914Y-145839285D02*
X120758676Y-145791666D01*
X120758676Y-145791666D02*
X120663438Y-145696428D01*
X120663438Y-145696428D02*
X120615819Y-145553571D01*
X120615819Y-145553571D02*
X120615819Y-145458333D01*
X120615819Y-145458333D02*
X120663438Y-145315476D01*
X120663438Y-145315476D02*
X120711057Y-145267857D01*
X121615819Y-144315476D02*
X121615819Y-144886904D01*
X121615819Y-144601190D02*
X120615819Y-144601190D01*
X120615819Y-144601190D02*
X120758676Y-144696428D01*
X120758676Y-144696428D02*
X120853914Y-144791666D01*
X120853914Y-144791666D02*
X120901533Y-144886904D01*
X120615819Y-143410714D02*
X120615819Y-143886904D01*
X120615819Y-143886904D02*
X121092009Y-143934523D01*
X121092009Y-143934523D02*
X121044390Y-143886904D01*
X121044390Y-143886904D02*
X120996771Y-143791666D01*
X120996771Y-143791666D02*
X120996771Y-143553571D01*
X120996771Y-143553571D02*
X121044390Y-143458333D01*
X121044390Y-143458333D02*
X121092009Y-143410714D01*
X121092009Y-143410714D02*
X121187247Y-143363095D01*
X121187247Y-143363095D02*
X121425342Y-143363095D01*
X121425342Y-143363095D02*
X121520580Y-143410714D01*
X121520580Y-143410714D02*
X121568200Y-143458333D01*
X121568200Y-143458333D02*
X121615819Y-143553571D01*
X121615819Y-143553571D02*
X121615819Y-143791666D01*
X121615819Y-143791666D02*
X121568200Y-143886904D01*
X121568200Y-143886904D02*
X121520580Y-143934523D01*
X110725580Y-130821666D02*
X110773200Y-130869285D01*
X110773200Y-130869285D02*
X110820819Y-131012142D01*
X110820819Y-131012142D02*
X110820819Y-131107380D01*
X110820819Y-131107380D02*
X110773200Y-131250237D01*
X110773200Y-131250237D02*
X110677961Y-131345475D01*
X110677961Y-131345475D02*
X110582723Y-131393094D01*
X110582723Y-131393094D02*
X110392247Y-131440713D01*
X110392247Y-131440713D02*
X110249390Y-131440713D01*
X110249390Y-131440713D02*
X110058914Y-131393094D01*
X110058914Y-131393094D02*
X109963676Y-131345475D01*
X109963676Y-131345475D02*
X109868438Y-131250237D01*
X109868438Y-131250237D02*
X109820819Y-131107380D01*
X109820819Y-131107380D02*
X109820819Y-131012142D01*
X109820819Y-131012142D02*
X109868438Y-130869285D01*
X109868438Y-130869285D02*
X109916057Y-130821666D01*
X110154152Y-129964523D02*
X110820819Y-129964523D01*
X109773200Y-130202618D02*
X110487485Y-130440713D01*
X110487485Y-130440713D02*
X110487485Y-129821666D01*
X106168333Y-138032580D02*
X106120714Y-138080200D01*
X106120714Y-138080200D02*
X105977857Y-138127819D01*
X105977857Y-138127819D02*
X105882619Y-138127819D01*
X105882619Y-138127819D02*
X105739762Y-138080200D01*
X105739762Y-138080200D02*
X105644524Y-137984961D01*
X105644524Y-137984961D02*
X105596905Y-137889723D01*
X105596905Y-137889723D02*
X105549286Y-137699247D01*
X105549286Y-137699247D02*
X105549286Y-137556390D01*
X105549286Y-137556390D02*
X105596905Y-137365914D01*
X105596905Y-137365914D02*
X105644524Y-137270676D01*
X105644524Y-137270676D02*
X105739762Y-137175438D01*
X105739762Y-137175438D02*
X105882619Y-137127819D01*
X105882619Y-137127819D02*
X105977857Y-137127819D01*
X105977857Y-137127819D02*
X106120714Y-137175438D01*
X106120714Y-137175438D02*
X106168333Y-137223057D01*
X107025476Y-137127819D02*
X106835000Y-137127819D01*
X106835000Y-137127819D02*
X106739762Y-137175438D01*
X106739762Y-137175438D02*
X106692143Y-137223057D01*
X106692143Y-137223057D02*
X106596905Y-137365914D01*
X106596905Y-137365914D02*
X106549286Y-137556390D01*
X106549286Y-137556390D02*
X106549286Y-137937342D01*
X106549286Y-137937342D02*
X106596905Y-138032580D01*
X106596905Y-138032580D02*
X106644524Y-138080200D01*
X106644524Y-138080200D02*
X106739762Y-138127819D01*
X106739762Y-138127819D02*
X106930238Y-138127819D01*
X106930238Y-138127819D02*
X107025476Y-138080200D01*
X107025476Y-138080200D02*
X107073095Y-138032580D01*
X107073095Y-138032580D02*
X107120714Y-137937342D01*
X107120714Y-137937342D02*
X107120714Y-137699247D01*
X107120714Y-137699247D02*
X107073095Y-137604009D01*
X107073095Y-137604009D02*
X107025476Y-137556390D01*
X107025476Y-137556390D02*
X106930238Y-137508771D01*
X106930238Y-137508771D02*
X106739762Y-137508771D01*
X106739762Y-137508771D02*
X106644524Y-137556390D01*
X106644524Y-137556390D02*
X106596905Y-137604009D01*
X106596905Y-137604009D02*
X106549286Y-137699247D01*
X103298580Y-145267857D02*
X103346200Y-145315476D01*
X103346200Y-145315476D02*
X103393819Y-145458333D01*
X103393819Y-145458333D02*
X103393819Y-145553571D01*
X103393819Y-145553571D02*
X103346200Y-145696428D01*
X103346200Y-145696428D02*
X103250961Y-145791666D01*
X103250961Y-145791666D02*
X103155723Y-145839285D01*
X103155723Y-145839285D02*
X102965247Y-145886904D01*
X102965247Y-145886904D02*
X102822390Y-145886904D01*
X102822390Y-145886904D02*
X102631914Y-145839285D01*
X102631914Y-145839285D02*
X102536676Y-145791666D01*
X102536676Y-145791666D02*
X102441438Y-145696428D01*
X102441438Y-145696428D02*
X102393819Y-145553571D01*
X102393819Y-145553571D02*
X102393819Y-145458333D01*
X102393819Y-145458333D02*
X102441438Y-145315476D01*
X102441438Y-145315476D02*
X102489057Y-145267857D01*
X102393819Y-144934523D02*
X102393819Y-144315476D01*
X102393819Y-144315476D02*
X102774771Y-144648809D01*
X102774771Y-144648809D02*
X102774771Y-144505952D01*
X102774771Y-144505952D02*
X102822390Y-144410714D01*
X102822390Y-144410714D02*
X102870009Y-144363095D01*
X102870009Y-144363095D02*
X102965247Y-144315476D01*
X102965247Y-144315476D02*
X103203342Y-144315476D01*
X103203342Y-144315476D02*
X103298580Y-144363095D01*
X103298580Y-144363095D02*
X103346200Y-144410714D01*
X103346200Y-144410714D02*
X103393819Y-144505952D01*
X103393819Y-144505952D02*
X103393819Y-144791666D01*
X103393819Y-144791666D02*
X103346200Y-144886904D01*
X103346200Y-144886904D02*
X103298580Y-144934523D01*
X102727152Y-143458333D02*
X103393819Y-143458333D01*
X102346200Y-143696428D02*
X103060485Y-143934523D01*
X103060485Y-143934523D02*
X103060485Y-143315476D01*
X71930095Y-98954819D02*
X72501523Y-98954819D01*
X72215809Y-99954819D02*
X72215809Y-98954819D01*
X72834857Y-99954819D02*
X72834857Y-98954819D01*
X72834857Y-98954819D02*
X73215809Y-98954819D01*
X73215809Y-98954819D02*
X73311047Y-99002438D01*
X73311047Y-99002438D02*
X73358666Y-99050057D01*
X73358666Y-99050057D02*
X73406285Y-99145295D01*
X73406285Y-99145295D02*
X73406285Y-99288152D01*
X73406285Y-99288152D02*
X73358666Y-99383390D01*
X73358666Y-99383390D02*
X73311047Y-99431009D01*
X73311047Y-99431009D02*
X73215809Y-99478628D01*
X73215809Y-99478628D02*
X72834857Y-99478628D01*
X73787238Y-99050057D02*
X73834857Y-99002438D01*
X73834857Y-99002438D02*
X73930095Y-98954819D01*
X73930095Y-98954819D02*
X74168190Y-98954819D01*
X74168190Y-98954819D02*
X74263428Y-99002438D01*
X74263428Y-99002438D02*
X74311047Y-99050057D01*
X74311047Y-99050057D02*
X74358666Y-99145295D01*
X74358666Y-99145295D02*
X74358666Y-99240533D01*
X74358666Y-99240533D02*
X74311047Y-99383390D01*
X74311047Y-99383390D02*
X73739619Y-99954819D01*
X73739619Y-99954819D02*
X74358666Y-99954819D01*
X128092819Y-144791666D02*
X127616628Y-145124999D01*
X128092819Y-145363094D02*
X127092819Y-145363094D01*
X127092819Y-145363094D02*
X127092819Y-144982142D01*
X127092819Y-144982142D02*
X127140438Y-144886904D01*
X127140438Y-144886904D02*
X127188057Y-144839285D01*
X127188057Y-144839285D02*
X127283295Y-144791666D01*
X127283295Y-144791666D02*
X127426152Y-144791666D01*
X127426152Y-144791666D02*
X127521390Y-144839285D01*
X127521390Y-144839285D02*
X127569009Y-144886904D01*
X127569009Y-144886904D02*
X127616628Y-144982142D01*
X127616628Y-144982142D02*
X127616628Y-145363094D01*
X127521390Y-144220237D02*
X127473771Y-144315475D01*
X127473771Y-144315475D02*
X127426152Y-144363094D01*
X127426152Y-144363094D02*
X127330914Y-144410713D01*
X127330914Y-144410713D02*
X127283295Y-144410713D01*
X127283295Y-144410713D02*
X127188057Y-144363094D01*
X127188057Y-144363094D02*
X127140438Y-144315475D01*
X127140438Y-144315475D02*
X127092819Y-144220237D01*
X127092819Y-144220237D02*
X127092819Y-144029761D01*
X127092819Y-144029761D02*
X127140438Y-143934523D01*
X127140438Y-143934523D02*
X127188057Y-143886904D01*
X127188057Y-143886904D02*
X127283295Y-143839285D01*
X127283295Y-143839285D02*
X127330914Y-143839285D01*
X127330914Y-143839285D02*
X127426152Y-143886904D01*
X127426152Y-143886904D02*
X127473771Y-143934523D01*
X127473771Y-143934523D02*
X127521390Y-144029761D01*
X127521390Y-144029761D02*
X127521390Y-144220237D01*
X127521390Y-144220237D02*
X127569009Y-144315475D01*
X127569009Y-144315475D02*
X127616628Y-144363094D01*
X127616628Y-144363094D02*
X127711866Y-144410713D01*
X127711866Y-144410713D02*
X127902342Y-144410713D01*
X127902342Y-144410713D02*
X127997580Y-144363094D01*
X127997580Y-144363094D02*
X128045200Y-144315475D01*
X128045200Y-144315475D02*
X128092819Y-144220237D01*
X128092819Y-144220237D02*
X128092819Y-144029761D01*
X128092819Y-144029761D02*
X128045200Y-143934523D01*
X128045200Y-143934523D02*
X127997580Y-143886904D01*
X127997580Y-143886904D02*
X127902342Y-143839285D01*
X127902342Y-143839285D02*
X127711866Y-143839285D01*
X127711866Y-143839285D02*
X127616628Y-143886904D01*
X127616628Y-143886904D02*
X127569009Y-143934523D01*
X127569009Y-143934523D02*
X127521390Y-144029761D01*
X97043819Y-131805857D02*
X96567628Y-132139190D01*
X97043819Y-132377285D02*
X96043819Y-132377285D01*
X96043819Y-132377285D02*
X96043819Y-131996333D01*
X96043819Y-131996333D02*
X96091438Y-131901095D01*
X96091438Y-131901095D02*
X96139057Y-131853476D01*
X96139057Y-131853476D02*
X96234295Y-131805857D01*
X96234295Y-131805857D02*
X96377152Y-131805857D01*
X96377152Y-131805857D02*
X96472390Y-131853476D01*
X96472390Y-131853476D02*
X96520009Y-131901095D01*
X96520009Y-131901095D02*
X96567628Y-131996333D01*
X96567628Y-131996333D02*
X96567628Y-132377285D01*
X97043819Y-130853476D02*
X97043819Y-131424904D01*
X97043819Y-131139190D02*
X96043819Y-131139190D01*
X96043819Y-131139190D02*
X96186676Y-131234428D01*
X96186676Y-131234428D02*
X96281914Y-131329666D01*
X96281914Y-131329666D02*
X96329533Y-131424904D01*
X96472390Y-130282047D02*
X96424771Y-130377285D01*
X96424771Y-130377285D02*
X96377152Y-130424904D01*
X96377152Y-130424904D02*
X96281914Y-130472523D01*
X96281914Y-130472523D02*
X96234295Y-130472523D01*
X96234295Y-130472523D02*
X96139057Y-130424904D01*
X96139057Y-130424904D02*
X96091438Y-130377285D01*
X96091438Y-130377285D02*
X96043819Y-130282047D01*
X96043819Y-130282047D02*
X96043819Y-130091571D01*
X96043819Y-130091571D02*
X96091438Y-129996333D01*
X96091438Y-129996333D02*
X96139057Y-129948714D01*
X96139057Y-129948714D02*
X96234295Y-129901095D01*
X96234295Y-129901095D02*
X96281914Y-129901095D01*
X96281914Y-129901095D02*
X96377152Y-129948714D01*
X96377152Y-129948714D02*
X96424771Y-129996333D01*
X96424771Y-129996333D02*
X96472390Y-130091571D01*
X96472390Y-130091571D02*
X96472390Y-130282047D01*
X96472390Y-130282047D02*
X96520009Y-130377285D01*
X96520009Y-130377285D02*
X96567628Y-130424904D01*
X96567628Y-130424904D02*
X96662866Y-130472523D01*
X96662866Y-130472523D02*
X96853342Y-130472523D01*
X96853342Y-130472523D02*
X96948580Y-130424904D01*
X96948580Y-130424904D02*
X96996200Y-130377285D01*
X96996200Y-130377285D02*
X97043819Y-130282047D01*
X97043819Y-130282047D02*
X97043819Y-130091571D01*
X97043819Y-130091571D02*
X96996200Y-129996333D01*
X96996200Y-129996333D02*
X96948580Y-129948714D01*
X96948580Y-129948714D02*
X96853342Y-129901095D01*
X96853342Y-129901095D02*
X96662866Y-129901095D01*
X96662866Y-129901095D02*
X96567628Y-129948714D01*
X96567628Y-129948714D02*
X96520009Y-129996333D01*
X96520009Y-129996333D02*
X96472390Y-130091571D01*
X119630333Y-137045819D02*
X119297000Y-136569628D01*
X119058905Y-137045819D02*
X119058905Y-136045819D01*
X119058905Y-136045819D02*
X119439857Y-136045819D01*
X119439857Y-136045819D02*
X119535095Y-136093438D01*
X119535095Y-136093438D02*
X119582714Y-136141057D01*
X119582714Y-136141057D02*
X119630333Y-136236295D01*
X119630333Y-136236295D02*
X119630333Y-136379152D01*
X119630333Y-136379152D02*
X119582714Y-136474390D01*
X119582714Y-136474390D02*
X119535095Y-136522009D01*
X119535095Y-136522009D02*
X119439857Y-136569628D01*
X119439857Y-136569628D02*
X119058905Y-136569628D01*
X120582714Y-137045819D02*
X120011286Y-137045819D01*
X120297000Y-137045819D02*
X120297000Y-136045819D01*
X120297000Y-136045819D02*
X120201762Y-136188676D01*
X120201762Y-136188676D02*
X120106524Y-136283914D01*
X120106524Y-136283914D02*
X120011286Y-136331533D01*
X81930095Y-98954819D02*
X82501523Y-98954819D01*
X82215809Y-99954819D02*
X82215809Y-98954819D01*
X82834857Y-99954819D02*
X82834857Y-98954819D01*
X82834857Y-98954819D02*
X83215809Y-98954819D01*
X83215809Y-98954819D02*
X83311047Y-99002438D01*
X83311047Y-99002438D02*
X83358666Y-99050057D01*
X83358666Y-99050057D02*
X83406285Y-99145295D01*
X83406285Y-99145295D02*
X83406285Y-99288152D01*
X83406285Y-99288152D02*
X83358666Y-99383390D01*
X83358666Y-99383390D02*
X83311047Y-99431009D01*
X83311047Y-99431009D02*
X83215809Y-99478628D01*
X83215809Y-99478628D02*
X82834857Y-99478628D01*
X83739619Y-98954819D02*
X84358666Y-98954819D01*
X84358666Y-98954819D02*
X84025333Y-99335771D01*
X84025333Y-99335771D02*
X84168190Y-99335771D01*
X84168190Y-99335771D02*
X84263428Y-99383390D01*
X84263428Y-99383390D02*
X84311047Y-99431009D01*
X84311047Y-99431009D02*
X84358666Y-99526247D01*
X84358666Y-99526247D02*
X84358666Y-99764342D01*
X84358666Y-99764342D02*
X84311047Y-99859580D01*
X84311047Y-99859580D02*
X84263428Y-99907200D01*
X84263428Y-99907200D02*
X84168190Y-99954819D01*
X84168190Y-99954819D02*
X83882476Y-99954819D01*
X83882476Y-99954819D02*
X83787238Y-99907200D01*
X83787238Y-99907200D02*
X83739619Y-99859580D01*
X119630333Y-134759819D02*
X119297000Y-134283628D01*
X119058905Y-134759819D02*
X119058905Y-133759819D01*
X119058905Y-133759819D02*
X119439857Y-133759819D01*
X119439857Y-133759819D02*
X119535095Y-133807438D01*
X119535095Y-133807438D02*
X119582714Y-133855057D01*
X119582714Y-133855057D02*
X119630333Y-133950295D01*
X119630333Y-133950295D02*
X119630333Y-134093152D01*
X119630333Y-134093152D02*
X119582714Y-134188390D01*
X119582714Y-134188390D02*
X119535095Y-134236009D01*
X119535095Y-134236009D02*
X119439857Y-134283628D01*
X119439857Y-134283628D02*
X119058905Y-134283628D01*
X119963667Y-133759819D02*
X120582714Y-133759819D01*
X120582714Y-133759819D02*
X120249381Y-134140771D01*
X120249381Y-134140771D02*
X120392238Y-134140771D01*
X120392238Y-134140771D02*
X120487476Y-134188390D01*
X120487476Y-134188390D02*
X120535095Y-134236009D01*
X120535095Y-134236009D02*
X120582714Y-134331247D01*
X120582714Y-134331247D02*
X120582714Y-134569342D01*
X120582714Y-134569342D02*
X120535095Y-134664580D01*
X120535095Y-134664580D02*
X120487476Y-134712200D01*
X120487476Y-134712200D02*
X120392238Y-134759819D01*
X120392238Y-134759819D02*
X120106524Y-134759819D01*
X120106524Y-134759819D02*
X120011286Y-134712200D01*
X120011286Y-134712200D02*
X119963667Y-134664580D01*
X93233819Y-145267857D02*
X92757628Y-145601190D01*
X93233819Y-145839285D02*
X92233819Y-145839285D01*
X92233819Y-145839285D02*
X92233819Y-145458333D01*
X92233819Y-145458333D02*
X92281438Y-145363095D01*
X92281438Y-145363095D02*
X92329057Y-145315476D01*
X92329057Y-145315476D02*
X92424295Y-145267857D01*
X92424295Y-145267857D02*
X92567152Y-145267857D01*
X92567152Y-145267857D02*
X92662390Y-145315476D01*
X92662390Y-145315476D02*
X92710009Y-145363095D01*
X92710009Y-145363095D02*
X92757628Y-145458333D01*
X92757628Y-145458333D02*
X92757628Y-145839285D01*
X93233819Y-144315476D02*
X93233819Y-144886904D01*
X93233819Y-144601190D02*
X92233819Y-144601190D01*
X92233819Y-144601190D02*
X92376676Y-144696428D01*
X92376676Y-144696428D02*
X92471914Y-144791666D01*
X92471914Y-144791666D02*
X92519533Y-144886904D01*
X93233819Y-143363095D02*
X93233819Y-143934523D01*
X93233819Y-143648809D02*
X92233819Y-143648809D01*
X92233819Y-143648809D02*
X92376676Y-143744047D01*
X92376676Y-143744047D02*
X92471914Y-143839285D01*
X92471914Y-143839285D02*
X92519533Y-143934523D01*
X85039819Y-134123666D02*
X84563628Y-134456999D01*
X85039819Y-134695094D02*
X84039819Y-134695094D01*
X84039819Y-134695094D02*
X84039819Y-134314142D01*
X84039819Y-134314142D02*
X84087438Y-134218904D01*
X84087438Y-134218904D02*
X84135057Y-134171285D01*
X84135057Y-134171285D02*
X84230295Y-134123666D01*
X84230295Y-134123666D02*
X84373152Y-134123666D01*
X84373152Y-134123666D02*
X84468390Y-134171285D01*
X84468390Y-134171285D02*
X84516009Y-134218904D01*
X84516009Y-134218904D02*
X84563628Y-134314142D01*
X84563628Y-134314142D02*
X84563628Y-134695094D01*
X85039819Y-133647475D02*
X85039819Y-133456999D01*
X85039819Y-133456999D02*
X84992200Y-133361761D01*
X84992200Y-133361761D02*
X84944580Y-133314142D01*
X84944580Y-133314142D02*
X84801723Y-133218904D01*
X84801723Y-133218904D02*
X84611247Y-133171285D01*
X84611247Y-133171285D02*
X84230295Y-133171285D01*
X84230295Y-133171285D02*
X84135057Y-133218904D01*
X84135057Y-133218904D02*
X84087438Y-133266523D01*
X84087438Y-133266523D02*
X84039819Y-133361761D01*
X84039819Y-133361761D02*
X84039819Y-133552237D01*
X84039819Y-133552237D02*
X84087438Y-133647475D01*
X84087438Y-133647475D02*
X84135057Y-133695094D01*
X84135057Y-133695094D02*
X84230295Y-133742713D01*
X84230295Y-133742713D02*
X84468390Y-133742713D01*
X84468390Y-133742713D02*
X84563628Y-133695094D01*
X84563628Y-133695094D02*
X84611247Y-133647475D01*
X84611247Y-133647475D02*
X84658866Y-133552237D01*
X84658866Y-133552237D02*
X84658866Y-133361761D01*
X84658866Y-133361761D02*
X84611247Y-133266523D01*
X84611247Y-133266523D02*
X84563628Y-133218904D01*
X84563628Y-133218904D02*
X84468390Y-133171285D01*
X47701819Y-128777904D02*
X48511342Y-128777904D01*
X48511342Y-128777904D02*
X48606580Y-128730285D01*
X48606580Y-128730285D02*
X48654200Y-128682666D01*
X48654200Y-128682666D02*
X48701819Y-128587428D01*
X48701819Y-128587428D02*
X48701819Y-128396952D01*
X48701819Y-128396952D02*
X48654200Y-128301714D01*
X48654200Y-128301714D02*
X48606580Y-128254095D01*
X48606580Y-128254095D02*
X48511342Y-128206476D01*
X48511342Y-128206476D02*
X47701819Y-128206476D01*
X47701819Y-127825523D02*
X47701819Y-127158857D01*
X47701819Y-127158857D02*
X48701819Y-127587428D01*
X105692142Y-137712580D02*
X105644523Y-137760200D01*
X105644523Y-137760200D02*
X105501666Y-137807819D01*
X105501666Y-137807819D02*
X105406428Y-137807819D01*
X105406428Y-137807819D02*
X105263571Y-137760200D01*
X105263571Y-137760200D02*
X105168333Y-137664961D01*
X105168333Y-137664961D02*
X105120714Y-137569723D01*
X105120714Y-137569723D02*
X105073095Y-137379247D01*
X105073095Y-137379247D02*
X105073095Y-137236390D01*
X105073095Y-137236390D02*
X105120714Y-137045914D01*
X105120714Y-137045914D02*
X105168333Y-136950676D01*
X105168333Y-136950676D02*
X105263571Y-136855438D01*
X105263571Y-136855438D02*
X105406428Y-136807819D01*
X105406428Y-136807819D02*
X105501666Y-136807819D01*
X105501666Y-136807819D02*
X105644523Y-136855438D01*
X105644523Y-136855438D02*
X105692142Y-136903057D01*
X106549285Y-137141152D02*
X106549285Y-137807819D01*
X106311190Y-136760200D02*
X106073095Y-137474485D01*
X106073095Y-137474485D02*
X106692142Y-137474485D01*
X107263571Y-136807819D02*
X107358809Y-136807819D01*
X107358809Y-136807819D02*
X107454047Y-136855438D01*
X107454047Y-136855438D02*
X107501666Y-136903057D01*
X107501666Y-136903057D02*
X107549285Y-136998295D01*
X107549285Y-136998295D02*
X107596904Y-137188771D01*
X107596904Y-137188771D02*
X107596904Y-137426866D01*
X107596904Y-137426866D02*
X107549285Y-137617342D01*
X107549285Y-137617342D02*
X107501666Y-137712580D01*
X107501666Y-137712580D02*
X107454047Y-137760200D01*
X107454047Y-137760200D02*
X107358809Y-137807819D01*
X107358809Y-137807819D02*
X107263571Y-137807819D01*
X107263571Y-137807819D02*
X107168333Y-137760200D01*
X107168333Y-137760200D02*
X107120714Y-137712580D01*
X107120714Y-137712580D02*
X107073095Y-137617342D01*
X107073095Y-137617342D02*
X107025476Y-137426866D01*
X107025476Y-137426866D02*
X107025476Y-137188771D01*
X107025476Y-137188771D02*
X107073095Y-136998295D01*
X107073095Y-136998295D02*
X107120714Y-136903057D01*
X107120714Y-136903057D02*
X107168333Y-136855438D01*
X107168333Y-136855438D02*
X107263571Y-136807819D01*
X80975819Y-134599857D02*
X80499628Y-134933190D01*
X80975819Y-135171285D02*
X79975819Y-135171285D01*
X79975819Y-135171285D02*
X79975819Y-134790333D01*
X79975819Y-134790333D02*
X80023438Y-134695095D01*
X80023438Y-134695095D02*
X80071057Y-134647476D01*
X80071057Y-134647476D02*
X80166295Y-134599857D01*
X80166295Y-134599857D02*
X80309152Y-134599857D01*
X80309152Y-134599857D02*
X80404390Y-134647476D01*
X80404390Y-134647476D02*
X80452009Y-134695095D01*
X80452009Y-134695095D02*
X80499628Y-134790333D01*
X80499628Y-134790333D02*
X80499628Y-135171285D01*
X80975819Y-133647476D02*
X80975819Y-134218904D01*
X80975819Y-133933190D02*
X79975819Y-133933190D01*
X79975819Y-133933190D02*
X80118676Y-134028428D01*
X80118676Y-134028428D02*
X80213914Y-134123666D01*
X80213914Y-134123666D02*
X80261533Y-134218904D01*
X79975819Y-133028428D02*
X79975819Y-132933190D01*
X79975819Y-132933190D02*
X80023438Y-132837952D01*
X80023438Y-132837952D02*
X80071057Y-132790333D01*
X80071057Y-132790333D02*
X80166295Y-132742714D01*
X80166295Y-132742714D02*
X80356771Y-132695095D01*
X80356771Y-132695095D02*
X80594866Y-132695095D01*
X80594866Y-132695095D02*
X80785342Y-132742714D01*
X80785342Y-132742714D02*
X80880580Y-132790333D01*
X80880580Y-132790333D02*
X80928200Y-132837952D01*
X80928200Y-132837952D02*
X80975819Y-132933190D01*
X80975819Y-132933190D02*
X80975819Y-133028428D01*
X80975819Y-133028428D02*
X80928200Y-133123666D01*
X80928200Y-133123666D02*
X80880580Y-133171285D01*
X80880580Y-133171285D02*
X80785342Y-133218904D01*
X80785342Y-133218904D02*
X80594866Y-133266523D01*
X80594866Y-133266523D02*
X80356771Y-133266523D01*
X80356771Y-133266523D02*
X80166295Y-133218904D01*
X80166295Y-133218904D02*
X80071057Y-133171285D01*
X80071057Y-133171285D02*
X80023438Y-133123666D01*
X80023438Y-133123666D02*
X79975819Y-133028428D01*
X109201580Y-145267857D02*
X109249200Y-145315476D01*
X109249200Y-145315476D02*
X109296819Y-145458333D01*
X109296819Y-145458333D02*
X109296819Y-145553571D01*
X109296819Y-145553571D02*
X109249200Y-145696428D01*
X109249200Y-145696428D02*
X109153961Y-145791666D01*
X109153961Y-145791666D02*
X109058723Y-145839285D01*
X109058723Y-145839285D02*
X108868247Y-145886904D01*
X108868247Y-145886904D02*
X108725390Y-145886904D01*
X108725390Y-145886904D02*
X108534914Y-145839285D01*
X108534914Y-145839285D02*
X108439676Y-145791666D01*
X108439676Y-145791666D02*
X108344438Y-145696428D01*
X108344438Y-145696428D02*
X108296819Y-145553571D01*
X108296819Y-145553571D02*
X108296819Y-145458333D01*
X108296819Y-145458333D02*
X108344438Y-145315476D01*
X108344438Y-145315476D02*
X108392057Y-145267857D01*
X108296819Y-144934523D02*
X108296819Y-144315476D01*
X108296819Y-144315476D02*
X108677771Y-144648809D01*
X108677771Y-144648809D02*
X108677771Y-144505952D01*
X108677771Y-144505952D02*
X108725390Y-144410714D01*
X108725390Y-144410714D02*
X108773009Y-144363095D01*
X108773009Y-144363095D02*
X108868247Y-144315476D01*
X108868247Y-144315476D02*
X109106342Y-144315476D01*
X109106342Y-144315476D02*
X109201580Y-144363095D01*
X109201580Y-144363095D02*
X109249200Y-144410714D01*
X109249200Y-144410714D02*
X109296819Y-144505952D01*
X109296819Y-144505952D02*
X109296819Y-144791666D01*
X109296819Y-144791666D02*
X109249200Y-144886904D01*
X109249200Y-144886904D02*
X109201580Y-144934523D01*
X108296819Y-143410714D02*
X108296819Y-143886904D01*
X108296819Y-143886904D02*
X108773009Y-143934523D01*
X108773009Y-143934523D02*
X108725390Y-143886904D01*
X108725390Y-143886904D02*
X108677771Y-143791666D01*
X108677771Y-143791666D02*
X108677771Y-143553571D01*
X108677771Y-143553571D02*
X108725390Y-143458333D01*
X108725390Y-143458333D02*
X108773009Y-143410714D01*
X108773009Y-143410714D02*
X108868247Y-143363095D01*
X108868247Y-143363095D02*
X109106342Y-143363095D01*
X109106342Y-143363095D02*
X109201580Y-143410714D01*
X109201580Y-143410714D02*
X109249200Y-143458333D01*
X109249200Y-143458333D02*
X109296819Y-143553571D01*
X109296819Y-143553571D02*
X109296819Y-143791666D01*
X109296819Y-143791666D02*
X109249200Y-143886904D01*
X109249200Y-143886904D02*
X109201580Y-143934523D01*
X126869333Y-134984580D02*
X126821714Y-135032200D01*
X126821714Y-135032200D02*
X126678857Y-135079819D01*
X126678857Y-135079819D02*
X126583619Y-135079819D01*
X126583619Y-135079819D02*
X126440762Y-135032200D01*
X126440762Y-135032200D02*
X126345524Y-134936961D01*
X126345524Y-134936961D02*
X126297905Y-134841723D01*
X126297905Y-134841723D02*
X126250286Y-134651247D01*
X126250286Y-134651247D02*
X126250286Y-134508390D01*
X126250286Y-134508390D02*
X126297905Y-134317914D01*
X126297905Y-134317914D02*
X126345524Y-134222676D01*
X126345524Y-134222676D02*
X126440762Y-134127438D01*
X126440762Y-134127438D02*
X126583619Y-134079819D01*
X126583619Y-134079819D02*
X126678857Y-134079819D01*
X126678857Y-134079819D02*
X126821714Y-134127438D01*
X126821714Y-134127438D02*
X126869333Y-134175057D01*
X127250286Y-134175057D02*
X127297905Y-134127438D01*
X127297905Y-134127438D02*
X127393143Y-134079819D01*
X127393143Y-134079819D02*
X127631238Y-134079819D01*
X127631238Y-134079819D02*
X127726476Y-134127438D01*
X127726476Y-134127438D02*
X127774095Y-134175057D01*
X127774095Y-134175057D02*
X127821714Y-134270295D01*
X127821714Y-134270295D02*
X127821714Y-134365533D01*
X127821714Y-134365533D02*
X127774095Y-134508390D01*
X127774095Y-134508390D02*
X127202667Y-135079819D01*
X127202667Y-135079819D02*
X127821714Y-135079819D01*
X95358580Y-145267857D02*
X95406200Y-145315476D01*
X95406200Y-145315476D02*
X95453819Y-145458333D01*
X95453819Y-145458333D02*
X95453819Y-145553571D01*
X95453819Y-145553571D02*
X95406200Y-145696428D01*
X95406200Y-145696428D02*
X95310961Y-145791666D01*
X95310961Y-145791666D02*
X95215723Y-145839285D01*
X95215723Y-145839285D02*
X95025247Y-145886904D01*
X95025247Y-145886904D02*
X94882390Y-145886904D01*
X94882390Y-145886904D02*
X94691914Y-145839285D01*
X94691914Y-145839285D02*
X94596676Y-145791666D01*
X94596676Y-145791666D02*
X94501438Y-145696428D01*
X94501438Y-145696428D02*
X94453819Y-145553571D01*
X94453819Y-145553571D02*
X94453819Y-145458333D01*
X94453819Y-145458333D02*
X94501438Y-145315476D01*
X94501438Y-145315476D02*
X94549057Y-145267857D01*
X94453819Y-144934523D02*
X94453819Y-144315476D01*
X94453819Y-144315476D02*
X94834771Y-144648809D01*
X94834771Y-144648809D02*
X94834771Y-144505952D01*
X94834771Y-144505952D02*
X94882390Y-144410714D01*
X94882390Y-144410714D02*
X94930009Y-144363095D01*
X94930009Y-144363095D02*
X95025247Y-144315476D01*
X95025247Y-144315476D02*
X95263342Y-144315476D01*
X95263342Y-144315476D02*
X95358580Y-144363095D01*
X95358580Y-144363095D02*
X95406200Y-144410714D01*
X95406200Y-144410714D02*
X95453819Y-144505952D01*
X95453819Y-144505952D02*
X95453819Y-144791666D01*
X95453819Y-144791666D02*
X95406200Y-144886904D01*
X95406200Y-144886904D02*
X95358580Y-144934523D01*
X94453819Y-143696428D02*
X94453819Y-143601190D01*
X94453819Y-143601190D02*
X94501438Y-143505952D01*
X94501438Y-143505952D02*
X94549057Y-143458333D01*
X94549057Y-143458333D02*
X94644295Y-143410714D01*
X94644295Y-143410714D02*
X94834771Y-143363095D01*
X94834771Y-143363095D02*
X95072866Y-143363095D01*
X95072866Y-143363095D02*
X95263342Y-143410714D01*
X95263342Y-143410714D02*
X95358580Y-143458333D01*
X95358580Y-143458333D02*
X95406200Y-143505952D01*
X95406200Y-143505952D02*
X95453819Y-143601190D01*
X95453819Y-143601190D02*
X95453819Y-143696428D01*
X95453819Y-143696428D02*
X95406200Y-143791666D01*
X95406200Y-143791666D02*
X95358580Y-143839285D01*
X95358580Y-143839285D02*
X95263342Y-143886904D01*
X95263342Y-143886904D02*
X95072866Y-143934523D01*
X95072866Y-143934523D02*
X94834771Y-143934523D01*
X94834771Y-143934523D02*
X94644295Y-143886904D01*
X94644295Y-143886904D02*
X94549057Y-143839285D01*
X94549057Y-143839285D02*
X94501438Y-143791666D01*
X94501438Y-143791666D02*
X94453819Y-143696428D01*
X87833819Y-145267857D02*
X87357628Y-145601190D01*
X87833819Y-145839285D02*
X86833819Y-145839285D01*
X86833819Y-145839285D02*
X86833819Y-145458333D01*
X86833819Y-145458333D02*
X86881438Y-145363095D01*
X86881438Y-145363095D02*
X86929057Y-145315476D01*
X86929057Y-145315476D02*
X87024295Y-145267857D01*
X87024295Y-145267857D02*
X87167152Y-145267857D01*
X87167152Y-145267857D02*
X87262390Y-145315476D01*
X87262390Y-145315476D02*
X87310009Y-145363095D01*
X87310009Y-145363095D02*
X87357628Y-145458333D01*
X87357628Y-145458333D02*
X87357628Y-145839285D01*
X87833819Y-144315476D02*
X87833819Y-144886904D01*
X87833819Y-144601190D02*
X86833819Y-144601190D01*
X86833819Y-144601190D02*
X86976676Y-144696428D01*
X86976676Y-144696428D02*
X87071914Y-144791666D01*
X87071914Y-144791666D02*
X87119533Y-144886904D01*
X86833819Y-143982142D02*
X86833819Y-143363095D01*
X86833819Y-143363095D02*
X87214771Y-143696428D01*
X87214771Y-143696428D02*
X87214771Y-143553571D01*
X87214771Y-143553571D02*
X87262390Y-143458333D01*
X87262390Y-143458333D02*
X87310009Y-143410714D01*
X87310009Y-143410714D02*
X87405247Y-143363095D01*
X87405247Y-143363095D02*
X87643342Y-143363095D01*
X87643342Y-143363095D02*
X87738580Y-143410714D01*
X87738580Y-143410714D02*
X87786200Y-143458333D01*
X87786200Y-143458333D02*
X87833819Y-143553571D01*
X87833819Y-143553571D02*
X87833819Y-143839285D01*
X87833819Y-143839285D02*
X87786200Y-143934523D01*
X87786200Y-143934523D02*
X87738580Y-143982142D01*
X83244905Y-128243819D02*
X83244905Y-127243819D01*
X83244905Y-127243819D02*
X83483000Y-127243819D01*
X83483000Y-127243819D02*
X83625857Y-127291438D01*
X83625857Y-127291438D02*
X83721095Y-127386676D01*
X83721095Y-127386676D02*
X83768714Y-127481914D01*
X83768714Y-127481914D02*
X83816333Y-127672390D01*
X83816333Y-127672390D02*
X83816333Y-127815247D01*
X83816333Y-127815247D02*
X83768714Y-128005723D01*
X83768714Y-128005723D02*
X83721095Y-128100961D01*
X83721095Y-128100961D02*
X83625857Y-128196200D01*
X83625857Y-128196200D02*
X83483000Y-128243819D01*
X83483000Y-128243819D02*
X83244905Y-128243819D01*
X84149667Y-127243819D02*
X84816333Y-127243819D01*
X84816333Y-127243819D02*
X84387762Y-128243819D01*
X89074580Y-134599857D02*
X89122200Y-134647476D01*
X89122200Y-134647476D02*
X89169819Y-134790333D01*
X89169819Y-134790333D02*
X89169819Y-134885571D01*
X89169819Y-134885571D02*
X89122200Y-135028428D01*
X89122200Y-135028428D02*
X89026961Y-135123666D01*
X89026961Y-135123666D02*
X88931723Y-135171285D01*
X88931723Y-135171285D02*
X88741247Y-135218904D01*
X88741247Y-135218904D02*
X88598390Y-135218904D01*
X88598390Y-135218904D02*
X88407914Y-135171285D01*
X88407914Y-135171285D02*
X88312676Y-135123666D01*
X88312676Y-135123666D02*
X88217438Y-135028428D01*
X88217438Y-135028428D02*
X88169819Y-134885571D01*
X88169819Y-134885571D02*
X88169819Y-134790333D01*
X88169819Y-134790333D02*
X88217438Y-134647476D01*
X88217438Y-134647476D02*
X88265057Y-134599857D01*
X88265057Y-134218904D02*
X88217438Y-134171285D01*
X88217438Y-134171285D02*
X88169819Y-134076047D01*
X88169819Y-134076047D02*
X88169819Y-133837952D01*
X88169819Y-133837952D02*
X88217438Y-133742714D01*
X88217438Y-133742714D02*
X88265057Y-133695095D01*
X88265057Y-133695095D02*
X88360295Y-133647476D01*
X88360295Y-133647476D02*
X88455533Y-133647476D01*
X88455533Y-133647476D02*
X88598390Y-133695095D01*
X88598390Y-133695095D02*
X89169819Y-134266523D01*
X89169819Y-134266523D02*
X89169819Y-133647476D01*
X88169819Y-133028428D02*
X88169819Y-132933190D01*
X88169819Y-132933190D02*
X88217438Y-132837952D01*
X88217438Y-132837952D02*
X88265057Y-132790333D01*
X88265057Y-132790333D02*
X88360295Y-132742714D01*
X88360295Y-132742714D02*
X88550771Y-132695095D01*
X88550771Y-132695095D02*
X88788866Y-132695095D01*
X88788866Y-132695095D02*
X88979342Y-132742714D01*
X88979342Y-132742714D02*
X89074580Y-132790333D01*
X89074580Y-132790333D02*
X89122200Y-132837952D01*
X89122200Y-132837952D02*
X89169819Y-132933190D01*
X89169819Y-132933190D02*
X89169819Y-133028428D01*
X89169819Y-133028428D02*
X89122200Y-133123666D01*
X89122200Y-133123666D02*
X89074580Y-133171285D01*
X89074580Y-133171285D02*
X88979342Y-133218904D01*
X88979342Y-133218904D02*
X88788866Y-133266523D01*
X88788866Y-133266523D02*
X88550771Y-133266523D01*
X88550771Y-133266523D02*
X88360295Y-133218904D01*
X88360295Y-133218904D02*
X88265057Y-133171285D01*
X88265057Y-133171285D02*
X88217438Y-133123666D01*
X88217438Y-133123666D02*
X88169819Y-133028428D01*
X90693819Y-131805857D02*
X90217628Y-132139190D01*
X90693819Y-132377285D02*
X89693819Y-132377285D01*
X89693819Y-132377285D02*
X89693819Y-131996333D01*
X89693819Y-131996333D02*
X89741438Y-131901095D01*
X89741438Y-131901095D02*
X89789057Y-131853476D01*
X89789057Y-131853476D02*
X89884295Y-131805857D01*
X89884295Y-131805857D02*
X90027152Y-131805857D01*
X90027152Y-131805857D02*
X90122390Y-131853476D01*
X90122390Y-131853476D02*
X90170009Y-131901095D01*
X90170009Y-131901095D02*
X90217628Y-131996333D01*
X90217628Y-131996333D02*
X90217628Y-132377285D01*
X90693819Y-130853476D02*
X90693819Y-131424904D01*
X90693819Y-131139190D02*
X89693819Y-131139190D01*
X89693819Y-131139190D02*
X89836676Y-131234428D01*
X89836676Y-131234428D02*
X89931914Y-131329666D01*
X89931914Y-131329666D02*
X89979533Y-131424904D01*
X90027152Y-129996333D02*
X90693819Y-129996333D01*
X89646200Y-130234428D02*
X90360485Y-130472523D01*
X90360485Y-130472523D02*
X90360485Y-129853476D01*
X98313819Y-131805857D02*
X97837628Y-132139190D01*
X98313819Y-132377285D02*
X97313819Y-132377285D01*
X97313819Y-132377285D02*
X97313819Y-131996333D01*
X97313819Y-131996333D02*
X97361438Y-131901095D01*
X97361438Y-131901095D02*
X97409057Y-131853476D01*
X97409057Y-131853476D02*
X97504295Y-131805857D01*
X97504295Y-131805857D02*
X97647152Y-131805857D01*
X97647152Y-131805857D02*
X97742390Y-131853476D01*
X97742390Y-131853476D02*
X97790009Y-131901095D01*
X97790009Y-131901095D02*
X97837628Y-131996333D01*
X97837628Y-131996333D02*
X97837628Y-132377285D01*
X98313819Y-130853476D02*
X98313819Y-131424904D01*
X98313819Y-131139190D02*
X97313819Y-131139190D01*
X97313819Y-131139190D02*
X97456676Y-131234428D01*
X97456676Y-131234428D02*
X97551914Y-131329666D01*
X97551914Y-131329666D02*
X97599533Y-131424904D01*
X97313819Y-130520142D02*
X97313819Y-129853476D01*
X97313819Y-129853476D02*
X98313819Y-130282047D01*
X54428580Y-143263857D02*
X54476200Y-143311476D01*
X54476200Y-143311476D02*
X54523819Y-143454333D01*
X54523819Y-143454333D02*
X54523819Y-143549571D01*
X54523819Y-143549571D02*
X54476200Y-143692428D01*
X54476200Y-143692428D02*
X54380961Y-143787666D01*
X54380961Y-143787666D02*
X54285723Y-143835285D01*
X54285723Y-143835285D02*
X54095247Y-143882904D01*
X54095247Y-143882904D02*
X53952390Y-143882904D01*
X53952390Y-143882904D02*
X53761914Y-143835285D01*
X53761914Y-143835285D02*
X53666676Y-143787666D01*
X53666676Y-143787666D02*
X53571438Y-143692428D01*
X53571438Y-143692428D02*
X53523819Y-143549571D01*
X53523819Y-143549571D02*
X53523819Y-143454333D01*
X53523819Y-143454333D02*
X53571438Y-143311476D01*
X53571438Y-143311476D02*
X53619057Y-143263857D01*
X53857152Y-142406714D02*
X54523819Y-142406714D01*
X53476200Y-142644809D02*
X54190485Y-142882904D01*
X54190485Y-142882904D02*
X54190485Y-142263857D01*
X54523819Y-141359095D02*
X54523819Y-141930523D01*
X54523819Y-141644809D02*
X53523819Y-141644809D01*
X53523819Y-141644809D02*
X53666676Y-141740047D01*
X53666676Y-141740047D02*
X53761914Y-141835285D01*
X53761914Y-141835285D02*
X53809533Y-141930523D01*
X118370819Y-138020904D02*
X119180342Y-138020904D01*
X119180342Y-138020904D02*
X119275580Y-137973285D01*
X119275580Y-137973285D02*
X119323200Y-137925666D01*
X119323200Y-137925666D02*
X119370819Y-137830428D01*
X119370819Y-137830428D02*
X119370819Y-137639952D01*
X119370819Y-137639952D02*
X119323200Y-137544714D01*
X119323200Y-137544714D02*
X119275580Y-137497095D01*
X119275580Y-137497095D02*
X119180342Y-137449476D01*
X119180342Y-137449476D02*
X118370819Y-137449476D01*
X119370819Y-136449476D02*
X119370819Y-137020904D01*
X119370819Y-136735190D02*
X118370819Y-136735190D01*
X118370819Y-136735190D02*
X118513676Y-136830428D01*
X118513676Y-136830428D02*
X118608914Y-136925666D01*
X118608914Y-136925666D02*
X118656533Y-137020904D01*
X50913819Y-143359094D02*
X49913819Y-143359094D01*
X49913819Y-143359094D02*
X49913819Y-143120999D01*
X49913819Y-143120999D02*
X49961438Y-142978142D01*
X49961438Y-142978142D02*
X50056676Y-142882904D01*
X50056676Y-142882904D02*
X50151914Y-142835285D01*
X50151914Y-142835285D02*
X50342390Y-142787666D01*
X50342390Y-142787666D02*
X50485247Y-142787666D01*
X50485247Y-142787666D02*
X50675723Y-142835285D01*
X50675723Y-142835285D02*
X50770961Y-142882904D01*
X50770961Y-142882904D02*
X50866200Y-142978142D01*
X50866200Y-142978142D02*
X50913819Y-143120999D01*
X50913819Y-143120999D02*
X50913819Y-143359094D01*
X50913819Y-141835285D02*
X50913819Y-142406713D01*
X50913819Y-142120999D02*
X49913819Y-142120999D01*
X49913819Y-142120999D02*
X50056676Y-142216237D01*
X50056676Y-142216237D02*
X50151914Y-142311475D01*
X50151914Y-142311475D02*
X50199533Y-142406713D01*
X99583819Y-131805857D02*
X99107628Y-132139190D01*
X99583819Y-132377285D02*
X98583819Y-132377285D01*
X98583819Y-132377285D02*
X98583819Y-131996333D01*
X98583819Y-131996333D02*
X98631438Y-131901095D01*
X98631438Y-131901095D02*
X98679057Y-131853476D01*
X98679057Y-131853476D02*
X98774295Y-131805857D01*
X98774295Y-131805857D02*
X98917152Y-131805857D01*
X98917152Y-131805857D02*
X99012390Y-131853476D01*
X99012390Y-131853476D02*
X99060009Y-131901095D01*
X99060009Y-131901095D02*
X99107628Y-131996333D01*
X99107628Y-131996333D02*
X99107628Y-132377285D01*
X98679057Y-131424904D02*
X98631438Y-131377285D01*
X98631438Y-131377285D02*
X98583819Y-131282047D01*
X98583819Y-131282047D02*
X98583819Y-131043952D01*
X98583819Y-131043952D02*
X98631438Y-130948714D01*
X98631438Y-130948714D02*
X98679057Y-130901095D01*
X98679057Y-130901095D02*
X98774295Y-130853476D01*
X98774295Y-130853476D02*
X98869533Y-130853476D01*
X98869533Y-130853476D02*
X99012390Y-130901095D01*
X99012390Y-130901095D02*
X99583819Y-131472523D01*
X99583819Y-131472523D02*
X99583819Y-130853476D01*
X99583819Y-129901095D02*
X99583819Y-130472523D01*
X99583819Y-130186809D02*
X98583819Y-130186809D01*
X98583819Y-130186809D02*
X98726676Y-130282047D01*
X98726676Y-130282047D02*
X98821914Y-130377285D01*
X98821914Y-130377285D02*
X98869533Y-130472523D01*
X83867580Y-145267857D02*
X83915200Y-145315476D01*
X83915200Y-145315476D02*
X83962819Y-145458333D01*
X83962819Y-145458333D02*
X83962819Y-145553571D01*
X83962819Y-145553571D02*
X83915200Y-145696428D01*
X83915200Y-145696428D02*
X83819961Y-145791666D01*
X83819961Y-145791666D02*
X83724723Y-145839285D01*
X83724723Y-145839285D02*
X83534247Y-145886904D01*
X83534247Y-145886904D02*
X83391390Y-145886904D01*
X83391390Y-145886904D02*
X83200914Y-145839285D01*
X83200914Y-145839285D02*
X83105676Y-145791666D01*
X83105676Y-145791666D02*
X83010438Y-145696428D01*
X83010438Y-145696428D02*
X82962819Y-145553571D01*
X82962819Y-145553571D02*
X82962819Y-145458333D01*
X82962819Y-145458333D02*
X83010438Y-145315476D01*
X83010438Y-145315476D02*
X83058057Y-145267857D01*
X83962819Y-144315476D02*
X83962819Y-144886904D01*
X83962819Y-144601190D02*
X82962819Y-144601190D01*
X82962819Y-144601190D02*
X83105676Y-144696428D01*
X83105676Y-144696428D02*
X83200914Y-144791666D01*
X83200914Y-144791666D02*
X83248533Y-144886904D01*
X83391390Y-143744047D02*
X83343771Y-143839285D01*
X83343771Y-143839285D02*
X83296152Y-143886904D01*
X83296152Y-143886904D02*
X83200914Y-143934523D01*
X83200914Y-143934523D02*
X83153295Y-143934523D01*
X83153295Y-143934523D02*
X83058057Y-143886904D01*
X83058057Y-143886904D02*
X83010438Y-143839285D01*
X83010438Y-143839285D02*
X82962819Y-143744047D01*
X82962819Y-143744047D02*
X82962819Y-143553571D01*
X82962819Y-143553571D02*
X83010438Y-143458333D01*
X83010438Y-143458333D02*
X83058057Y-143410714D01*
X83058057Y-143410714D02*
X83153295Y-143363095D01*
X83153295Y-143363095D02*
X83200914Y-143363095D01*
X83200914Y-143363095D02*
X83296152Y-143410714D01*
X83296152Y-143410714D02*
X83343771Y-143458333D01*
X83343771Y-143458333D02*
X83391390Y-143553571D01*
X83391390Y-143553571D02*
X83391390Y-143744047D01*
X83391390Y-143744047D02*
X83439009Y-143839285D01*
X83439009Y-143839285D02*
X83486628Y-143886904D01*
X83486628Y-143886904D02*
X83581866Y-143934523D01*
X83581866Y-143934523D02*
X83772342Y-143934523D01*
X83772342Y-143934523D02*
X83867580Y-143886904D01*
X83867580Y-143886904D02*
X83915200Y-143839285D01*
X83915200Y-143839285D02*
X83962819Y-143744047D01*
X83962819Y-143744047D02*
X83962819Y-143553571D01*
X83962819Y-143553571D02*
X83915200Y-143458333D01*
X83915200Y-143458333D02*
X83867580Y-143410714D01*
X83867580Y-143410714D02*
X83772342Y-143363095D01*
X83772342Y-143363095D02*
X83581866Y-143363095D01*
X83581866Y-143363095D02*
X83486628Y-143410714D01*
X83486628Y-143410714D02*
X83439009Y-143458333D01*
X83439009Y-143458333D02*
X83391390Y-143553571D01*
X83340142Y-134984580D02*
X83292523Y-135032200D01*
X83292523Y-135032200D02*
X83149666Y-135079819D01*
X83149666Y-135079819D02*
X83054428Y-135079819D01*
X83054428Y-135079819D02*
X82911571Y-135032200D01*
X82911571Y-135032200D02*
X82816333Y-134936961D01*
X82816333Y-134936961D02*
X82768714Y-134841723D01*
X82768714Y-134841723D02*
X82721095Y-134651247D01*
X82721095Y-134651247D02*
X82721095Y-134508390D01*
X82721095Y-134508390D02*
X82768714Y-134317914D01*
X82768714Y-134317914D02*
X82816333Y-134222676D01*
X82816333Y-134222676D02*
X82911571Y-134127438D01*
X82911571Y-134127438D02*
X83054428Y-134079819D01*
X83054428Y-134079819D02*
X83149666Y-134079819D01*
X83149666Y-134079819D02*
X83292523Y-134127438D01*
X83292523Y-134127438D02*
X83340142Y-134175057D01*
X84292523Y-135079819D02*
X83721095Y-135079819D01*
X84006809Y-135079819D02*
X84006809Y-134079819D01*
X84006809Y-134079819D02*
X83911571Y-134222676D01*
X83911571Y-134222676D02*
X83816333Y-134317914D01*
X83816333Y-134317914D02*
X83721095Y-134365533D01*
X84768714Y-135079819D02*
X84959190Y-135079819D01*
X84959190Y-135079819D02*
X85054428Y-135032200D01*
X85054428Y-135032200D02*
X85102047Y-134984580D01*
X85102047Y-134984580D02*
X85197285Y-134841723D01*
X85197285Y-134841723D02*
X85244904Y-134651247D01*
X85244904Y-134651247D02*
X85244904Y-134270295D01*
X85244904Y-134270295D02*
X85197285Y-134175057D01*
X85197285Y-134175057D02*
X85149666Y-134127438D01*
X85149666Y-134127438D02*
X85054428Y-134079819D01*
X85054428Y-134079819D02*
X84863952Y-134079819D01*
X84863952Y-134079819D02*
X84768714Y-134127438D01*
X84768714Y-134127438D02*
X84721095Y-134175057D01*
X84721095Y-134175057D02*
X84673476Y-134270295D01*
X84673476Y-134270295D02*
X84673476Y-134508390D01*
X84673476Y-134508390D02*
X84721095Y-134603628D01*
X84721095Y-134603628D02*
X84768714Y-134651247D01*
X84768714Y-134651247D02*
X84863952Y-134698866D01*
X84863952Y-134698866D02*
X85054428Y-134698866D01*
X85054428Y-134698866D02*
X85149666Y-134651247D01*
X85149666Y-134651247D02*
X85197285Y-134603628D01*
X85197285Y-134603628D02*
X85244904Y-134508390D01*
X83340142Y-136508580D02*
X83292523Y-136556200D01*
X83292523Y-136556200D02*
X83149666Y-136603819D01*
X83149666Y-136603819D02*
X83054428Y-136603819D01*
X83054428Y-136603819D02*
X82911571Y-136556200D01*
X82911571Y-136556200D02*
X82816333Y-136460961D01*
X82816333Y-136460961D02*
X82768714Y-136365723D01*
X82768714Y-136365723D02*
X82721095Y-136175247D01*
X82721095Y-136175247D02*
X82721095Y-136032390D01*
X82721095Y-136032390D02*
X82768714Y-135841914D01*
X82768714Y-135841914D02*
X82816333Y-135746676D01*
X82816333Y-135746676D02*
X82911571Y-135651438D01*
X82911571Y-135651438D02*
X83054428Y-135603819D01*
X83054428Y-135603819D02*
X83149666Y-135603819D01*
X83149666Y-135603819D02*
X83292523Y-135651438D01*
X83292523Y-135651438D02*
X83340142Y-135699057D01*
X83721095Y-135699057D02*
X83768714Y-135651438D01*
X83768714Y-135651438D02*
X83863952Y-135603819D01*
X83863952Y-135603819D02*
X84102047Y-135603819D01*
X84102047Y-135603819D02*
X84197285Y-135651438D01*
X84197285Y-135651438D02*
X84244904Y-135699057D01*
X84244904Y-135699057D02*
X84292523Y-135794295D01*
X84292523Y-135794295D02*
X84292523Y-135889533D01*
X84292523Y-135889533D02*
X84244904Y-136032390D01*
X84244904Y-136032390D02*
X83673476Y-136603819D01*
X83673476Y-136603819D02*
X84292523Y-136603819D01*
X84673476Y-135699057D02*
X84721095Y-135651438D01*
X84721095Y-135651438D02*
X84816333Y-135603819D01*
X84816333Y-135603819D02*
X85054428Y-135603819D01*
X85054428Y-135603819D02*
X85149666Y-135651438D01*
X85149666Y-135651438D02*
X85197285Y-135699057D01*
X85197285Y-135699057D02*
X85244904Y-135794295D01*
X85244904Y-135794295D02*
X85244904Y-135889533D01*
X85244904Y-135889533D02*
X85197285Y-136032390D01*
X85197285Y-136032390D02*
X84625857Y-136603819D01*
X84625857Y-136603819D02*
X85244904Y-136603819D01*
X92913819Y-134599857D02*
X92437628Y-134933190D01*
X92913819Y-135171285D02*
X91913819Y-135171285D01*
X91913819Y-135171285D02*
X91913819Y-134790333D01*
X91913819Y-134790333D02*
X91961438Y-134695095D01*
X91961438Y-134695095D02*
X92009057Y-134647476D01*
X92009057Y-134647476D02*
X92104295Y-134599857D01*
X92104295Y-134599857D02*
X92247152Y-134599857D01*
X92247152Y-134599857D02*
X92342390Y-134647476D01*
X92342390Y-134647476D02*
X92390009Y-134695095D01*
X92390009Y-134695095D02*
X92437628Y-134790333D01*
X92437628Y-134790333D02*
X92437628Y-135171285D01*
X92913819Y-133647476D02*
X92913819Y-134218904D01*
X92913819Y-133933190D02*
X91913819Y-133933190D01*
X91913819Y-133933190D02*
X92056676Y-134028428D01*
X92056676Y-134028428D02*
X92151914Y-134123666D01*
X92151914Y-134123666D02*
X92199533Y-134218904D01*
X92913819Y-133171285D02*
X92913819Y-132980809D01*
X92913819Y-132980809D02*
X92866200Y-132885571D01*
X92866200Y-132885571D02*
X92818580Y-132837952D01*
X92818580Y-132837952D02*
X92675723Y-132742714D01*
X92675723Y-132742714D02*
X92485247Y-132695095D01*
X92485247Y-132695095D02*
X92104295Y-132695095D01*
X92104295Y-132695095D02*
X92009057Y-132742714D01*
X92009057Y-132742714D02*
X91961438Y-132790333D01*
X91961438Y-132790333D02*
X91913819Y-132885571D01*
X91913819Y-132885571D02*
X91913819Y-133076047D01*
X91913819Y-133076047D02*
X91961438Y-133171285D01*
X91961438Y-133171285D02*
X92009057Y-133218904D01*
X92009057Y-133218904D02*
X92104295Y-133266523D01*
X92104295Y-133266523D02*
X92342390Y-133266523D01*
X92342390Y-133266523D02*
X92437628Y-133218904D01*
X92437628Y-133218904D02*
X92485247Y-133171285D01*
X92485247Y-133171285D02*
X92532866Y-133076047D01*
X92532866Y-133076047D02*
X92532866Y-132885571D01*
X92532866Y-132885571D02*
X92485247Y-132790333D01*
X92485247Y-132790333D02*
X92437628Y-132742714D01*
X92437628Y-132742714D02*
X92342390Y-132695095D01*
X86837819Y-140052904D02*
X87647342Y-140052904D01*
X87647342Y-140052904D02*
X87742580Y-140005285D01*
X87742580Y-140005285D02*
X87790200Y-139957666D01*
X87790200Y-139957666D02*
X87837819Y-139862428D01*
X87837819Y-139862428D02*
X87837819Y-139671952D01*
X87837819Y-139671952D02*
X87790200Y-139576714D01*
X87790200Y-139576714D02*
X87742580Y-139529095D01*
X87742580Y-139529095D02*
X87647342Y-139481476D01*
X87647342Y-139481476D02*
X86837819Y-139481476D01*
X86837819Y-139100523D02*
X86837819Y-138481476D01*
X86837819Y-138481476D02*
X87218771Y-138814809D01*
X87218771Y-138814809D02*
X87218771Y-138671952D01*
X87218771Y-138671952D02*
X87266390Y-138576714D01*
X87266390Y-138576714D02*
X87314009Y-138529095D01*
X87314009Y-138529095D02*
X87409247Y-138481476D01*
X87409247Y-138481476D02*
X87647342Y-138481476D01*
X87647342Y-138481476D02*
X87742580Y-138529095D01*
X87742580Y-138529095D02*
X87790200Y-138576714D01*
X87790200Y-138576714D02*
X87837819Y-138671952D01*
X87837819Y-138671952D02*
X87837819Y-138957666D01*
X87837819Y-138957666D02*
X87790200Y-139052904D01*
X87790200Y-139052904D02*
X87742580Y-139100523D01*
X94408580Y-145267857D02*
X94456200Y-145315476D01*
X94456200Y-145315476D02*
X94503819Y-145458333D01*
X94503819Y-145458333D02*
X94503819Y-145553571D01*
X94503819Y-145553571D02*
X94456200Y-145696428D01*
X94456200Y-145696428D02*
X94360961Y-145791666D01*
X94360961Y-145791666D02*
X94265723Y-145839285D01*
X94265723Y-145839285D02*
X94075247Y-145886904D01*
X94075247Y-145886904D02*
X93932390Y-145886904D01*
X93932390Y-145886904D02*
X93741914Y-145839285D01*
X93741914Y-145839285D02*
X93646676Y-145791666D01*
X93646676Y-145791666D02*
X93551438Y-145696428D01*
X93551438Y-145696428D02*
X93503819Y-145553571D01*
X93503819Y-145553571D02*
X93503819Y-145458333D01*
X93503819Y-145458333D02*
X93551438Y-145315476D01*
X93551438Y-145315476D02*
X93599057Y-145267857D01*
X93503819Y-144934523D02*
X93503819Y-144315476D01*
X93503819Y-144315476D02*
X93884771Y-144648809D01*
X93884771Y-144648809D02*
X93884771Y-144505952D01*
X93884771Y-144505952D02*
X93932390Y-144410714D01*
X93932390Y-144410714D02*
X93980009Y-144363095D01*
X93980009Y-144363095D02*
X94075247Y-144315476D01*
X94075247Y-144315476D02*
X94313342Y-144315476D01*
X94313342Y-144315476D02*
X94408580Y-144363095D01*
X94408580Y-144363095D02*
X94456200Y-144410714D01*
X94456200Y-144410714D02*
X94503819Y-144505952D01*
X94503819Y-144505952D02*
X94503819Y-144791666D01*
X94503819Y-144791666D02*
X94456200Y-144886904D01*
X94456200Y-144886904D02*
X94408580Y-144934523D01*
X93503819Y-143982142D02*
X93503819Y-143363095D01*
X93503819Y-143363095D02*
X93884771Y-143696428D01*
X93884771Y-143696428D02*
X93884771Y-143553571D01*
X93884771Y-143553571D02*
X93932390Y-143458333D01*
X93932390Y-143458333D02*
X93980009Y-143410714D01*
X93980009Y-143410714D02*
X94075247Y-143363095D01*
X94075247Y-143363095D02*
X94313342Y-143363095D01*
X94313342Y-143363095D02*
X94408580Y-143410714D01*
X94408580Y-143410714D02*
X94456200Y-143458333D01*
X94456200Y-143458333D02*
X94503819Y-143553571D01*
X94503819Y-143553571D02*
X94503819Y-143839285D01*
X94503819Y-143839285D02*
X94456200Y-143934523D01*
X94456200Y-143934523D02*
X94408580Y-143982142D01*
X96723819Y-134599857D02*
X96247628Y-134933190D01*
X96723819Y-135171285D02*
X95723819Y-135171285D01*
X95723819Y-135171285D02*
X95723819Y-134790333D01*
X95723819Y-134790333D02*
X95771438Y-134695095D01*
X95771438Y-134695095D02*
X95819057Y-134647476D01*
X95819057Y-134647476D02*
X95914295Y-134599857D01*
X95914295Y-134599857D02*
X96057152Y-134599857D01*
X96057152Y-134599857D02*
X96152390Y-134647476D01*
X96152390Y-134647476D02*
X96200009Y-134695095D01*
X96200009Y-134695095D02*
X96247628Y-134790333D01*
X96247628Y-134790333D02*
X96247628Y-135171285D01*
X95819057Y-134218904D02*
X95771438Y-134171285D01*
X95771438Y-134171285D02*
X95723819Y-134076047D01*
X95723819Y-134076047D02*
X95723819Y-133837952D01*
X95723819Y-133837952D02*
X95771438Y-133742714D01*
X95771438Y-133742714D02*
X95819057Y-133695095D01*
X95819057Y-133695095D02*
X95914295Y-133647476D01*
X95914295Y-133647476D02*
X96009533Y-133647476D01*
X96009533Y-133647476D02*
X96152390Y-133695095D01*
X96152390Y-133695095D02*
X96723819Y-134266523D01*
X96723819Y-134266523D02*
X96723819Y-133647476D01*
X95723819Y-133028428D02*
X95723819Y-132933190D01*
X95723819Y-132933190D02*
X95771438Y-132837952D01*
X95771438Y-132837952D02*
X95819057Y-132790333D01*
X95819057Y-132790333D02*
X95914295Y-132742714D01*
X95914295Y-132742714D02*
X96104771Y-132695095D01*
X96104771Y-132695095D02*
X96342866Y-132695095D01*
X96342866Y-132695095D02*
X96533342Y-132742714D01*
X96533342Y-132742714D02*
X96628580Y-132790333D01*
X96628580Y-132790333D02*
X96676200Y-132837952D01*
X96676200Y-132837952D02*
X96723819Y-132933190D01*
X96723819Y-132933190D02*
X96723819Y-133028428D01*
X96723819Y-133028428D02*
X96676200Y-133123666D01*
X96676200Y-133123666D02*
X96628580Y-133171285D01*
X96628580Y-133171285D02*
X96533342Y-133218904D01*
X96533342Y-133218904D02*
X96342866Y-133266523D01*
X96342866Y-133266523D02*
X96104771Y-133266523D01*
X96104771Y-133266523D02*
X95914295Y-133218904D01*
X95914295Y-133218904D02*
X95819057Y-133171285D01*
X95819057Y-133171285D02*
X95771438Y-133123666D01*
X95771438Y-133123666D02*
X95723819Y-133028428D01*
X79737580Y-134599857D02*
X79785200Y-134647476D01*
X79785200Y-134647476D02*
X79832819Y-134790333D01*
X79832819Y-134790333D02*
X79832819Y-134885571D01*
X79832819Y-134885571D02*
X79785200Y-135028428D01*
X79785200Y-135028428D02*
X79689961Y-135123666D01*
X79689961Y-135123666D02*
X79594723Y-135171285D01*
X79594723Y-135171285D02*
X79404247Y-135218904D01*
X79404247Y-135218904D02*
X79261390Y-135218904D01*
X79261390Y-135218904D02*
X79070914Y-135171285D01*
X79070914Y-135171285D02*
X78975676Y-135123666D01*
X78975676Y-135123666D02*
X78880438Y-135028428D01*
X78880438Y-135028428D02*
X78832819Y-134885571D01*
X78832819Y-134885571D02*
X78832819Y-134790333D01*
X78832819Y-134790333D02*
X78880438Y-134647476D01*
X78880438Y-134647476D02*
X78928057Y-134599857D01*
X78928057Y-134218904D02*
X78880438Y-134171285D01*
X78880438Y-134171285D02*
X78832819Y-134076047D01*
X78832819Y-134076047D02*
X78832819Y-133837952D01*
X78832819Y-133837952D02*
X78880438Y-133742714D01*
X78880438Y-133742714D02*
X78928057Y-133695095D01*
X78928057Y-133695095D02*
X79023295Y-133647476D01*
X79023295Y-133647476D02*
X79118533Y-133647476D01*
X79118533Y-133647476D02*
X79261390Y-133695095D01*
X79261390Y-133695095D02*
X79832819Y-134266523D01*
X79832819Y-134266523D02*
X79832819Y-133647476D01*
X79832819Y-132695095D02*
X79832819Y-133266523D01*
X79832819Y-132980809D02*
X78832819Y-132980809D01*
X78832819Y-132980809D02*
X78975676Y-133076047D01*
X78975676Y-133076047D02*
X79070914Y-133171285D01*
X79070914Y-133171285D02*
X79118533Y-133266523D01*
X72038095Y-121954819D02*
X72609523Y-121954819D01*
X72323809Y-122954819D02*
X72323809Y-121954819D01*
X72942857Y-122954819D02*
X72942857Y-121954819D01*
X72942857Y-121954819D02*
X73323809Y-121954819D01*
X73323809Y-121954819D02*
X73419047Y-122002438D01*
X73419047Y-122002438D02*
X73466666Y-122050057D01*
X73466666Y-122050057D02*
X73514285Y-122145295D01*
X73514285Y-122145295D02*
X73514285Y-122288152D01*
X73514285Y-122288152D02*
X73466666Y-122383390D01*
X73466666Y-122383390D02*
X73419047Y-122431009D01*
X73419047Y-122431009D02*
X73323809Y-122478628D01*
X73323809Y-122478628D02*
X72942857Y-122478628D01*
X74371428Y-122288152D02*
X74371428Y-122954819D01*
X74133333Y-121907200D02*
X73895238Y-122621485D01*
X73895238Y-122621485D02*
X74514285Y-122621485D01*
X107496819Y-131393094D02*
X106496819Y-131393094D01*
X106496819Y-131393094D02*
X106496819Y-131154999D01*
X106496819Y-131154999D02*
X106544438Y-131012142D01*
X106544438Y-131012142D02*
X106639676Y-130916904D01*
X106639676Y-130916904D02*
X106734914Y-130869285D01*
X106734914Y-130869285D02*
X106925390Y-130821666D01*
X106925390Y-130821666D02*
X107068247Y-130821666D01*
X107068247Y-130821666D02*
X107258723Y-130869285D01*
X107258723Y-130869285D02*
X107353961Y-130916904D01*
X107353961Y-130916904D02*
X107449200Y-131012142D01*
X107449200Y-131012142D02*
X107496819Y-131154999D01*
X107496819Y-131154999D02*
X107496819Y-131393094D01*
X106925390Y-130250237D02*
X106877771Y-130345475D01*
X106877771Y-130345475D02*
X106830152Y-130393094D01*
X106830152Y-130393094D02*
X106734914Y-130440713D01*
X106734914Y-130440713D02*
X106687295Y-130440713D01*
X106687295Y-130440713D02*
X106592057Y-130393094D01*
X106592057Y-130393094D02*
X106544438Y-130345475D01*
X106544438Y-130345475D02*
X106496819Y-130250237D01*
X106496819Y-130250237D02*
X106496819Y-130059761D01*
X106496819Y-130059761D02*
X106544438Y-129964523D01*
X106544438Y-129964523D02*
X106592057Y-129916904D01*
X106592057Y-129916904D02*
X106687295Y-129869285D01*
X106687295Y-129869285D02*
X106734914Y-129869285D01*
X106734914Y-129869285D02*
X106830152Y-129916904D01*
X106830152Y-129916904D02*
X106877771Y-129964523D01*
X106877771Y-129964523D02*
X106925390Y-130059761D01*
X106925390Y-130059761D02*
X106925390Y-130250237D01*
X106925390Y-130250237D02*
X106973009Y-130345475D01*
X106973009Y-130345475D02*
X107020628Y-130393094D01*
X107020628Y-130393094D02*
X107115866Y-130440713D01*
X107115866Y-130440713D02*
X107306342Y-130440713D01*
X107306342Y-130440713D02*
X107401580Y-130393094D01*
X107401580Y-130393094D02*
X107449200Y-130345475D01*
X107449200Y-130345475D02*
X107496819Y-130250237D01*
X107496819Y-130250237D02*
X107496819Y-130059761D01*
X107496819Y-130059761D02*
X107449200Y-129964523D01*
X107449200Y-129964523D02*
X107401580Y-129916904D01*
X107401580Y-129916904D02*
X107306342Y-129869285D01*
X107306342Y-129869285D02*
X107115866Y-129869285D01*
X107115866Y-129869285D02*
X107020628Y-129916904D01*
X107020628Y-129916904D02*
X106973009Y-129964523D01*
X106973009Y-129964523D02*
X106925390Y-130059761D01*
X117206819Y-145386904D02*
X118016342Y-145386904D01*
X118016342Y-145386904D02*
X118111580Y-145339285D01*
X118111580Y-145339285D02*
X118159200Y-145291666D01*
X118159200Y-145291666D02*
X118206819Y-145196428D01*
X118206819Y-145196428D02*
X118206819Y-145005952D01*
X118206819Y-145005952D02*
X118159200Y-144910714D01*
X118159200Y-144910714D02*
X118111580Y-144863095D01*
X118111580Y-144863095D02*
X118016342Y-144815476D01*
X118016342Y-144815476D02*
X117206819Y-144815476D01*
X118206819Y-144291666D02*
X118206819Y-144101190D01*
X118206819Y-144101190D02*
X118159200Y-144005952D01*
X118159200Y-144005952D02*
X118111580Y-143958333D01*
X118111580Y-143958333D02*
X117968723Y-143863095D01*
X117968723Y-143863095D02*
X117778247Y-143815476D01*
X117778247Y-143815476D02*
X117397295Y-143815476D01*
X117397295Y-143815476D02*
X117302057Y-143863095D01*
X117302057Y-143863095D02*
X117254438Y-143910714D01*
X117254438Y-143910714D02*
X117206819Y-144005952D01*
X117206819Y-144005952D02*
X117206819Y-144196428D01*
X117206819Y-144196428D02*
X117254438Y-144291666D01*
X117254438Y-144291666D02*
X117302057Y-144339285D01*
X117302057Y-144339285D02*
X117397295Y-144386904D01*
X117397295Y-144386904D02*
X117635390Y-144386904D01*
X117635390Y-144386904D02*
X117730628Y-144339285D01*
X117730628Y-144339285D02*
X117778247Y-144291666D01*
X117778247Y-144291666D02*
X117825866Y-144196428D01*
X117825866Y-144196428D02*
X117825866Y-144005952D01*
X117825866Y-144005952D02*
X117778247Y-143910714D01*
X117778247Y-143910714D02*
X117730628Y-143863095D01*
X117730628Y-143863095D02*
X117635390Y-143815476D01*
X127362580Y-128027666D02*
X127410200Y-128075285D01*
X127410200Y-128075285D02*
X127457819Y-128218142D01*
X127457819Y-128218142D02*
X127457819Y-128313380D01*
X127457819Y-128313380D02*
X127410200Y-128456237D01*
X127410200Y-128456237D02*
X127314961Y-128551475D01*
X127314961Y-128551475D02*
X127219723Y-128599094D01*
X127219723Y-128599094D02*
X127029247Y-128646713D01*
X127029247Y-128646713D02*
X126886390Y-128646713D01*
X126886390Y-128646713D02*
X126695914Y-128599094D01*
X126695914Y-128599094D02*
X126600676Y-128551475D01*
X126600676Y-128551475D02*
X126505438Y-128456237D01*
X126505438Y-128456237D02*
X126457819Y-128313380D01*
X126457819Y-128313380D02*
X126457819Y-128218142D01*
X126457819Y-128218142D02*
X126505438Y-128075285D01*
X126505438Y-128075285D02*
X126553057Y-128027666D01*
X126886390Y-127456237D02*
X126838771Y-127551475D01*
X126838771Y-127551475D02*
X126791152Y-127599094D01*
X126791152Y-127599094D02*
X126695914Y-127646713D01*
X126695914Y-127646713D02*
X126648295Y-127646713D01*
X126648295Y-127646713D02*
X126553057Y-127599094D01*
X126553057Y-127599094D02*
X126505438Y-127551475D01*
X126505438Y-127551475D02*
X126457819Y-127456237D01*
X126457819Y-127456237D02*
X126457819Y-127265761D01*
X126457819Y-127265761D02*
X126505438Y-127170523D01*
X126505438Y-127170523D02*
X126553057Y-127122904D01*
X126553057Y-127122904D02*
X126648295Y-127075285D01*
X126648295Y-127075285D02*
X126695914Y-127075285D01*
X126695914Y-127075285D02*
X126791152Y-127122904D01*
X126791152Y-127122904D02*
X126838771Y-127170523D01*
X126838771Y-127170523D02*
X126886390Y-127265761D01*
X126886390Y-127265761D02*
X126886390Y-127456237D01*
X126886390Y-127456237D02*
X126934009Y-127551475D01*
X126934009Y-127551475D02*
X126981628Y-127599094D01*
X126981628Y-127599094D02*
X127076866Y-127646713D01*
X127076866Y-127646713D02*
X127267342Y-127646713D01*
X127267342Y-127646713D02*
X127362580Y-127599094D01*
X127362580Y-127599094D02*
X127410200Y-127551475D01*
X127410200Y-127551475D02*
X127457819Y-127456237D01*
X127457819Y-127456237D02*
X127457819Y-127265761D01*
X127457819Y-127265761D02*
X127410200Y-127170523D01*
X127410200Y-127170523D02*
X127362580Y-127122904D01*
X127362580Y-127122904D02*
X127267342Y-127075285D01*
X127267342Y-127075285D02*
X127076866Y-127075285D01*
X127076866Y-127075285D02*
X126981628Y-127122904D01*
X126981628Y-127122904D02*
X126934009Y-127170523D01*
X126934009Y-127170523D02*
X126886390Y-127265761D01*
X119630333Y-132124580D02*
X119582714Y-132172200D01*
X119582714Y-132172200D02*
X119439857Y-132219819D01*
X119439857Y-132219819D02*
X119344619Y-132219819D01*
X119344619Y-132219819D02*
X119201762Y-132172200D01*
X119201762Y-132172200D02*
X119106524Y-132076961D01*
X119106524Y-132076961D02*
X119058905Y-131981723D01*
X119058905Y-131981723D02*
X119011286Y-131791247D01*
X119011286Y-131791247D02*
X119011286Y-131648390D01*
X119011286Y-131648390D02*
X119058905Y-131457914D01*
X119058905Y-131457914D02*
X119106524Y-131362676D01*
X119106524Y-131362676D02*
X119201762Y-131267438D01*
X119201762Y-131267438D02*
X119344619Y-131219819D01*
X119344619Y-131219819D02*
X119439857Y-131219819D01*
X119439857Y-131219819D02*
X119582714Y-131267438D01*
X119582714Y-131267438D02*
X119630333Y-131315057D01*
X120535095Y-131219819D02*
X120058905Y-131219819D01*
X120058905Y-131219819D02*
X120011286Y-131696009D01*
X120011286Y-131696009D02*
X120058905Y-131648390D01*
X120058905Y-131648390D02*
X120154143Y-131600771D01*
X120154143Y-131600771D02*
X120392238Y-131600771D01*
X120392238Y-131600771D02*
X120487476Y-131648390D01*
X120487476Y-131648390D02*
X120535095Y-131696009D01*
X120535095Y-131696009D02*
X120582714Y-131791247D01*
X120582714Y-131791247D02*
X120582714Y-132029342D01*
X120582714Y-132029342D02*
X120535095Y-132124580D01*
X120535095Y-132124580D02*
X120487476Y-132172200D01*
X120487476Y-132172200D02*
X120392238Y-132219819D01*
X120392238Y-132219819D02*
X120154143Y-132219819D01*
X120154143Y-132219819D02*
X120058905Y-132172200D01*
X120058905Y-132172200D02*
X120011286Y-132124580D01*
X91548580Y-134599857D02*
X91596200Y-134647476D01*
X91596200Y-134647476D02*
X91643819Y-134790333D01*
X91643819Y-134790333D02*
X91643819Y-134885571D01*
X91643819Y-134885571D02*
X91596200Y-135028428D01*
X91596200Y-135028428D02*
X91500961Y-135123666D01*
X91500961Y-135123666D02*
X91405723Y-135171285D01*
X91405723Y-135171285D02*
X91215247Y-135218904D01*
X91215247Y-135218904D02*
X91072390Y-135218904D01*
X91072390Y-135218904D02*
X90881914Y-135171285D01*
X90881914Y-135171285D02*
X90786676Y-135123666D01*
X90786676Y-135123666D02*
X90691438Y-135028428D01*
X90691438Y-135028428D02*
X90643819Y-134885571D01*
X90643819Y-134885571D02*
X90643819Y-134790333D01*
X90643819Y-134790333D02*
X90691438Y-134647476D01*
X90691438Y-134647476D02*
X90739057Y-134599857D01*
X90643819Y-134266523D02*
X90643819Y-133647476D01*
X90643819Y-133647476D02*
X91024771Y-133980809D01*
X91024771Y-133980809D02*
X91024771Y-133837952D01*
X91024771Y-133837952D02*
X91072390Y-133742714D01*
X91072390Y-133742714D02*
X91120009Y-133695095D01*
X91120009Y-133695095D02*
X91215247Y-133647476D01*
X91215247Y-133647476D02*
X91453342Y-133647476D01*
X91453342Y-133647476D02*
X91548580Y-133695095D01*
X91548580Y-133695095D02*
X91596200Y-133742714D01*
X91596200Y-133742714D02*
X91643819Y-133837952D01*
X91643819Y-133837952D02*
X91643819Y-134123666D01*
X91643819Y-134123666D02*
X91596200Y-134218904D01*
X91596200Y-134218904D02*
X91548580Y-134266523D01*
X90739057Y-133266523D02*
X90691438Y-133218904D01*
X90691438Y-133218904D02*
X90643819Y-133123666D01*
X90643819Y-133123666D02*
X90643819Y-132885571D01*
X90643819Y-132885571D02*
X90691438Y-132790333D01*
X90691438Y-132790333D02*
X90739057Y-132742714D01*
X90739057Y-132742714D02*
X90834295Y-132695095D01*
X90834295Y-132695095D02*
X90929533Y-132695095D01*
X90929533Y-132695095D02*
X91072390Y-132742714D01*
X91072390Y-132742714D02*
X91643819Y-133314142D01*
X91643819Y-133314142D02*
X91643819Y-132695095D01*
X98218580Y-134599857D02*
X98266200Y-134647476D01*
X98266200Y-134647476D02*
X98313819Y-134790333D01*
X98313819Y-134790333D02*
X98313819Y-134885571D01*
X98313819Y-134885571D02*
X98266200Y-135028428D01*
X98266200Y-135028428D02*
X98170961Y-135123666D01*
X98170961Y-135123666D02*
X98075723Y-135171285D01*
X98075723Y-135171285D02*
X97885247Y-135218904D01*
X97885247Y-135218904D02*
X97742390Y-135218904D01*
X97742390Y-135218904D02*
X97551914Y-135171285D01*
X97551914Y-135171285D02*
X97456676Y-135123666D01*
X97456676Y-135123666D02*
X97361438Y-135028428D01*
X97361438Y-135028428D02*
X97313819Y-134885571D01*
X97313819Y-134885571D02*
X97313819Y-134790333D01*
X97313819Y-134790333D02*
X97361438Y-134647476D01*
X97361438Y-134647476D02*
X97409057Y-134599857D01*
X97409057Y-134218904D02*
X97361438Y-134171285D01*
X97361438Y-134171285D02*
X97313819Y-134076047D01*
X97313819Y-134076047D02*
X97313819Y-133837952D01*
X97313819Y-133837952D02*
X97361438Y-133742714D01*
X97361438Y-133742714D02*
X97409057Y-133695095D01*
X97409057Y-133695095D02*
X97504295Y-133647476D01*
X97504295Y-133647476D02*
X97599533Y-133647476D01*
X97599533Y-133647476D02*
X97742390Y-133695095D01*
X97742390Y-133695095D02*
X98313819Y-134266523D01*
X98313819Y-134266523D02*
X98313819Y-133647476D01*
X97742390Y-133076047D02*
X97694771Y-133171285D01*
X97694771Y-133171285D02*
X97647152Y-133218904D01*
X97647152Y-133218904D02*
X97551914Y-133266523D01*
X97551914Y-133266523D02*
X97504295Y-133266523D01*
X97504295Y-133266523D02*
X97409057Y-133218904D01*
X97409057Y-133218904D02*
X97361438Y-133171285D01*
X97361438Y-133171285D02*
X97313819Y-133076047D01*
X97313819Y-133076047D02*
X97313819Y-132885571D01*
X97313819Y-132885571D02*
X97361438Y-132790333D01*
X97361438Y-132790333D02*
X97409057Y-132742714D01*
X97409057Y-132742714D02*
X97504295Y-132695095D01*
X97504295Y-132695095D02*
X97551914Y-132695095D01*
X97551914Y-132695095D02*
X97647152Y-132742714D01*
X97647152Y-132742714D02*
X97694771Y-132790333D01*
X97694771Y-132790333D02*
X97742390Y-132885571D01*
X97742390Y-132885571D02*
X97742390Y-133076047D01*
X97742390Y-133076047D02*
X97790009Y-133171285D01*
X97790009Y-133171285D02*
X97837628Y-133218904D01*
X97837628Y-133218904D02*
X97932866Y-133266523D01*
X97932866Y-133266523D02*
X98123342Y-133266523D01*
X98123342Y-133266523D02*
X98218580Y-133218904D01*
X98218580Y-133218904D02*
X98266200Y-133171285D01*
X98266200Y-133171285D02*
X98313819Y-133076047D01*
X98313819Y-133076047D02*
X98313819Y-132885571D01*
X98313819Y-132885571D02*
X98266200Y-132790333D01*
X98266200Y-132790333D02*
X98218580Y-132742714D01*
X98218580Y-132742714D02*
X98123342Y-132695095D01*
X98123342Y-132695095D02*
X97932866Y-132695095D01*
X97932866Y-132695095D02*
X97837628Y-132742714D01*
X97837628Y-132742714D02*
X97790009Y-132790333D01*
X97790009Y-132790333D02*
X97742390Y-132885571D01*
X86407580Y-145267857D02*
X86455200Y-145315476D01*
X86455200Y-145315476D02*
X86502819Y-145458333D01*
X86502819Y-145458333D02*
X86502819Y-145553571D01*
X86502819Y-145553571D02*
X86455200Y-145696428D01*
X86455200Y-145696428D02*
X86359961Y-145791666D01*
X86359961Y-145791666D02*
X86264723Y-145839285D01*
X86264723Y-145839285D02*
X86074247Y-145886904D01*
X86074247Y-145886904D02*
X85931390Y-145886904D01*
X85931390Y-145886904D02*
X85740914Y-145839285D01*
X85740914Y-145839285D02*
X85645676Y-145791666D01*
X85645676Y-145791666D02*
X85550438Y-145696428D01*
X85550438Y-145696428D02*
X85502819Y-145553571D01*
X85502819Y-145553571D02*
X85502819Y-145458333D01*
X85502819Y-145458333D02*
X85550438Y-145315476D01*
X85550438Y-145315476D02*
X85598057Y-145267857D01*
X85598057Y-144886904D02*
X85550438Y-144839285D01*
X85550438Y-144839285D02*
X85502819Y-144744047D01*
X85502819Y-144744047D02*
X85502819Y-144505952D01*
X85502819Y-144505952D02*
X85550438Y-144410714D01*
X85550438Y-144410714D02*
X85598057Y-144363095D01*
X85598057Y-144363095D02*
X85693295Y-144315476D01*
X85693295Y-144315476D02*
X85788533Y-144315476D01*
X85788533Y-144315476D02*
X85931390Y-144363095D01*
X85931390Y-144363095D02*
X86502819Y-144934523D01*
X86502819Y-144934523D02*
X86502819Y-144315476D01*
X85502819Y-143410714D02*
X85502819Y-143886904D01*
X85502819Y-143886904D02*
X85979009Y-143934523D01*
X85979009Y-143934523D02*
X85931390Y-143886904D01*
X85931390Y-143886904D02*
X85883771Y-143791666D01*
X85883771Y-143791666D02*
X85883771Y-143553571D01*
X85883771Y-143553571D02*
X85931390Y-143458333D01*
X85931390Y-143458333D02*
X85979009Y-143410714D01*
X85979009Y-143410714D02*
X86074247Y-143363095D01*
X86074247Y-143363095D02*
X86312342Y-143363095D01*
X86312342Y-143363095D02*
X86407580Y-143410714D01*
X86407580Y-143410714D02*
X86455200Y-143458333D01*
X86455200Y-143458333D02*
X86502819Y-143553571D01*
X86502819Y-143553571D02*
X86502819Y-143791666D01*
X86502819Y-143791666D02*
X86455200Y-143886904D01*
X86455200Y-143886904D02*
X86407580Y-143934523D01*
X83244905Y-117489819D02*
X83244905Y-116489819D01*
X83816333Y-117489819D02*
X83387762Y-116918390D01*
X83816333Y-116489819D02*
X83244905Y-117061247D01*
X84768714Y-117489819D02*
X84197286Y-117489819D01*
X84483000Y-117489819D02*
X84483000Y-116489819D01*
X84483000Y-116489819D02*
X84387762Y-116632676D01*
X84387762Y-116632676D02*
X84292524Y-116727914D01*
X84292524Y-116727914D02*
X84197286Y-116775533D01*
X109586819Y-145386904D02*
X110396342Y-145386904D01*
X110396342Y-145386904D02*
X110491580Y-145339285D01*
X110491580Y-145339285D02*
X110539200Y-145291666D01*
X110539200Y-145291666D02*
X110586819Y-145196428D01*
X110586819Y-145196428D02*
X110586819Y-145005952D01*
X110586819Y-145005952D02*
X110539200Y-144910714D01*
X110539200Y-144910714D02*
X110491580Y-144863095D01*
X110491580Y-144863095D02*
X110396342Y-144815476D01*
X110396342Y-144815476D02*
X109586819Y-144815476D01*
X110015390Y-144196428D02*
X109967771Y-144291666D01*
X109967771Y-144291666D02*
X109920152Y-144339285D01*
X109920152Y-144339285D02*
X109824914Y-144386904D01*
X109824914Y-144386904D02*
X109777295Y-144386904D01*
X109777295Y-144386904D02*
X109682057Y-144339285D01*
X109682057Y-144339285D02*
X109634438Y-144291666D01*
X109634438Y-144291666D02*
X109586819Y-144196428D01*
X109586819Y-144196428D02*
X109586819Y-144005952D01*
X109586819Y-144005952D02*
X109634438Y-143910714D01*
X109634438Y-143910714D02*
X109682057Y-143863095D01*
X109682057Y-143863095D02*
X109777295Y-143815476D01*
X109777295Y-143815476D02*
X109824914Y-143815476D01*
X109824914Y-143815476D02*
X109920152Y-143863095D01*
X109920152Y-143863095D02*
X109967771Y-143910714D01*
X109967771Y-143910714D02*
X110015390Y-144005952D01*
X110015390Y-144005952D02*
X110015390Y-144196428D01*
X110015390Y-144196428D02*
X110063009Y-144291666D01*
X110063009Y-144291666D02*
X110110628Y-144339285D01*
X110110628Y-144339285D02*
X110205866Y-144386904D01*
X110205866Y-144386904D02*
X110396342Y-144386904D01*
X110396342Y-144386904D02*
X110491580Y-144339285D01*
X110491580Y-144339285D02*
X110539200Y-144291666D01*
X110539200Y-144291666D02*
X110586819Y-144196428D01*
X110586819Y-144196428D02*
X110586819Y-144005952D01*
X110586819Y-144005952D02*
X110539200Y-143910714D01*
X110539200Y-143910714D02*
X110491580Y-143863095D01*
X110491580Y-143863095D02*
X110396342Y-143815476D01*
X110396342Y-143815476D02*
X110205866Y-143815476D01*
X110205866Y-143815476D02*
X110110628Y-143863095D01*
X110110628Y-143863095D02*
X110063009Y-143910714D01*
X110063009Y-143910714D02*
X110015390Y-144005952D01*
X109550819Y-130821666D02*
X109074628Y-131154999D01*
X109550819Y-131393094D02*
X108550819Y-131393094D01*
X108550819Y-131393094D02*
X108550819Y-131012142D01*
X108550819Y-131012142D02*
X108598438Y-130916904D01*
X108598438Y-130916904D02*
X108646057Y-130869285D01*
X108646057Y-130869285D02*
X108741295Y-130821666D01*
X108741295Y-130821666D02*
X108884152Y-130821666D01*
X108884152Y-130821666D02*
X108979390Y-130869285D01*
X108979390Y-130869285D02*
X109027009Y-130916904D01*
X109027009Y-130916904D02*
X109074628Y-131012142D01*
X109074628Y-131012142D02*
X109074628Y-131393094D01*
X108884152Y-129964523D02*
X109550819Y-129964523D01*
X108503200Y-130202618D02*
X109217485Y-130440713D01*
X109217485Y-130440713D02*
X109217485Y-129821666D01*
D11*
%TO.C,C12*%
X126403000Y-140801420D02*
X126403000Y-141082580D01*
X125383000Y-140801420D02*
X125383000Y-141082580D01*
%TO.C,C13*%
X128308000Y-144484420D02*
X128308000Y-144765580D01*
X127288000Y-144484420D02*
X127288000Y-144765580D01*
%TO.C,C14*%
X129828000Y-144765580D02*
X129828000Y-144484420D01*
X130848000Y-144765580D02*
X130848000Y-144484420D01*
%TO.C,J3*%
X130532000Y-126023000D02*
X131862000Y-126023000D01*
X130532000Y-127353000D02*
X130532000Y-126023000D01*
X130532000Y-128623000D02*
X130532000Y-133763000D01*
X130532000Y-128623000D02*
X133192000Y-128623000D01*
X130532000Y-133763000D02*
X133192000Y-133763000D01*
X133192000Y-128623000D02*
X133192000Y-133763000D01*
%TO.C,C17*%
X86398000Y-144484420D02*
X86398000Y-144765580D01*
X85378000Y-144484420D02*
X85378000Y-144765580D01*
%TO.C,U5*%
X88184000Y-139291000D02*
X88184000Y-142741000D01*
X88184000Y-139291000D02*
X88184000Y-137341000D01*
X97054000Y-139291000D02*
X97054000Y-141241000D01*
X97054000Y-139291000D02*
X97054000Y-137341000D01*
%TO.C,R23*%
X97176500Y-144862258D02*
X97176500Y-144387742D01*
X98221500Y-144862258D02*
X98221500Y-144387742D01*
%TO.C,R28*%
X106097742Y-140800500D02*
X106572258Y-140800500D01*
X106097742Y-141845500D02*
X106572258Y-141845500D01*
%TO.C,D3*%
X125297000Y-146235000D02*
X126997000Y-146235000D01*
X125297000Y-146235000D02*
X125297000Y-143575000D01*
X126997000Y-146235000D02*
X126997000Y-143575000D01*
%TO.C,D5*%
X123392000Y-142552000D02*
X125092000Y-142552000D01*
X123392000Y-142552000D02*
X123392000Y-139892000D01*
X125092000Y-142552000D02*
X125092000Y-139892000D01*
%TO.C,C36*%
X100749000Y-144484420D02*
X100749000Y-144765580D01*
X99729000Y-144484420D02*
X99729000Y-144765580D01*
%TO.C,R7*%
X132130500Y-144387742D02*
X132130500Y-144862258D01*
X131085500Y-144387742D02*
X131085500Y-144862258D01*
%TO.C,Q2*%
X109546000Y-130655000D02*
X109546000Y-128980000D01*
X109546000Y-130655000D02*
X109546000Y-131305000D01*
X106426000Y-130655000D02*
X106426000Y-130005000D01*
X106426000Y-130655000D02*
X106426000Y-131305000D01*
%TO.C,FB3*%
X121831000Y-140779221D02*
X121831000Y-141104779D01*
X120811000Y-140779221D02*
X120811000Y-141104779D01*
%TO.C,C29*%
X95669000Y-133816420D02*
X95669000Y-134097580D01*
X94649000Y-133816420D02*
X94649000Y-134097580D01*
%TO.C,R27*%
X106097742Y-136990500D02*
X106572258Y-136990500D01*
X106097742Y-138035500D02*
X106572258Y-138035500D01*
%TO.C,C3*%
X119656420Y-133955000D02*
X119937580Y-133955000D01*
X119656420Y-134975000D02*
X119937580Y-134975000D01*
%TO.C,U6*%
X98314000Y-139291000D02*
X98314000Y-142741000D01*
X98314000Y-139291000D02*
X98314000Y-137341000D01*
X103434000Y-139291000D02*
X103434000Y-141241000D01*
X103434000Y-139291000D02*
X103434000Y-137341000D01*
%TO.C,FB1*%
X112052000Y-144462221D02*
X112052000Y-144787779D01*
X111032000Y-144462221D02*
X111032000Y-144787779D01*
%TO.C,TP1*%
X104700000Y-97000000D02*
G75*
G03*
X101300000Y-97000000I-1700000J0D01*
G01*
X101300000Y-97000000D02*
G75*
G03*
X104700000Y-97000000I1700000J0D01*
G01*
%TO.C,TP5*%
X67700000Y-117000000D02*
G75*
G03*
X64300000Y-117000000I-1700000J0D01*
G01*
X64300000Y-117000000D02*
G75*
G03*
X67700000Y-117000000I1700000J0D01*
G01*
%TO.C,D6*%
X85593000Y-132394000D02*
X85593000Y-130694000D01*
X85593000Y-132394000D02*
X82933000Y-132394000D01*
X85593000Y-130694000D02*
X82933000Y-130694000D01*
%TO.C,Q1*%
X46679000Y-131172500D02*
X46679000Y-131442500D01*
X46679000Y-131442500D02*
X43849000Y-131442500D01*
X46679000Y-137802500D02*
X45579000Y-137802500D01*
X46679000Y-138072500D02*
X46679000Y-137802500D01*
X53099000Y-131172500D02*
X46679000Y-131172500D01*
X53099000Y-138072500D02*
X46679000Y-138072500D01*
%TO.C,C39*%
X118529000Y-144484420D02*
X118529000Y-144765580D01*
X117509000Y-144484420D02*
X117509000Y-144765580D01*
%TO.C,C37*%
X105702000Y-144484420D02*
X105702000Y-144765580D01*
X104682000Y-144484420D02*
X104682000Y-144765580D01*
%TO.C,L1*%
X128858000Y-139682000D02*
X128858000Y-142202000D01*
X126738000Y-139682000D02*
X126738000Y-142202000D01*
%TO.C,U4*%
X129286000Y-140942000D02*
X129286000Y-142742000D01*
X129286000Y-140942000D02*
X129286000Y-140142000D01*
X132406000Y-140942000D02*
X132406000Y-141742000D01*
X132406000Y-140942000D02*
X132406000Y-140142000D01*
%TO.C,C27*%
X89319000Y-133816420D02*
X89319000Y-134097580D01*
X88299000Y-133816420D02*
X88299000Y-134097580D01*
%TO.C,R25*%
X102256500Y-144862258D02*
X102256500Y-144387742D01*
X103301500Y-144862258D02*
X103301500Y-144387742D01*
%TO.C,R16*%
X90601500Y-130925742D02*
X90601500Y-131400258D01*
X89556500Y-130925742D02*
X89556500Y-131400258D01*
%TO.C,D4*%
X123392000Y-146235000D02*
X125092000Y-146235000D01*
X123392000Y-146235000D02*
X123392000Y-143575000D01*
X125092000Y-146235000D02*
X125092000Y-143575000D01*
%TO.C,C31*%
X94649000Y-144765580D02*
X94649000Y-144484420D01*
X95669000Y-144765580D02*
X95669000Y-144484420D01*
%TO.C,C24*%
X120561000Y-140801420D02*
X120561000Y-141082580D01*
X119541000Y-140801420D02*
X119541000Y-141082580D01*
%TO.C,R24*%
X103301500Y-133719742D02*
X103301500Y-134194258D01*
X102256500Y-133719742D02*
X102256500Y-134194258D01*
%TO.C,R12*%
X90601500Y-144387742D02*
X90601500Y-144862258D01*
X89556500Y-144387742D02*
X89556500Y-144862258D01*
%TO.C,TP6*%
X114700000Y-97000000D02*
G75*
G03*
X111300000Y-97000000I-1700000J0D01*
G01*
X111300000Y-97000000D02*
G75*
G03*
X114700000Y-97000000I1700000J0D01*
G01*
%TO.C,C9*%
X127673000Y-127720420D02*
X127673000Y-128001580D01*
X126653000Y-127720420D02*
X126653000Y-128001580D01*
%TO.C,C10*%
X111286000Y-128001580D02*
X111286000Y-127720420D01*
X112306000Y-128001580D02*
X112306000Y-127720420D01*
%TO.C,C16*%
X122081000Y-141082580D02*
X122081000Y-140801420D01*
X123101000Y-141082580D02*
X123101000Y-140801420D01*
%TO.C,C38*%
X112302000Y-144765580D02*
X112302000Y-144484420D01*
X113322000Y-144765580D02*
X113322000Y-144484420D01*
%TO.C,D2*%
X49303000Y-129501000D02*
X50773000Y-129501000D01*
X50773000Y-129501000D02*
X50773000Y-127216000D01*
X49303000Y-127216000D02*
X49303000Y-129501000D01*
%TO.C,FB2*%
X120811000Y-144787779D02*
X120811000Y-144462221D01*
X121831000Y-144787779D02*
X121831000Y-144462221D01*
%TO.C,R2*%
X127273258Y-136257500D02*
X126798742Y-136257500D01*
X127273258Y-135212500D02*
X126798742Y-135212500D01*
%TO.C,C1*%
X130952000Y-137335252D02*
X130952000Y-135912748D01*
X132772000Y-137335252D02*
X132772000Y-135912748D01*
%TO.C,J1*%
X139740000Y-142820000D02*
X136510000Y-142820000D01*
X143910000Y-142820000D02*
X141960000Y-142820000D01*
X134590000Y-142100000D02*
X134590000Y-141020000D01*
X134590000Y-141020000D02*
X134160000Y-141020000D01*
X134590000Y-136800000D02*
X134590000Y-135720000D01*
X139740000Y-135000000D02*
X136510000Y-135000000D01*
X143910000Y-135000000D02*
X143910000Y-142820000D01*
X143910000Y-135000000D02*
X141960000Y-135000000D01*
%TO.C,R26*%
X98446500Y-144862258D02*
X98446500Y-144387742D01*
X99491500Y-144862258D02*
X99491500Y-144387742D01*
%TO.C,C23*%
X120561000Y-144484420D02*
X120561000Y-144765580D01*
X119541000Y-144484420D02*
X119541000Y-144765580D01*
%TO.C,C11*%
X126895420Y-133955000D02*
X127176580Y-133955000D01*
X126895420Y-134975000D02*
X127176580Y-134975000D01*
%TO.C,C26*%
X90589000Y-133816420D02*
X90589000Y-134097580D01*
X89569000Y-133816420D02*
X89569000Y-134097580D01*
%TO.C,U2*%
X122507000Y-135565000D02*
X122507000Y-135565000D01*
X124207000Y-135565000D02*
X124207000Y-135565000D01*
X124707000Y-135565000D02*
X124207000Y-135565000D01*
X122507000Y-135065000D02*
X122507000Y-135565000D01*
X124707000Y-135065000D02*
X124707000Y-135565000D01*
X122507000Y-133865000D02*
X122507000Y-133365000D01*
X124707000Y-133865000D02*
X124707000Y-133865000D01*
X122507000Y-133365000D02*
X123007000Y-133365000D01*
X123007000Y-133365000D02*
X123007000Y-133365000D01*
X124207000Y-133365000D02*
X124707000Y-133365000D01*
X124707000Y-133365000D02*
X124707000Y-133865000D01*
%TO.C,R6*%
X49163500Y-127778742D02*
X49163500Y-128253258D01*
X48118500Y-127778742D02*
X48118500Y-128253258D01*
%TO.C,R22*%
X94411500Y-144387742D02*
X94411500Y-144862258D01*
X93366500Y-144387742D02*
X93366500Y-144862258D01*
%TO.C,Y1*%
X112716000Y-126708000D02*
X112716000Y-131808000D01*
X112716000Y-131808000D02*
X125316000Y-131808000D01*
X125316000Y-126708000D02*
X112716000Y-126708000D01*
%TO.C,SW1*%
X141857000Y-121392000D02*
X141857000Y-122392000D01*
X140857000Y-121392000D02*
X141857000Y-121392000D01*
X139857000Y-123392000D02*
X137257000Y-123392000D01*
X141807000Y-129392000D02*
X141807000Y-123592000D01*
X135307000Y-129492000D02*
X135307000Y-123492000D01*
X139857000Y-129592000D02*
X137257000Y-129592000D01*
%TO.C,C7*%
X106475580Y-140563000D02*
X106194420Y-140563000D01*
X106475580Y-139543000D02*
X106194420Y-139543000D01*
%TO.C,R15*%
X90826500Y-134194258D02*
X90826500Y-133719742D01*
X91871500Y-134194258D02*
X91871500Y-133719742D01*
%TO.C,J2*%
X44703000Y-138697000D02*
X42963000Y-138697000D01*
X42963000Y-138697000D02*
X42963000Y-140197000D01*
X50323000Y-138937000D02*
X43203000Y-138937000D01*
X50323000Y-138937000D02*
X50323000Y-146757000D01*
X44763000Y-138937000D02*
X44763000Y-146757000D01*
X43203000Y-138937000D02*
X43203000Y-146757000D01*
X50323000Y-146757000D02*
X43203000Y-146757000D01*
X47471000Y-139665000D02*
G75*
G03*
X46255258Y-139664891I-608000J-1432000D01*
G01*
X48295000Y-141705000D02*
G75*
G03*
X48295109Y-140489258I-1432000J608000D01*
G01*
X45431001Y-140489000D02*
G75*
G03*
X45307508Y-141124011I1431987J-607998D01*
G01*
X45308001Y-141097000D02*
G75*
G03*
X45431616Y-141704587I1554999J0D01*
G01*
X46255000Y-142529000D02*
G75*
G03*
X47470742Y-142529109I607999J1432003D01*
G01*
X48418000Y-144597000D02*
G75*
G03*
X45308000Y-144597000I-1555000J0D01*
G01*
X45308000Y-144597000D02*
G75*
G03*
X48418000Y-144597000I1555000J0D01*
G01*
%TO.C,C15*%
X122081000Y-144765580D02*
X122081000Y-144484420D01*
X123101000Y-144765580D02*
X123101000Y-144484420D01*
%TO.C,C4*%
X111286000Y-130795580D02*
X111286000Y-130514420D01*
X112306000Y-130795580D02*
X112306000Y-130514420D01*
%TO.C,C6*%
X106475580Y-136753000D02*
X106194420Y-136753000D01*
X106475580Y-135733000D02*
X106194420Y-135733000D01*
%TO.C,C34*%
X102019000Y-144484420D02*
X102019000Y-144765580D01*
X100999000Y-144484420D02*
X100999000Y-144765580D01*
%TO.C,TP2*%
X74192000Y-97000000D02*
G75*
G03*
X70792000Y-97000000I-1700000J0D01*
G01*
X70792000Y-97000000D02*
G75*
G03*
X74192000Y-97000000I1700000J0D01*
G01*
%TO.C,R8*%
X128545500Y-144862258D02*
X128545500Y-144387742D01*
X129590500Y-144862258D02*
X129590500Y-144387742D01*
%TO.C,R18*%
X95681500Y-130925742D02*
X95681500Y-131400258D01*
X94636500Y-130925742D02*
X94636500Y-131400258D01*
%TO.C,R1*%
X119559742Y-137498500D02*
X120034258Y-137498500D01*
X119559742Y-138543500D02*
X120034258Y-138543500D01*
%TO.C,TP3*%
X84192000Y-97000000D02*
G75*
G03*
X80792000Y-97000000I-1700000J0D01*
G01*
X80792000Y-97000000D02*
G75*
G03*
X84192000Y-97000000I1700000J0D01*
G01*
%TO.C,R3*%
X119559742Y-135212500D02*
X120034258Y-135212500D01*
X119559742Y-136257500D02*
X120034258Y-136257500D01*
%TO.C,R11*%
X91871500Y-144387742D02*
X91871500Y-144862258D01*
X90826500Y-144387742D02*
X90826500Y-144862258D01*
%TO.C,R9*%
X85492500Y-134194258D02*
X85492500Y-133719742D01*
X86537500Y-134194258D02*
X86537500Y-133719742D01*
%TO.C,U7*%
X47407000Y-128016000D02*
X47407000Y-126216000D01*
X47407000Y-128016000D02*
X47407000Y-128816000D01*
X44287000Y-128016000D02*
X44287000Y-127216000D01*
X44287000Y-128016000D02*
X44287000Y-128816000D01*
%TO.C,C40*%
X106194420Y-138273000D02*
X106475580Y-138273000D01*
X106194420Y-139293000D02*
X106475580Y-139293000D01*
%TO.C,R10*%
X81428500Y-134194258D02*
X81428500Y-133719742D01*
X82473500Y-134194258D02*
X82473500Y-133719742D01*
%TO.C,C35*%
X109762000Y-144765580D02*
X109762000Y-144484420D01*
X110782000Y-144765580D02*
X110782000Y-144484420D01*
%TO.C,C2*%
X127176580Y-133705000D02*
X126895420Y-133705000D01*
X127176580Y-132685000D02*
X126895420Y-132685000D01*
%TO.C,C30*%
X95919000Y-144765580D02*
X95919000Y-144484420D01*
X96939000Y-144765580D02*
X96939000Y-144484420D01*
%TO.C,R13*%
X88286500Y-144862258D02*
X88286500Y-144387742D01*
X89331500Y-144862258D02*
X89331500Y-144387742D01*
%TO.C,D7*%
X82373000Y-128789000D02*
X82373000Y-130489000D01*
X82373000Y-128789000D02*
X85033000Y-128789000D01*
X82373000Y-130489000D02*
X85033000Y-130489000D01*
%TO.C,C20*%
X87795000Y-133816420D02*
X87795000Y-134097580D01*
X86775000Y-133816420D02*
X86775000Y-134097580D01*
%TO.C,R14*%
X89331500Y-130925742D02*
X89331500Y-131400258D01*
X88286500Y-130925742D02*
X88286500Y-131400258D01*
%TO.C,R17*%
X96951500Y-130925742D02*
X96951500Y-131400258D01*
X95906500Y-130925742D02*
X95906500Y-131400258D01*
%TO.C,C41*%
X54989000Y-142761580D02*
X54989000Y-142480420D01*
X56009000Y-142761580D02*
X56009000Y-142480420D01*
%TO.C,U1*%
X116676000Y-133649000D02*
X116226000Y-133649000D01*
X116226000Y-133649000D02*
X116226000Y-132359000D01*
X109456000Y-133649000D02*
X109906000Y-133649000D01*
X116676000Y-134099000D02*
X116676000Y-133649000D01*
X109456000Y-134099000D02*
X109456000Y-133649000D01*
X116676000Y-140419000D02*
X116676000Y-140869000D01*
X109456000Y-140419000D02*
X109456000Y-140869000D01*
X116676000Y-140869000D02*
X116226000Y-140869000D01*
X109456000Y-140869000D02*
X109906000Y-140869000D01*
%TO.C,D1*%
X51309000Y-146131000D02*
X54609000Y-146131000D01*
X51309000Y-146131000D02*
X51309000Y-140621000D01*
X54609000Y-146131000D02*
X54609000Y-140621000D01*
%TO.C,R21*%
X98221500Y-130925742D02*
X98221500Y-131400258D01*
X97176500Y-130925742D02*
X97176500Y-131400258D01*
%TO.C,C18*%
X82588000Y-144484420D02*
X82588000Y-144765580D01*
X81568000Y-144484420D02*
X81568000Y-144765580D01*
%TO.C,C19*%
X84123580Y-133705000D02*
X83842420Y-133705000D01*
X84123580Y-132685000D02*
X83842420Y-132685000D01*
%TO.C,C22*%
X84123580Y-135229000D02*
X83842420Y-135229000D01*
X84123580Y-134209000D02*
X83842420Y-134209000D01*
%TO.C,R19*%
X93366500Y-134194258D02*
X93366500Y-133719742D01*
X94411500Y-134194258D02*
X94411500Y-133719742D01*
%TO.C,U3*%
X86543000Y-139291000D02*
X86543000Y-135841000D01*
X86543000Y-139291000D02*
X86543000Y-141241000D01*
X81423000Y-139291000D02*
X81423000Y-137341000D01*
X81423000Y-139291000D02*
X81423000Y-141241000D01*
%TO.C,C33*%
X93129000Y-144484420D02*
X93129000Y-144765580D01*
X92109000Y-144484420D02*
X92109000Y-144765580D01*
%TO.C,R20*%
X97176500Y-134194258D02*
X97176500Y-133719742D01*
X98221500Y-134194258D02*
X98221500Y-133719742D01*
%TO.C,C21*%
X80298000Y-134097580D02*
X80298000Y-133816420D01*
X81318000Y-134097580D02*
X81318000Y-133816420D01*
%TO.C,TP4*%
X75700000Y-125000000D02*
G75*
G03*
X72300000Y-125000000I-1700000J0D01*
G01*
X72300000Y-125000000D02*
G75*
G03*
X75700000Y-125000000I1700000J0D01*
G01*
%TO.C,D8*%
X106042000Y-129045000D02*
X104342000Y-129045000D01*
X106042000Y-129045000D02*
X106042000Y-131705000D01*
X104342000Y-129045000D02*
X104342000Y-131705000D01*
%TO.C,U9*%
X116912000Y-144625000D02*
X116912000Y-142950000D01*
X116912000Y-144625000D02*
X116912000Y-145275000D01*
X113792000Y-144625000D02*
X113792000Y-143975000D01*
X113792000Y-144625000D02*
X113792000Y-145275000D01*
%TO.C,C8*%
X127923000Y-128001580D02*
X127923000Y-127720420D01*
X128943000Y-128001580D02*
X128943000Y-127720420D01*
%TO.C,C5*%
X119656420Y-132685000D02*
X119937580Y-132685000D01*
X119656420Y-133705000D02*
X119937580Y-133705000D01*
%TO.C,C32*%
X92109000Y-134097580D02*
X92109000Y-133816420D01*
X93129000Y-134097580D02*
X93129000Y-133816420D01*
%TO.C,C28*%
X96939000Y-133816420D02*
X96939000Y-134097580D01*
X95919000Y-133816420D02*
X95919000Y-134097580D01*
%TO.C,C25*%
X85128000Y-144484420D02*
X85128000Y-144765580D01*
X84108000Y-144484420D02*
X84108000Y-144765580D01*
%TO.C,K1*%
X80643000Y-123835000D02*
X80643000Y-123035000D01*
X80643000Y-126035000D02*
X80643000Y-125435000D01*
X80643000Y-128135000D02*
X80643000Y-127635000D01*
X80683000Y-117945000D02*
X80683000Y-118445000D01*
X80683000Y-117945000D02*
X87343000Y-117935000D01*
X80683000Y-118445000D02*
X80083000Y-118445000D01*
X80683000Y-119945000D02*
X80083000Y-119945000D01*
X80683000Y-121345000D02*
X80683000Y-119945000D01*
X87343000Y-117935000D02*
X87343000Y-118435000D01*
X87343000Y-120035000D02*
X87343000Y-121435000D01*
X87343000Y-123035000D02*
X87343000Y-123835000D01*
X87343000Y-125435000D02*
X87343000Y-126035000D01*
X87343000Y-127635000D02*
X87343000Y-128135000D01*
X87343000Y-128135000D02*
X80643000Y-128135000D01*
%TO.C,U8*%
X109292000Y-144625000D02*
X109292000Y-142825000D01*
X109292000Y-144625000D02*
X109292000Y-145425000D01*
X106172000Y-144625000D02*
X106172000Y-143825000D01*
X106172000Y-144625000D02*
X106172000Y-145425000D01*
%TO.C,R4*%
X110003500Y-130892258D02*
X110003500Y-130417742D01*
X111048500Y-130892258D02*
X111048500Y-130417742D01*
%TD*%
M02*
