%TF.GenerationSoftware,KiCad,Pcbnew,7.0.10+1*%
%TF.CreationDate,2024-03-16T10:02:44+01:00*%
%TF.ProjectId,PCB,5043422e-6b69-4636-9164-5f7063625858,rev?*%
%TF.SameCoordinates,Original*%
%TF.FileFunction,Paste,Top*%
%TF.FilePolarity,Positive*%
%FSLAX46Y46*%
G04 Gerber Fmt 4.6, Leading zero omitted, Abs format (unit mm)*
G04 Created by KiCad (PCBNEW 7.0.10+1) date 2024-03-16 10:02:44*
%MOMM*%
%LPD*%
G01*
G04 APERTURE LIST*
G04 Aperture macros list*
%AMRoundRect*
0 Rectangle with rounded corners*
0 $1 Rounding radius*
0 $2 $3 $4 $5 $6 $7 $8 $9 X,Y pos of 4 corners*
0 Add a 4 corners polygon primitive as box body*
4,1,4,$2,$3,$4,$5,$6,$7,$8,$9,$2,$3,0*
0 Add four circle primitives for the rounded corners*
1,1,$1+$1,$2,$3*
1,1,$1+$1,$4,$5*
1,1,$1+$1,$6,$7*
1,1,$1+$1,$8,$9*
0 Add four rect primitives between the rounded corners*
20,1,$1+$1,$2,$3,$4,$5,0*
20,1,$1+$1,$4,$5,$6,$7,0*
20,1,$1+$1,$6,$7,$8,$9,0*
20,1,$1+$1,$8,$9,$2,$3,0*%
G04 Aperture macros list end*
%ADD10RoundRect,0.225000X-0.250000X0.225000X-0.250000X-0.225000X0.250000X-0.225000X0.250000X0.225000X0*%
%ADD11RoundRect,0.225000X0.250000X-0.225000X0.250000X0.225000X-0.250000X0.225000X-0.250000X-0.225000X0*%
%ADD12RoundRect,0.150000X0.150000X-0.825000X0.150000X0.825000X-0.150000X0.825000X-0.150000X-0.825000X0*%
%ADD13RoundRect,0.200000X0.275000X-0.200000X0.275000X0.200000X-0.275000X0.200000X-0.275000X-0.200000X0*%
%ADD14RoundRect,0.200000X-0.200000X-0.275000X0.200000X-0.275000X0.200000X0.275000X-0.200000X0.275000X0*%
%ADD15RoundRect,0.112500X0.112500X-0.187500X0.112500X0.187500X-0.112500X0.187500X-0.112500X-0.187500X0*%
%ADD16RoundRect,0.200000X-0.275000X0.200000X-0.275000X-0.200000X0.275000X-0.200000X0.275000X0.200000X0*%
%ADD17RoundRect,0.150000X-0.150000X0.587500X-0.150000X-0.587500X0.150000X-0.587500X0.150000X0.587500X0*%
%ADD18RoundRect,0.218750X-0.256250X0.218750X-0.256250X-0.218750X0.256250X-0.218750X0.256250X0.218750X0*%
%ADD19RoundRect,0.225000X-0.225000X-0.250000X0.225000X-0.250000X0.225000X0.250000X-0.225000X0.250000X0*%
%ADD20RoundRect,0.112500X0.187500X0.112500X-0.187500X0.112500X-0.187500X-0.112500X0.187500X-0.112500X0*%
%ADD21RoundRect,0.250000X-0.850000X-0.350000X0.850000X-0.350000X0.850000X0.350000X-0.850000X0.350000X0*%
%ADD22RoundRect,0.250000X-1.275000X-1.125000X1.275000X-1.125000X1.275000X1.125000X-1.275000X1.125000X0*%
%ADD23R,1.600000X0.550000*%
%ADD24RoundRect,0.150000X0.150000X-0.512500X0.150000X0.512500X-0.150000X0.512500X-0.150000X-0.512500X0*%
%ADD25RoundRect,0.218750X0.256250X-0.218750X0.256250X0.218750X-0.256250X0.218750X-0.256250X-0.218750X0*%
%ADD26RoundRect,0.200000X0.200000X0.275000X-0.200000X0.275000X-0.200000X-0.275000X0.200000X-0.275000X0*%
%ADD27RoundRect,0.250000X0.650000X-0.325000X0.650000X0.325000X-0.650000X0.325000X-0.650000X-0.325000X0*%
%ADD28R,2.000000X0.500000*%
%ADD29R,1.700000X2.000000*%
%ADD30R,0.350000X0.375000*%
%ADD31R,0.375000X0.350000*%
%ADD32R,4.500000X2.000000*%
%ADD33R,1.400000X1.600000*%
%ADD34RoundRect,0.225000X0.225000X0.250000X-0.225000X0.250000X-0.225000X-0.250000X0.225000X-0.250000X0*%
%ADD35RoundRect,0.150000X-0.150000X0.512500X-0.150000X-0.512500X0.150000X-0.512500X0.150000X0.512500X0*%
%ADD36RoundRect,0.112500X-0.187500X-0.112500X0.187500X-0.112500X0.187500X0.112500X-0.187500X0.112500X0*%
%ADD37RoundRect,0.075000X-0.075000X0.662500X-0.075000X-0.662500X0.075000X-0.662500X0.075000X0.662500X0*%
%ADD38RoundRect,0.075000X-0.662500X0.075000X-0.662500X-0.075000X0.662500X-0.075000X0.662500X0.075000X0*%
%ADD39RoundRect,0.250000X0.650000X-1.000000X0.650000X1.000000X-0.650000X1.000000X-0.650000X-1.000000X0*%
%ADD40RoundRect,0.150000X-0.150000X0.825000X-0.150000X-0.825000X0.150000X-0.825000X0.150000X0.825000X0*%
%ADD41RoundRect,0.112500X-0.112500X0.187500X-0.112500X-0.187500X0.112500X-0.187500X0.112500X0.187500X0*%
%ADD42R,1.800000X0.800000*%
G04 APERTURE END LIST*
D10*
%TO.C,C12*%
X125893000Y-140167000D03*
X125893000Y-141717000D03*
%TD*%
%TO.C,C13*%
X127798000Y-143850000D03*
X127798000Y-145400000D03*
%TD*%
D11*
%TO.C,C14*%
X130338000Y-145400000D03*
X130338000Y-143850000D03*
%TD*%
D10*
%TO.C,C17*%
X85888000Y-143850000D03*
X85888000Y-145400000D03*
%TD*%
D12*
%TO.C,U5*%
X88809000Y-141766000D03*
X90079000Y-141766000D03*
X91349000Y-141766000D03*
X92619000Y-141766000D03*
X93889000Y-141766000D03*
X95159000Y-141766000D03*
X96429000Y-141766000D03*
X96429000Y-136816000D03*
X95159000Y-136816000D03*
X93889000Y-136816000D03*
X92619000Y-136816000D03*
X91349000Y-136816000D03*
X90079000Y-136816000D03*
X88809000Y-136816000D03*
%TD*%
D13*
%TO.C,R23*%
X97699000Y-145450000D03*
X97699000Y-143800000D03*
%TD*%
D14*
%TO.C,R28*%
X105510000Y-141323000D03*
X107160000Y-141323000D03*
%TD*%
D15*
%TO.C,D3*%
X126147000Y-145675000D03*
X126147000Y-143575000D03*
%TD*%
%TO.C,D5*%
X124242000Y-141992000D03*
X124242000Y-139892000D03*
%TD*%
D10*
%TO.C,C36*%
X100239000Y-143850000D03*
X100239000Y-145400000D03*
%TD*%
D16*
%TO.C,R7*%
X131608000Y-143800000D03*
X131608000Y-145450000D03*
%TD*%
D17*
%TO.C,Q2*%
X108936000Y-129717500D03*
X107036000Y-129717500D03*
X107986000Y-131592500D03*
%TD*%
D18*
%TO.C,FB3*%
X121321000Y-140154500D03*
X121321000Y-141729500D03*
%TD*%
D10*
%TO.C,C29*%
X95159000Y-133182000D03*
X95159000Y-134732000D03*
%TD*%
D14*
%TO.C,R27*%
X105510000Y-137513000D03*
X107160000Y-137513000D03*
%TD*%
D19*
%TO.C,C3*%
X119022000Y-134465000D03*
X120572000Y-134465000D03*
%TD*%
D12*
%TO.C,U6*%
X98969000Y-141766000D03*
X100239000Y-141766000D03*
X101509000Y-141766000D03*
X102779000Y-141766000D03*
X102779000Y-136816000D03*
X101509000Y-136816000D03*
X100239000Y-136816000D03*
X98969000Y-136816000D03*
%TD*%
D18*
%TO.C,FB1*%
X111542000Y-143837500D03*
X111542000Y-145412500D03*
%TD*%
D20*
%TO.C,D6*%
X85033000Y-131544000D03*
X82933000Y-131544000D03*
%TD*%
D21*
%TO.C,Q1*%
X44949000Y-132342500D03*
D22*
X49574000Y-133097500D03*
X49574000Y-136147500D03*
X52924000Y-133097500D03*
X52924000Y-136147500D03*
D21*
X44949000Y-136902500D03*
%TD*%
D10*
%TO.C,C39*%
X118019000Y-143850000D03*
X118019000Y-145400000D03*
%TD*%
%TO.C,C37*%
X105192000Y-143850000D03*
X105192000Y-145400000D03*
%TD*%
D23*
%TO.C,L1*%
X127798000Y-140217000D03*
X127798000Y-141667000D03*
%TD*%
D24*
%TO.C,U4*%
X129896000Y-142079500D03*
X130846000Y-142079500D03*
X131796000Y-142079500D03*
X131796000Y-139804500D03*
X129896000Y-139804500D03*
%TD*%
D10*
%TO.C,C27*%
X88809000Y-133182000D03*
X88809000Y-134732000D03*
%TD*%
D13*
%TO.C,R25*%
X102779000Y-145450000D03*
X102779000Y-143800000D03*
%TD*%
D16*
%TO.C,R16*%
X90079000Y-130338000D03*
X90079000Y-131988000D03*
%TD*%
D15*
%TO.C,D4*%
X124242000Y-145675000D03*
X124242000Y-143575000D03*
%TD*%
D11*
%TO.C,C31*%
X95159000Y-145400000D03*
X95159000Y-143850000D03*
%TD*%
D10*
%TO.C,C24*%
X120051000Y-140167000D03*
X120051000Y-141717000D03*
%TD*%
D16*
%TO.C,R24*%
X102779000Y-133132000D03*
X102779000Y-134782000D03*
%TD*%
%TO.C,R12*%
X90079000Y-143800000D03*
X90079000Y-145450000D03*
%TD*%
D10*
%TO.C,C9*%
X127163000Y-127086000D03*
X127163000Y-128636000D03*
%TD*%
D11*
%TO.C,C10*%
X111796000Y-128636000D03*
X111796000Y-127086000D03*
%TD*%
%TO.C,C16*%
X122591000Y-141717000D03*
X122591000Y-140167000D03*
%TD*%
%TO.C,C38*%
X112812000Y-145400000D03*
X112812000Y-143850000D03*
%TD*%
D25*
%TO.C,D2*%
X50038000Y-128803500D03*
X50038000Y-127228500D03*
%TD*%
%TO.C,FB2*%
X121321000Y-145412500D03*
X121321000Y-143837500D03*
%TD*%
D26*
%TO.C,R2*%
X127861000Y-135735000D03*
X126211000Y-135735000D03*
%TD*%
D27*
%TO.C,C1*%
X131862000Y-138099000D03*
X131862000Y-135149000D03*
%TD*%
D28*
%TO.C,J1*%
X135300000Y-140510000D03*
X135300000Y-139710000D03*
X135300000Y-138910000D03*
X135300000Y-138110000D03*
X135300000Y-137310000D03*
D29*
X135400000Y-143360000D03*
X140850000Y-143360000D03*
X135400000Y-134460000D03*
X140850000Y-134460000D03*
%TD*%
D13*
%TO.C,R26*%
X98969000Y-145450000D03*
X98969000Y-143800000D03*
%TD*%
D10*
%TO.C,C23*%
X120051000Y-143850000D03*
X120051000Y-145400000D03*
%TD*%
D19*
%TO.C,C11*%
X126261000Y-134465000D03*
X127811000Y-134465000D03*
%TD*%
D10*
%TO.C,C26*%
X90079000Y-133182000D03*
X90079000Y-134732000D03*
%TD*%
D30*
%TO.C,U2*%
X122857000Y-135227500D03*
X123357000Y-135227500D03*
X123857000Y-135227500D03*
X124357000Y-135227500D03*
D31*
X124369500Y-134715000D03*
X124369500Y-134215000D03*
D30*
X124357000Y-133702500D03*
X123857000Y-133702500D03*
X123357000Y-133702500D03*
X122857000Y-133702500D03*
D31*
X122844500Y-134215000D03*
X122844500Y-134715000D03*
%TD*%
D16*
%TO.C,R6*%
X48641000Y-127191000D03*
X48641000Y-128841000D03*
%TD*%
%TO.C,R22*%
X93889000Y-143800000D03*
X93889000Y-145450000D03*
%TD*%
D32*
%TO.C,Y1*%
X115166000Y-129258000D03*
X123666000Y-129258000D03*
%TD*%
D33*
%TO.C,SW1*%
X140807000Y-122492000D03*
X140807000Y-130492000D03*
X136307000Y-122492000D03*
X136307000Y-130492000D03*
%TD*%
D34*
%TO.C,C7*%
X107110000Y-140053000D03*
X105560000Y-140053000D03*
%TD*%
D13*
%TO.C,R15*%
X91349000Y-134782000D03*
X91349000Y-133132000D03*
%TD*%
D11*
%TO.C,C15*%
X122591000Y-145400000D03*
X122591000Y-143850000D03*
%TD*%
%TO.C,C4*%
X111796000Y-131430000D03*
X111796000Y-129880000D03*
%TD*%
D34*
%TO.C,C6*%
X107110000Y-136243000D03*
X105560000Y-136243000D03*
%TD*%
D10*
%TO.C,C34*%
X101509000Y-143850000D03*
X101509000Y-145400000D03*
%TD*%
D13*
%TO.C,R8*%
X129068000Y-145450000D03*
X129068000Y-143800000D03*
%TD*%
D16*
%TO.C,R18*%
X95159000Y-130338000D03*
X95159000Y-131988000D03*
%TD*%
D14*
%TO.C,R1*%
X118972000Y-138021000D03*
X120622000Y-138021000D03*
%TD*%
%TO.C,R3*%
X118972000Y-135735000D03*
X120622000Y-135735000D03*
%TD*%
D16*
%TO.C,R11*%
X91349000Y-143800000D03*
X91349000Y-145450000D03*
%TD*%
D13*
%TO.C,R9*%
X86015000Y-134782000D03*
X86015000Y-133132000D03*
%TD*%
D35*
%TO.C,U7*%
X46797000Y-126878500D03*
X45847000Y-126878500D03*
X44897000Y-126878500D03*
X44897000Y-129153500D03*
X46797000Y-129153500D03*
%TD*%
D19*
%TO.C,C40*%
X105560000Y-138783000D03*
X107110000Y-138783000D03*
%TD*%
D13*
%TO.C,R10*%
X81951000Y-134782000D03*
X81951000Y-133132000D03*
%TD*%
D11*
%TO.C,C35*%
X110272000Y-145400000D03*
X110272000Y-143850000D03*
%TD*%
D34*
%TO.C,C2*%
X127811000Y-133195000D03*
X126261000Y-133195000D03*
%TD*%
D11*
%TO.C,C30*%
X96429000Y-145400000D03*
X96429000Y-143850000D03*
%TD*%
D13*
%TO.C,R13*%
X88809000Y-145450000D03*
X88809000Y-143800000D03*
%TD*%
D36*
%TO.C,D7*%
X82933000Y-129639000D03*
X85033000Y-129639000D03*
%TD*%
D10*
%TO.C,C20*%
X87285000Y-133182000D03*
X87285000Y-134732000D03*
%TD*%
D16*
%TO.C,R14*%
X88809000Y-130338000D03*
X88809000Y-131988000D03*
%TD*%
%TO.C,R17*%
X96429000Y-130338000D03*
X96429000Y-131988000D03*
%TD*%
D11*
%TO.C,C41*%
X55499000Y-143396000D03*
X55499000Y-141846000D03*
%TD*%
D37*
%TO.C,U1*%
X115816000Y-133096500D03*
X115316000Y-133096500D03*
X114816000Y-133096500D03*
X114316000Y-133096500D03*
X113816000Y-133096500D03*
X113316000Y-133096500D03*
X112816000Y-133096500D03*
X112316000Y-133096500D03*
X111816000Y-133096500D03*
X111316000Y-133096500D03*
X110816000Y-133096500D03*
X110316000Y-133096500D03*
D38*
X108903500Y-134509000D03*
X108903500Y-135009000D03*
X108903500Y-135509000D03*
X108903500Y-136009000D03*
X108903500Y-136509000D03*
X108903500Y-137009000D03*
X108903500Y-137509000D03*
X108903500Y-138009000D03*
X108903500Y-138509000D03*
X108903500Y-139009000D03*
X108903500Y-139509000D03*
X108903500Y-140009000D03*
D37*
X110316000Y-141421500D03*
X110816000Y-141421500D03*
X111316000Y-141421500D03*
X111816000Y-141421500D03*
X112316000Y-141421500D03*
X112816000Y-141421500D03*
X113316000Y-141421500D03*
X113816000Y-141421500D03*
X114316000Y-141421500D03*
X114816000Y-141421500D03*
X115316000Y-141421500D03*
X115816000Y-141421500D03*
D38*
X117228500Y-140009000D03*
X117228500Y-139509000D03*
X117228500Y-139009000D03*
X117228500Y-138509000D03*
X117228500Y-138009000D03*
X117228500Y-137509000D03*
X117228500Y-137009000D03*
X117228500Y-136509000D03*
X117228500Y-136009000D03*
X117228500Y-135509000D03*
X117228500Y-135009000D03*
X117228500Y-134509000D03*
%TD*%
D39*
%TO.C,D1*%
X52959000Y-144621000D03*
X52959000Y-140621000D03*
%TD*%
D16*
%TO.C,R21*%
X97699000Y-130338000D03*
X97699000Y-131988000D03*
%TD*%
D10*
%TO.C,C18*%
X82078000Y-143850000D03*
X82078000Y-145400000D03*
%TD*%
D34*
%TO.C,C19*%
X84758000Y-133195000D03*
X83208000Y-133195000D03*
%TD*%
%TO.C,C22*%
X84758000Y-134719000D03*
X83208000Y-134719000D03*
%TD*%
D13*
%TO.C,R19*%
X93889000Y-134782000D03*
X93889000Y-133132000D03*
%TD*%
D40*
%TO.C,U3*%
X85888000Y-136816000D03*
X84618000Y-136816000D03*
X83348000Y-136816000D03*
X82078000Y-136816000D03*
X82078000Y-141766000D03*
X83348000Y-141766000D03*
X84618000Y-141766000D03*
X85888000Y-141766000D03*
%TD*%
D10*
%TO.C,C33*%
X92619000Y-143850000D03*
X92619000Y-145400000D03*
%TD*%
D13*
%TO.C,R20*%
X97699000Y-134782000D03*
X97699000Y-133132000D03*
%TD*%
D11*
%TO.C,C21*%
X80808000Y-134732000D03*
X80808000Y-133182000D03*
%TD*%
D41*
%TO.C,D8*%
X105192000Y-129605000D03*
X105192000Y-131705000D03*
%TD*%
D17*
%TO.C,U9*%
X116302000Y-143687500D03*
X114402000Y-143687500D03*
X115352000Y-145562500D03*
%TD*%
D11*
%TO.C,C8*%
X128433000Y-128636000D03*
X128433000Y-127086000D03*
%TD*%
D19*
%TO.C,C5*%
X119022000Y-133195000D03*
X120572000Y-133195000D03*
%TD*%
D11*
%TO.C,C32*%
X92619000Y-134732000D03*
X92619000Y-133182000D03*
%TD*%
D10*
%TO.C,C28*%
X96429000Y-133182000D03*
X96429000Y-134732000D03*
%TD*%
%TO.C,C25*%
X84618000Y-143850000D03*
X84618000Y-145400000D03*
%TD*%
D42*
%TO.C,K1*%
X80483000Y-119235000D03*
X80483000Y-122435000D03*
X80483000Y-124635000D03*
X80483000Y-126835000D03*
X87483000Y-126835000D03*
X87483000Y-124635000D03*
X87483000Y-122435000D03*
X87483000Y-119235000D03*
%TD*%
D35*
%TO.C,U8*%
X108682000Y-143487500D03*
X107732000Y-143487500D03*
X106782000Y-143487500D03*
X106782000Y-145762500D03*
X108682000Y-145762500D03*
%TD*%
D13*
%TO.C,R4*%
X110526000Y-131480000D03*
X110526000Y-129830000D03*
%TD*%
M02*
